<?xml version="1.0" encoding="UTF-8" standalone="no"?>
<!-- Created with Inkscape (http://www.inkscape.org/) -->

<svg
   width="512"
   height="512"
   viewBox="0 0 512 512"
   version="1.1"
   id="svg5"
   inkscape:export-filename="06.png"
   inkscape:export-xdpi="96"
   inkscape:export-ydpi="96"
   inkscape:version="1.2.2 (732a01da63, 2022-12-09)"
   sodipodi:docname="gate.svg"
   xmlns:inkscape="http://www.inkscape.org/namespaces/inkscape"
   xmlns:sodipodi="http://sodipodi.sourceforge.net/DTD/sodipodi-0.dtd"
   xmlns="http://www.w3.org/2000/svg"
   xmlns:svg="http://www.w3.org/2000/svg">
  <sodipodi:namedview
     id="namedview7"
     pagecolor="#ffffff"
     bordercolor="#666666"
     borderopacity="1.0"
     inkscape:showpageshadow="2"
     inkscape:pageopacity="0.0"
     inkscape:pagecheckerboard="0"
     inkscape:deskcolor="#d1d1d1"
     inkscape:document-units="px"
     showgrid="false"
     inkscape:zoom="1"
     inkscape:cx="133"
     inkscape:cy="280"
     inkscape:window-width="1858"
     inkscape:window-height="1057"
     inkscape:window-x="54"
     inkscape:window-y="892"
     inkscape:window-maximized="1"
     inkscape:current-layer="layer5" />
  <defs
     id="defs2">
    <inkscape:path-effect
       effect="spiro"
       id="path-effect10520"
       is_visible="true"
       lpeversion="1" />
    <inkscape:path-effect
       effect="spiro"
       id="path-effect10512"
       is_visible="true"
       lpeversion="1" />
    <inkscape:path-effect
       effect="spiro"
       id="path-effect10508"
       is_visible="true"
       lpeversion="1" />
    <inkscape:path-effect
       effect="spiro"
       id="path-effect10504"
       is_visible="true"
       lpeversion="1" />
    <inkscape:path-effect
       effect="spiro"
       id="path-effect10496"
       is_visible="true"
       lpeversion="1" />
    <inkscape:path-effect
       effect="spiro"
       id="path-effect10492"
       is_visible="true"
       lpeversion="1" />
    <inkscape:path-effect
       effect="spiro"
       id="path-effect10492-5"
       is_visible="true"
       lpeversion="1" />
    <inkscape:path-effect
       effect="spiro"
       id="path-effect10496-7"
       is_visible="true"
       lpeversion="1" />
    <inkscape:path-effect
       effect="spiro"
       id="path-effect10504-0"
       is_visible="true"
       lpeversion="1" />
    <inkscape:path-effect
       effect="spiro"
       id="path-effect10508-9"
       is_visible="true"
       lpeversion="1" />
    <inkscape:path-effect
       effect="spiro"
       id="path-effect10512-5"
       is_visible="true"
       lpeversion="1" />
    <inkscape:path-effect
       effect="spiro"
       id="path-effect10520-7"
       is_visible="true"
       lpeversion="1" />
  </defs>
  <g
     inkscape:label="Camada 1"
     inkscape:groupmode="layer"
     id="layer1"
     style="display:inline">
    <rect
       style="fill:#545191;fill-opacity:1;stroke:none;stroke-width:4.60115;stroke-linecap:round;stroke-linejoin:round;stroke-opacity:0.821159;paint-order:fill markers stroke"
       id="rect234-1-8"
       width="256"
       height="512"
       x="-256"
       y="0"
       transform="scale(-1,1)" />
  </g>
  <g
     inkscape:groupmode="layer"
     id="layer4"
     inkscape:label="Camada 4"
     style="display:inline">
    <rect
       style="fill:#545191;fill-opacity:1;stroke:none;stroke-width:4.60115;stroke-linecap:round;stroke-linejoin:round;stroke-opacity:0.821159;paint-order:fill markers stroke"
       id="rect234-1"
       width="256"
       height="512"
       x="256"
       y="0" />
  </g>
  <g
     inkscape:groupmode="layer"
     id="layer5"
     inkscape:label="Camada 5"
     style="display:inline">
    <circle
       style="fill:#ffc100;fill-opacity:1;stroke:none;stroke-width:5.15661;stroke-linecap:round;stroke-linejoin:round;stroke-opacity:0.821159;paint-order:fill markers stroke"
       id="path4602"
       cx="256"
       cy="256"
       r="64" />
    <path
       sodipodi:type="star"
       style="fill:#545191;fill-opacity:1;stroke:none;stroke-width:10;stroke-linecap:round;stroke-linejoin:round;stroke-dasharray:none;stroke-opacity:1;paint-order:fill markers stroke"
       id="path10760"
       inkscape:flatsided="false"
       sodipodi:sides="5"
       sodipodi:cx="245"
       sodipodi:cy="273.25"
       sodipodi:r1="53.250587"
       sodipodi:r2="33.547871"
       sodipodi:arg1="-1.5707963"
       sodipodi:arg2="-0.9424778"
       inkscape:rounded="0.15"
       inkscape:randomized="0"
       d="m 245,219.99941 c 4.90791,0 15.74836,23.225 19.71894,26.10979 3.97058,2.8848 29.40875,6.01777 30.92538,10.68546 1.51663,4.6677 -17.22177,22.15451 -18.7384,26.8222 -1.51663,4.6677 3.36457,29.82898 -0.60601,32.71377 -3.97058,2.8848 -26.392,-9.53276 -31.29991,-9.53276 -4.90791,0 -27.32933,12.41755 -31.29991,9.53276 -3.97058,-2.8848 0.91062,-28.04607 -0.60601,-32.71377 -1.51663,-4.66769 -20.25502,-22.1545 -18.7384,-26.8222 1.51663,-4.66769 26.9548,-7.80066 30.92538,-10.68546 3.97058,-2.88479 14.81103,-26.10979 19.71894,-26.10979 z"
       inkscape:transform-center-y="-4.8676252"
       transform="translate(11,-13.25)" />
  </g>
  <g
     inkscape:groupmode="layer"
     id="layer2"
     inkscape:label="Camada 2">
    <rect
       style="display:inline;fill:#ffffff;fill-opacity:0;stroke:none;stroke-width:32.8312;stroke-linecap:round;stroke-linejoin:round;stroke-dasharray:none;stroke-opacity:1;paint-order:fill markers stroke"
       id="rect10991"
       width="512"
       height="512"
       x="0"
       y="0" />
    <g
       id="g10842">
      <path
         style="fill:none;stroke:#ffc100;stroke-width:10;stroke-linecap:round;stroke-linejoin:miter;stroke-dasharray:none;stroke-opacity:1"
         d="m 217.72757,337.93134 c -3.28247,17.87184 -13.11577,34.46555 -27.21594,45.92691 -8.33967,6.77892 -18.21181,11.81958 -28.77895,13.77905 -10.56713,1.95948 -21.83206,0.72247 -31.37319,-4.22431 -9.54114,-4.94678 -17.19652,-13.72337 -20.04596,-24.08602 -1.42472,-5.18132 -1.65477,-10.69963 -0.56265,-15.96111 1.09212,-5.26149 3.51453,-10.25452 7.05089,-14.30052 3.8242,-4.37533 8.9385,-7.60898 14.53099,-9.18762 5.59248,-1.57863 11.64276,-1.49649 17.19033,0.2334 5.54756,1.72989 10.57218,5.1012 14.27619,9.57874 3.704,4.47754 6.07387,10.04497 6.73339,15.81845"
         id="path10490-9"
         inkscape:path-effect="#path-effect10492-5"
         inkscape:original-d="m 217.72757,337.93134 c -8.69498,14.93197 -18.14496,30.61894 -27.21594,45.92691 -9.07098,15.30797 -49.14091,-29.86094 -73.70986,-44.79291 -24.56895,-14.93197 35.15293,10.96298 52.7309,16.44297" />
      <path
         style="fill:none;stroke:#ffc100;stroke-width:10;stroke-linecap:round;stroke-linejoin:miter;stroke-dasharray:none;stroke-opacity:1"
         d="m 170.14717,284.93079 c -6.19949,-8.29958 -15.97064,-13.83328 -26.27686,-14.88137 -10.30622,-1.04809 -20.99132,2.40531 -28.73466,9.28698 -8.41249,7.47635 -12.99385,18.23083 -17.495343,28.54599 -4.501492,10.31515 -9.5022,20.97505 -18.401997,27.86413 -5.075346,3.92868 -11.253157,6.41718 -17.634594,7.10342 -6.381438,0.68625 -12.947093,-0.43184 -18.741698,-3.19159 -5.794605,-2.75976 -10.800536,-7.15278 -14.289456,-12.5399 -3.48892,-5.38712 -5.450219,-11.75197 -5.598537,-18.16849 -0.148318,-6.41651 1.516795,-12.86518 4.753074,-18.40776 3.23628,-5.54258 8.033882,-10.16221 13.694783,-13.18675 5.660901,-3.02455 12.167881,-4.44482 18.574211,-4.05416 6.406331,0.39065 12.692525,2.59104 17.943977,6.28102"
         id="path10494-9"
         inkscape:path-effect="#path-effect10496-7"
         inkscape:original-d="m 170.14717,284.93079 c -18.0272,-1.86397 -36.67516,-3.72877 -55.01152,-5.59439 -18.33634,-1.86561 -23.93238,37.60756 -35.89734,56.41012 -11.96496,18.80254 -4.87325,-42.33281 -1.29824,-56.16421"
         sodipodi:nodetypes="cssc" />
      <path
         style="fill:none;stroke:#ffc100;stroke-width:10;stroke-linecap:round;stroke-linejoin:miter;stroke-dasharray:none;stroke-opacity:1"
         d="M 206.3876,175.20266 C 194.90965,164.026 184.87339,151.37044 176.60558,137.64803 166.21732,120.40622 158.48881,101.3258 145.16971,86.232835 135.29134,75.038846 122.37377,66.34757 107.95442,62.478481 93.535073,58.609392 77.629645,59.770661 64.389879,66.669654 51.150114,73.568647 40.887195,86.372464 38.053218,101.03043 c -1.416988,7.32899 -1.002242,15.02224 1.328772,22.11366 2.331013,7.09143 6.587637,13.5588 12.27083,18.39855 6.706306,5.71102 15.370828,9.07802 24.173703,9.39379 8.802875,0.31577 17.686376,-2.42175 24.784647,-7.63758 7.09827,-5.21583 12.36476,-12.87577 14.69331,-21.37095 2.32856,-8.49518 1.70391,-17.7699 -1.74274,-25.87613"
         id="path10502-9"
         inkscape:path-effect="#path-effect10504-0"
         inkscape:original-d="M 206.3876,175.20266 C 193.97913,156.11431 189.67448,156.22289 176.60558,137.64803 168.9713,126.7974 152.41746,97.384163 145.16971,86.232835 125.51475,55.991893 80.05137,-115.9302 51.65282,141.54264 47.37626,180.31568 99.00777,119.29973 113.56174,96.05177"
         sodipodi:nodetypes="csssc" />
      <path
         style="fill:none;stroke:#ffc100;stroke-width:10;stroke-linecap:round;stroke-linejoin:miter;stroke-dasharray:none;stroke-opacity:1"
         d="m 158.75969,223.96456 c -20.60063,4.40921 -42.37104,3.22174 -62.36988,-3.40199 C 76.40107,213.94219 58.23415,201.90841 44.341158,186.08552 30.448167,170.26263 20.865272,150.69181 16.88594,130.01467"
         id="path10506-8"
         inkscape:path-effect="#path-effect10508-9"
         inkscape:original-d="m 158.75969,223.96456 c -20.79096,-1.133 -41.58092,-2.26699 -62.36988,-3.40199 -20.78896,-1.135 -58.33692,-72.78093 -79.50387,-90.5479"
         sodipodi:nodetypes="csc" />
      <path
         style="fill:none;stroke:#ffc100;stroke-width:10;stroke-linecap:round;stroke-linejoin:miter;stroke-dasharray:none;stroke-opacity:1"
         d="m 202.9856,426.38317 c -13.88464,25.40325 -40.0002,43.74889 -68.60686,48.1949 -24.44595,3.79936 -50.302196,-2.45619 -70.30787,-17.00996"
         id="path10510-5"
         inkscape:path-effect="#path-effect10512-5"
         inkscape:original-d="m 202.9856,426.38317 c -22.86995,16.06597 -45.73891,32.13093 -68.60686,48.1949 -22.86796,16.06397 -46.87291,-11.33897 -70.30787,-17.00996" />
      <path
         style="fill:none;stroke:#ffc100;stroke-width:10;stroke-linecap:round;stroke-linejoin:miter;stroke-dasharray:none;stroke-opacity:1"
         d="m 221.72758,110.65634 c -13.0561,-6.08592 -24.00239,-16.593963 -30.6164,-29.390646 -6.61402,-12.796684 -8.85539,-27.80389 -6.26905,-41.974675 0.74535,-4.083842 1.88646,-8.116903 3.69817,-11.852011 1.8117,-3.735108 4.31277,-7.171991 7.52784,-9.798142 6.22462,-5.084438 15.08043,-6.746771 22.72518,-4.265766 7.64474,2.481006 13.83667,9.026897 15.88931,16.797618 2.05265,7.770722 -0.0989,16.520553 -5.52117,22.453218 -5.42227,5.932665 -13.94378,8.860566 -21.86732,7.513378"
         id="path10518-3"
         inkscape:path-effect="#path-effect10520-7"
         inkscape:original-d="m 221.72758,110.65634 c -12.29615,-23.787442 -24.5913,-47.575881 -36.88545,-71.365321 -12.29415,-23.78944 7.483,-14.432436 11.22601,-21.650153 3.743,-7.217718 7.483,28.333299 11.226,42.498448" />
    </g>
  </g>
  <g
     inkscape:groupmode="layer"
     id="layer3"
     inkscape:label="Camada 3"
     style="display:inline">
    <g
       id="g10834">
      <path
         style="fill:none;stroke:#ffc100;stroke-width:10;stroke-linecap:round;stroke-linejoin:miter;stroke-dasharray:none;stroke-opacity:1"
         d="m 294.27243,337.93134 c 3.28247,17.87184 13.11577,34.46555 27.21594,45.92691 8.33967,6.77892 18.21181,11.81958 28.77895,13.77905 10.56713,1.95948 21.83206,0.72247 31.37319,-4.22431 9.54114,-4.94678 17.19652,-13.72337 20.04596,-24.08602 1.42472,-5.18132 1.65477,-10.69963 0.56265,-15.96111 -1.09212,-5.26149 -3.51453,-10.25452 -7.05089,-14.30052 -3.8242,-4.37533 -8.9385,-7.60898 -14.53099,-9.18762 -5.59248,-1.57863 -11.64276,-1.49649 -17.19033,0.2334 -5.54756,1.72989 -10.57218,5.1012 -14.27619,9.57874 -3.704,4.47754 -6.07387,10.04497 -6.73339,15.81845"
         id="path10490"
         inkscape:path-effect="#path-effect10492"
         inkscape:original-d="m 294.27243,337.93134 c 8.69498,14.93197 18.14496,30.61894 27.21594,45.92691 9.07098,15.30797 49.14091,-29.86094 73.70986,-44.79291 24.56895,-14.93197 -35.15293,10.96298 -52.7309,16.44297" />
      <path
         style="fill:none;stroke:#ffc100;stroke-width:10;stroke-linecap:round;stroke-linejoin:miter;stroke-dasharray:none;stroke-opacity:1"
         d="m 341.85283,284.93079 c 6.19949,-8.29958 15.97064,-13.83328 26.27686,-14.88137 10.30622,-1.04809 20.99132,2.40531 28.73466,9.28698 8.41249,7.47635 12.99385,18.23083 17.49534,28.54599 4.50149,10.31515 9.5022,20.97505 18.402,27.86413 5.07535,3.92868 11.25316,6.41718 17.63459,7.10342 6.38144,0.68625 12.9471,-0.43184 18.7417,-3.19159 5.79461,-2.75976 10.80054,-7.15278 14.28946,-12.5399 3.48892,-5.38712 5.45022,-11.75197 5.59854,-18.16849 0.14831,-6.41651 -1.5168,-12.86518 -4.75308,-18.40776 -3.23628,-5.54258 -8.03388,-10.16221 -13.69478,-13.18675 -5.6609,-3.02455 -12.16788,-4.44482 -18.57421,-4.05416 -6.40633,0.39065 -12.69253,2.59104 -17.94398,6.28102"
         id="path10494"
         inkscape:path-effect="#path-effect10496"
         inkscape:original-d="m 341.85283,284.93079 c 18.0272,-1.86397 36.67516,-3.72877 55.01152,-5.59439 18.33634,-1.86561 23.93238,37.60756 35.89734,56.41012 11.96496,18.80254 4.87325,-42.33281 1.29824,-56.16421"
         sodipodi:nodetypes="cssc" />
      <path
         style="fill:none;stroke:#ffc100;stroke-width:10;stroke-linecap:round;stroke-linejoin:miter;stroke-dasharray:none;stroke-opacity:1"
         d="m 305.6124,175.20266 c 11.47795,-11.17666 21.51421,-23.83222 29.78202,-37.55463 10.38826,-17.24181 18.11677,-36.32223 31.43587,-51.415195 9.87837,-11.193989 22.79594,-19.885265 37.21529,-23.754354 14.41935,-3.869089 30.32478,-2.70782 43.56454,4.191173 13.23977,6.898993 23.50269,19.70281 26.33666,34.360776 1.41699,7.32899 1.00224,15.02224 -1.32877,22.11366 -2.33101,7.09143 -6.58764,13.5588 -12.27083,18.39855 -6.70631,5.71102 -15.37083,9.07802 -24.1737,9.39379 -8.80288,0.31577 -17.68638,-2.42175 -24.78465,-7.63758 -7.09827,-5.21583 -12.36476,-12.87577 -14.69331,-21.37095 -2.32856,-8.49518 -1.70391,-17.7699 1.74274,-25.87613"
         id="path10502"
         inkscape:path-effect="#path-effect10504"
         inkscape:original-d="m 305.6124,175.20266 c 12.40847,-19.08835 16.71312,-18.97977 29.78202,-37.55463 7.63428,-10.85063 24.18812,-40.263867 31.43587,-51.415195 19.65496,-30.240942 65.11834,-202.163035 93.51689,55.309805 4.27656,38.77304 -47.35495,-22.24291 -61.90892,-45.49087"
         sodipodi:nodetypes="csssc" />
      <path
         style="fill:none;stroke:#ffc100;stroke-width:10;stroke-linecap:round;stroke-linejoin:miter;stroke-dasharray:none;stroke-opacity:1"
         d="m 353.24031,223.96456 c 20.60063,4.40921 42.37104,3.22174 62.36988,-3.40199 19.98874,-6.62038 38.15566,-18.65416 52.04865,-34.47705 13.89299,-15.82289 23.47589,-35.39371 27.45522,-56.07085"
         id="path10506"
         inkscape:path-effect="#path-effect10508"
         inkscape:original-d="m 353.24031,223.96456 c 20.79096,-1.133 41.58092,-2.26699 62.36988,-3.40199 20.78896,-1.135 58.33692,-72.78093 79.50387,-90.5479"
         sodipodi:nodetypes="csc" />
      <path
         style="fill:none;stroke:#ffc100;stroke-width:10;stroke-linecap:round;stroke-linejoin:miter;stroke-dasharray:none;stroke-opacity:1"
         d="m 309.0144,426.38317 c 13.88464,25.40325 40.0002,43.74889 68.60686,48.1949 24.44595,3.79936 50.3022,-2.45619 70.30787,-17.00996"
         id="path10510"
         inkscape:path-effect="#path-effect10512"
         inkscape:original-d="m 309.0144,426.38317 c 22.86995,16.06597 45.73891,32.13093 68.60686,48.1949 22.86796,16.06397 46.87291,-11.33897 70.30787,-17.00996" />
      <path
         style="fill:none;stroke:#ffc100;stroke-width:10;stroke-linecap:round;stroke-linejoin:miter;stroke-dasharray:none;stroke-opacity:1"
         d="m 290.27242,110.65634 c 13.0561,-6.08592 24.00239,-16.593963 30.6164,-29.390646 6.61402,-12.796684 8.85539,-27.80389 6.26905,-41.974675 -0.74535,-4.083842 -1.88646,-8.116903 -3.69817,-11.852011 -1.8117,-3.735108 -4.31277,-7.171991 -7.52784,-9.798142 -6.22462,-5.084438 -15.08043,-6.746771 -22.72518,-4.265766 -7.64474,2.481006 -13.83667,9.026897 -15.88931,16.797618 -2.05265,7.770722 0.0989,16.520553 5.52117,22.453218 5.42227,5.932665 13.94378,8.860566 21.86732,7.513378"
         id="path10518"
         inkscape:path-effect="#path-effect10520"
         inkscape:original-d="m 290.27242,110.65634 c 12.29615,-23.787442 24.5913,-47.575881 36.88545,-71.365321 12.29415,-23.78944 -7.483,-14.432436 -11.22601,-21.650153 -3.743,-7.217718 -7.483,28.333299 -11.226,42.498448" />
    </g>
  </g>
</svg>
