<?xml version="1.0" encoding="UTF-8" standalone="no"?>
<!-- Created with Inkscape (http://www.inkscape.org/) -->

<svg
   width="512"
   height="512"
   viewBox="0 0 512 512"
   version="1.1"
   id="svg5"
   inkscape:version="1.2.2 (732a01da63, 2022-12-09)"
   sodipodi:docname="monster 1.svg"
   xmlns:inkscape="http://www.inkscape.org/namespaces/inkscape"
   xmlns:sodipodi="http://sodipodi.sourceforge.net/DTD/sodipodi-0.dtd"
   xmlns="http://www.w3.org/2000/svg"
   xmlns:svg="http://www.w3.org/2000/svg">
  <sodipodi:namedview
     id="namedview7"
     pagecolor="#ffffff"
     bordercolor="#666666"
     borderopacity="1.0"
     inkscape:showpageshadow="2"
     inkscape:pageopacity="0.0"
     inkscape:pagecheckerboard="0"
     inkscape:deskcolor="#d1d1d1"
     inkscape:document-units="px"
     showgrid="false"
     inkscape:zoom="1.7636719"
     inkscape:cx="257.41749"
     inkscape:cy="254.5825"
     inkscape:window-width="1858"
     inkscape:window-height="1057"
     inkscape:window-x="54"
     inkscape:window-y="892"
     inkscape:window-maximized="1"
     inkscape:current-layer="layer1" />
  <defs
     id="defs2">
    <inkscape:path-effect
       effect="spiro"
       id="path-effect10332"
       is_visible="true"
       lpeversion="1" />
    <inkscape:path-effect
       effect="spiro"
       id="path-effect10328"
       is_visible="true"
       lpeversion="1" />
    <inkscape:path-effect
       effect="spiro"
       id="path-effect10324"
       is_visible="true"
       lpeversion="1" />
    <inkscape:path-effect
       effect="spiro"
       id="path-effect10320"
       is_visible="true"
       lpeversion="1" />
    <inkscape:path-effect
       effect="spiro"
       id="path-effect10316"
       is_visible="true"
       lpeversion="1" />
    <inkscape:path-effect
       effect="spiro"
       id="path-effect10312"
       is_visible="true"
       lpeversion="1" />
    <inkscape:path-effect
       effect="spiro"
       id="path-effect10308"
       is_visible="true"
       lpeversion="1" />
    <inkscape:path-effect
       effect="spiro"
       id="path-effect9559"
       is_visible="true"
       lpeversion="1" />
    <inkscape:path-effect
       effect="spiro"
       id="path-effect9555"
       is_visible="true"
       lpeversion="1" />
    <inkscape:path-effect
       effect="spiro"
       id="path-effect6633"
       is_visible="true"
       lpeversion="1" />
    <inkscape:path-effect
       effect="spiro"
       id="path-effect6629"
       is_visible="true"
       lpeversion="1" />
    <inkscape:path-effect
       effect="spiro"
       id="path-effect6625"
       is_visible="true"
       lpeversion="1" />
    <inkscape:path-effect
       effect="spiro"
       id="path-effect6617"
       is_visible="true"
       lpeversion="1" />
    <inkscape:path-effect
       effect="spiro"
       id="path-effect6613"
       is_visible="true"
       lpeversion="1" />
    <inkscape:path-effect
       effect="spiro"
       id="path-effect6609"
       is_visible="true"
       lpeversion="1" />
    <inkscape:path-effect
       effect="spiro"
       id="path-effect6605"
       is_visible="true"
       lpeversion="1" />
    <inkscape:path-effect
       effect="spiro"
       id="path-effect6601"
       is_visible="true"
       lpeversion="1" />
    <inkscape:path-effect
       effect="spiro"
       id="path-effect6597"
       is_visible="true"
       lpeversion="1" />
    <inkscape:path-effect
       effect="spiro"
       id="path-effect6593"
       is_visible="true"
       lpeversion="1" />
    <inkscape:path-effect
       effect="spiro"
       id="path-effect6589"
       is_visible="true"
       lpeversion="1" />
    <inkscape:path-effect
       effect="spiro"
       id="path-effect6585"
       is_visible="true"
       lpeversion="1" />
    <inkscape:path-effect
       effect="spiro"
       id="path-effect6581"
       is_visible="true"
       lpeversion="1" />
    <inkscape:path-effect
       effect="spiro"
       id="path-effect6577"
       is_visible="true"
       lpeversion="1" />
    <inkscape:path-effect
       effect="spiro"
       id="path-effect6573"
       is_visible="true"
       lpeversion="1" />
    <inkscape:path-effect
       effect="spiro"
       id="path-effect6569"
       is_visible="true"
       lpeversion="1" />
    <inkscape:path-effect
       effect="spiro"
       id="path-effect6565"
       is_visible="true"
       lpeversion="1" />
    <inkscape:path-effect
       effect="spiro"
       id="path-effect6198"
       is_visible="true"
       lpeversion="1" />
    <inkscape:path-effect
       effect="spiro"
       id="path-effect6186"
       is_visible="true"
       lpeversion="1" />
    <inkscape:path-effect
       effect="spiro"
       id="path-effect6182"
       is_visible="true"
       lpeversion="1" />
    <inkscape:path-effect
       effect="spiro"
       id="path-effect6178"
       is_visible="true"
       lpeversion="1" />
    <inkscape:path-effect
       effect="spiro"
       id="path-effect6174"
       is_visible="true"
       lpeversion="1" />
    <inkscape:path-effect
       effect="spiro"
       id="path-effect6170"
       is_visible="true"
       lpeversion="1" />
    <inkscape:path-effect
       effect="spiro"
       id="path-effect6162"
       is_visible="true"
       lpeversion="1" />
    <inkscape:path-effect
       effect="spiro"
       id="path-effect6158"
       is_visible="true"
       lpeversion="1" />
    <inkscape:path-effect
       effect="spiro"
       id="path-effect498"
       is_visible="true"
       lpeversion="1" />
    <inkscape:path-effect
       effect="spiro"
       id="path-effect494"
       is_visible="true"
       lpeversion="1" />
    <inkscape:path-effect
       effect="spiro"
       id="path-effect490"
       is_visible="true"
       lpeversion="1" />
    <inkscape:path-effect
       effect="spiro"
       id="path-effect498-9"
       is_visible="true"
       lpeversion="1" />
    <inkscape:path-effect
       effect="spiro"
       id="path-effect490-8"
       is_visible="true"
       lpeversion="1" />
    <inkscape:path-effect
       effect="spiro"
       id="path-effect6565-4"
       is_visible="true"
       lpeversion="1" />
    <inkscape:path-effect
       effect="spiro"
       id="path-effect6569-6"
       is_visible="true"
       lpeversion="1" />
    <inkscape:path-effect
       effect="spiro"
       id="path-effect6573-6"
       is_visible="true"
       lpeversion="1" />
    <inkscape:path-effect
       effect="spiro"
       id="path-effect6577-0"
       is_visible="true"
       lpeversion="1" />
    <inkscape:path-effect
       effect="spiro"
       id="path-effect6581-6"
       is_visible="true"
       lpeversion="1" />
    <inkscape:path-effect
       effect="spiro"
       id="path-effect6585-8"
       is_visible="true"
       lpeversion="1" />
    <inkscape:path-effect
       effect="spiro"
       id="path-effect6589-3"
       is_visible="true"
       lpeversion="1" />
    <inkscape:path-effect
       effect="spiro"
       id="path-effect6593-0"
       is_visible="true"
       lpeversion="1" />
    <inkscape:path-effect
       effect="spiro"
       id="path-effect6597-4"
       is_visible="true"
       lpeversion="1" />
    <inkscape:path-effect
       effect="spiro"
       id="path-effect6601-7"
       is_visible="true"
       lpeversion="1" />
    <inkscape:path-effect
       effect="spiro"
       id="path-effect6605-1"
       is_visible="true"
       lpeversion="1" />
    <inkscape:path-effect
       effect="spiro"
       id="path-effect6609-4"
       is_visible="true"
       lpeversion="1" />
    <inkscape:path-effect
       effect="spiro"
       id="path-effect6613-0"
       is_visible="true"
       lpeversion="1" />
    <inkscape:path-effect
       effect="spiro"
       id="path-effect6617-3"
       is_visible="true"
       lpeversion="1" />
    <inkscape:path-effect
       effect="spiro"
       id="path-effect6625-3"
       is_visible="true"
       lpeversion="1" />
    <inkscape:path-effect
       effect="spiro"
       id="path-effect6629-8"
       is_visible="true"
       lpeversion="1" />
    <inkscape:path-effect
       effect="spiro"
       id="path-effect6633-1"
       is_visible="true"
       lpeversion="1" />
  </defs>
  <g
     inkscape:label="Camada 1"
     inkscape:groupmode="layer"
     id="layer1">
    <circle
       style="fill:#e01022;stroke-width:3.54067;stroke-linecap:round;stroke-linejoin:round;paint-order:fill markers stroke;fill-opacity:1"
       id="path346-6"
       cx="256"
       cy="256"
       r="74.171822" />
    <g
       id="g7020"
       style="stroke:#1a1022;stroke-opacity:1">
      <path
         style="fill:none;stroke:#1a1022;stroke-width:5;stroke-linecap:round;stroke-linejoin:miter;stroke-dasharray:none;stroke-opacity:1"
         d="m 206.42622,218.20944 c -10.65143,-1.04213 -20.94952,-5.44228 -29.06524,-12.41895 -8.11572,-6.97668 -14.01166,-16.49771 -16.64064,-26.87207 -3.25673,-12.85159 -1.4747,-26.69968 3.72576,-38.89496 5.20046,-12.19528 13.6714,-22.81232 23.53739,-31.6685 4.62311,-4.14992 9.56544,-7.94365 14.03253,-12.261069 4.46709,-4.317422 8.4984,-9.241736 10.82506,-15.002089 2.75594,-6.823166 2.93559,-14.651893 0.49552,-21.59429 -2.44008,-6.942397 -7.47832,-12.937173 -13.89719,-16.535631 -6.41887,-3.598459 -14.16171,-4.768829 -21.35737,-3.228281 -7.19566,1.540548 -13.78062,5.778415 -18.16356,11.689477"
         id="path488"
         inkscape:path-effect="#path-effect490"
         inkscape:original-d="m 206.42622,218.20944 c -15.2343,-12.82872 -30.46959,-26.19302 -45.70588,-39.29102 -15.2363,-13.09801 18.17643,-47.04131 27.26315,-70.56346 9.08672,-23.522158 16.57272,-18.174438 24.85759,-27.263158 8.28486,-9.088715 -35.28074,-19.778149 -52.9226,-29.668725" />
      <path
         style="fill:none;stroke:#1a1022;stroke-width:1px;stroke-linecap:butt;stroke-linejoin:miter;stroke-opacity:1"
         d="m 174.00308,124.68884 c -3.50497,-9.13261 -9.35699,-17.3533 -16.83901,-23.65479 -4.06125,-3.420453 -8.61666,-6.292734 -13.57635,-8.188691 -4.9597,-1.895956 -10.33341,-2.797739 -15.62079,-2.311058 -5.28737,0.486681 -10.47919,2.394999 -14.63844,5.695585 -4.15924,3.300586 -7.23602,8.018614 -8.28515,13.223664 -0.31868,1.58108 -0.45352,3.19913 -0.40093,4.81115"
         id="path6160"
         inkscape:path-effect="#path-effect6162"
         inkscape:original-d="m 174.00308,124.68884 c -5.47836,-7.88393 -11.225,-15.76886 -16.83901,-23.65479 -5.614,-7.885934 -34.74615,5.614 -52.12073,8.4195 -17.374584,2.8055 -0.26629,3.20843 -0.40093,4.81115" />
      <path
         style="fill:none;stroke:#1a1022;stroke-width:1px;stroke-linecap:butt;stroke-linejoin:miter;stroke-opacity:1"
         d="m 182.82352,115.06655 c 1.55912,6.0754 6.26706,11.24987 12.16855,13.37441 5.90149,2.12454 12.82732,1.13822 17.9011,-2.54933 3.75175,-2.72671 6.46486,-6.84799 7.48642,-11.37203 1.02156,-4.52405 0.34263,-9.41127 -1.87341,-13.48555"
         id="path6168"
         inkscape:path-effect="#path-effect6170"
         inkscape:original-d="m 182.82352,115.06655 c 10.02421,3.60936 20.04743,7.21772 30.06965,10.82508 10.02222,3.60736 3.743,-16.57072 5.61301,-24.85758" />
      <path
         style="fill:none;stroke:#1a1022;stroke-width:1px;stroke-linecap:butt;stroke-linejoin:miter;stroke-opacity:1"
         d="m 214.49689,76.978322 c 4.5155,0.09807 9.05129,-1.264935 12.76477,-3.835809 3.71349,-2.570874 6.58586,-6.336598 8.08352,-10.597626 1.63074,-4.639639 1.61251,-9.840365 -0.0507,-14.468459 -1.66322,-4.628093 -4.95964,-8.650722 -9.17065,-11.190982"
         id="path6180"
         inkscape:path-effect="#path-effect6182"
         inkscape:original-d="m 214.49689,76.978322 c 6.95043,-4.810145 13.89986,-9.62129 20.84829,-14.433435 6.94844,-4.812145 -6.14657,-17.105294 -9.22136,-25.659441" />
      <path
         style="fill:none;stroke:#1a1022;stroke-width:1px;stroke-linecap:butt;stroke-linejoin:miter;stroke-opacity:1"
         d="m 159.97058,149.94736 c -5.52406,3.14449 -12.5439,3.50627 -18.36196,0.94633 -5.81805,-2.55995 -10.29395,-7.97985 -11.7077,-14.17698 -0.52901,-2.31889 -0.64842,-4.74428 -0.21383,-7.08271 0.43458,-2.33843 1.43489,-4.58679 2.98596,-6.38993 1.55107,-1.80313 3.66272,-3.14383 5.98635,-3.65166 2.32362,-0.50783 4.84839,-0.15335 6.87774,1.08715 1.64732,1.00697 2.9409,2.58059 3.6101,4.39163 0.66919,1.81103 0.70964,3.8477 0.11288,5.68387 -0.59676,1.83618 -1.82684,3.45992 -3.43288,4.53151 -1.60604,1.07158 -3.5776,1.58403 -5.50217,1.43014"
         id="path6184"
         inkscape:path-effect="#path-effect6186"
         inkscape:original-d="m 159.97058,149.94736 c -10.02222,-4.40922 -20.04544,-8.81944 -30.06966,-13.23065 -10.02422,-4.41122 10.42515,-10.69044 15.63622,-16.03715 5.21107,-5.34672 -3.47372,10.69243 -5.21207,16.03715" />
    </g>
    <g
       id="g7013"
       style="stroke:#1a1022;stroke-opacity:1">
      <path
         style="fill:none;stroke:#1a1022;stroke-width:5;stroke-linecap:round;stroke-linejoin:miter;stroke-dasharray:none;stroke-opacity:1"
         d="m 282.28174,215.44491 c 10.65143,-1.04213 20.94952,-5.44228 29.06524,-12.41895 8.11572,-6.97668 14.01166,-16.49771 16.64064,-26.87207 3.25673,-12.85159 1.4747,-26.69968 -3.72576,-38.89496 -5.20046,-12.19528 -13.6714,-22.81232 -23.53739,-31.6685 -4.62311,-4.14992 -9.56544,-7.943646 -14.03253,-12.261068 -4.46709,-4.317422 -8.4984,-9.241735 -10.82506,-15.002088 -2.75594,-6.823167 -2.93559,-14.651893 -0.49552,-21.594291 2.44007,-6.942397 7.47832,-12.937173 13.89719,-16.535632 6.41887,-3.598458 14.16171,-4.768829 21.35737,-3.22828 7.19566,1.540548 13.78062,5.778415 18.16356,11.689478"
         id="path488-7"
         inkscape:path-effect="#path-effect490-8"
         inkscape:original-d="m 282.28174,215.44491 c 15.2343,-12.82872 30.46959,-26.19302 45.70588,-39.29102 15.2363,-13.09801 -18.17643,-47.04131 -27.26315,-70.56346 -9.08672,-23.522156 -16.57272,-18.174436 -24.85759,-27.263156 -8.28486,-9.088715 35.28074,-19.778149 52.9226,-29.668725" />
      <path
         style="fill:none;stroke:#1a1022;stroke-width:1px;stroke-linecap:butt;stroke-linejoin:miter;stroke-opacity:1"
         d="m 321.9458,131.10371 c -0.0274,-12.10003 4.476,-24.15762 12.42879,-33.277092 7.13338,-8.179858 17.06645,-13.988871 27.78865,-15.671044 10.72219,-1.682173 22.1491,0.897908 30.8037,7.447188 8.6546,6.54928 14.29946,17.080778 14.45325,27.933038 0.0769,5.42613 -1.17839,10.87446 -3.68321,15.68846 -2.50483,4.81401 -6.26021,8.9802 -10.82679,11.91195 -4.53438,2.91108 -9.85142,4.59015 -15.2353,4.81115"
         id="path6156"
         inkscape:path-effect="#path-effect6158"
         inkscape:original-d="m 321.9458,131.10371 c 4.14393,-11.09137 8.28686,-22.18373 12.42879,-33.277092 4.14193,-11.093362 39.02473,31.540732 58.5356,47.309592 19.51086,15.76887 -10.15587,3.20843 -15.2353,4.81115" />
      <path
         style="fill:none;stroke:#1a1022;stroke-width:1px;stroke-linecap:butt;stroke-linejoin:miter;stroke-opacity:1"
         d="m 281.05106,88.204328 c -4.22059,-5.349152 -11.02892,-8.554642 -17.84088,-8.399825 -6.81196,0.154817 -13.46764,3.666307 -17.44085,9.201682 -4.17418,5.815353 -5.25946,13.722405 -2.8065,20.447365"
         id="path6172"
         inkscape:path-effect="#path-effect6174"
         inkscape:original-d="m 281.05106,88.204328 c -11.75957,0.268285 -23.52015,0.535571 -35.28173,0.801857 -11.76158,0.266286 -1.87,13.632575 -2.8065,20.447365" />
      <path
         style="fill:none;stroke:#1a1022;stroke-width:1px;stroke-linecap:butt;stroke-linejoin:miter;stroke-opacity:1"
         d="m 299.49379,103.43962 c 3.9608,-1.64716 7.38919,-4.548198 9.6691,-8.181806 2.27991,-3.633608 3.40058,-7.982626 3.16062,-12.26556 -0.36879,-6.582502 -4.06321,-12.893794 -9.62229,-16.43808"
         id="path6176"
         inkscape:path-effect="#path-effect6178"
         inkscape:original-d="m 299.49379,103.43962 c 4.27757,-6.814788 8.55414,-13.630577 12.82972,-20.447366 4.27557,-6.816789 -6.41386,-10.95772 -9.62229,-16.43808" />
      <path
         style="fill:none;stroke:#1a1022;stroke-width:1px;stroke-linecap:butt;stroke-linejoin:miter;stroke-opacity:1"
         d="m 328.76158,158.36686 c -2.09538,-4.72184 -5.90479,-8.66071 -10.55399,-10.91267 -4.64921,-2.25196 -10.10144,-2.79919 -15.10545,-1.51612 -2.42065,0.62068 -4.75006,1.66581 -6.71706,3.20715 -1.96699,1.54134 -3.56084,3.59244 -4.40455,5.94466 -0.84372,2.35222 -0.90716,5.0064 -0.0142,7.34036 0.893,2.33396 2.77222,4.30703 5.12184,5.15798 1.65893,0.60081 3.51727,0.63514 5.19727,0.096 1.67999,-0.53911 3.17135,-1.64836 4.17092,-3.10228 0.99957,-1.45392 1.50123,-3.2436 1.403,-5.00524 -0.0982,-1.76164 -0.79574,-3.48445 -1.95075,-4.81823"
         id="path6196"
         inkscape:path-effect="#path-effect6198"
         inkscape:original-d="m 328.76158,158.36686 c -8.4185,-4.14193 -17.10529,-8.28486 -25.65944,-12.42879 -8.55414,-4.14393 -4.00828,14.43443 -6.01393,21.65015 -2.00564,7.21572 5.88129,-8.55214 8.82044,-12.82972" />
    </g>
    <g
       id="g7006">
      <path
         id="path344"
         style="fill:#e01022;stroke-width:4;stroke-linecap:round;stroke-linejoin:round;paint-order:fill markers stroke;fill-opacity:1"
         d="M 343.5957 262.20703 A 88.605255 88.605255 0 0 0 339.32812 262.51172 A 83.794113 83.794113 0 0 1 256 339.79492 A 83.794113 83.794113 0 0 1 255.7793 339.7793 A 88.605255 88.605255 0 0 0 254.99023 350.8125 A 88.605255 88.605255 0 0 0 343.5957 439.41797 A 88.605255 88.605255 0 0 0 432.20117 350.8125 A 88.605255 88.605255 0 0 0 343.5957 262.20703 z " />
      <path
         sodipodi:type="star"
         style="fill:#1a1022;fill-opacity:1;stroke:none;stroke-width:5;stroke-linecap:round;stroke-linejoin:round;stroke-dasharray:none;stroke-opacity:1;paint-order:fill markers stroke"
         id="path6254"
         inkscape:flatsided="false"
         sodipodi:sides="5"
         sodipodi:cx="177.47066"
         sodipodi:cy="401.71872"
         sodipodi:r1="29.055582"
         sodipodi:r2="12.203344"
         sodipodi:arg1="-1.5707963"
         sodipodi:arg2="-0.9424778"
         inkscape:rounded="0.06"
         inkscape:randomized="0"
         d="m 177.47066,372.66314 c 1.2288,0 6.17882,18.46059 7.17294,19.18287 0.99413,0.72227 20.08084,-0.27462 20.46056,0.89404 0.37972,1.16866 -15.64771,11.58105 -16.02743,12.74971 -0.37972,1.16866 6.46649,19.01315 5.47237,19.73542 -0.99412,0.72227 -15.84964,-11.30312 -17.07844,-11.30312 -1.22881,0 -16.08432,12.02539 -17.07845,11.30312 -0.99412,-0.72227 5.8521,-18.56676 5.47238,-19.73542 -0.37972,-1.16866 -16.40715,-11.58105 -16.02743,-12.74971 0.37972,-1.16866 19.46643,-0.17177 20.46055,-0.89404 0.99413,-0.72228 5.94414,-19.18287 7.17295,-19.18287 z"
         inkscape:transform-center-y="0.58223501"
         transform="matrix(0.58143549,0.2574503,-0.2574503,0.58143549,320.16399,86.516388)"
         inkscape:transform-center-x="-1.1921349" />
      <path
         sodipodi:type="star"
         style="fill:#1a1022;fill-opacity:1;stroke:none;stroke-width:5;stroke-linecap:round;stroke-linejoin:round;stroke-dasharray:none;stroke-opacity:1;paint-order:fill markers stroke"
         id="path6254-6"
         inkscape:flatsided="false"
         sodipodi:sides="5"
         sodipodi:cx="177.47066"
         sodipodi:cy="401.71872"
         sodipodi:r1="29.055582"
         sodipodi:r2="12.203344"
         sodipodi:arg1="-1.5707963"
         sodipodi:arg2="-0.9424778"
         inkscape:rounded="0.06"
         inkscape:randomized="0"
         d="m 177.47066,372.66314 c 1.2288,0 6.17882,18.46059 7.17294,19.18287 0.99413,0.72227 20.08084,-0.27462 20.46056,0.89404 0.37972,1.16866 -15.64771,11.58105 -16.02743,12.74971 -0.37972,1.16866 6.46649,19.01315 5.47237,19.73542 -0.99412,0.72227 -15.84964,-11.30312 -17.07844,-11.30312 -1.22881,0 -16.08432,12.02539 -17.07845,11.30312 -0.99412,-0.72227 5.8521,-18.56676 5.47238,-19.73542 -0.37972,-1.16866 -16.40715,-11.58105 -16.02743,-12.74971 0.37972,-1.16866 19.46643,-0.17177 20.46055,-0.89404 0.99413,-0.72228 5.94414,-19.18287 7.17295,-19.18287 z"
         inkscape:transform-center-y="0.21505258"
         transform="matrix(0.59688906,-0.21925177,0.21925177,0.59688906,176.1843,141.86484)"
         inkscape:transform-center-x="1.5489481" />
      <path
         sodipodi:type="star"
         style="fill:#1a1022;fill-opacity:1;stroke:none;stroke-width:5;stroke-linecap:round;stroke-linejoin:round;stroke-dasharray:none;stroke-opacity:1;paint-order:fill markers stroke"
         id="path6551"
         inkscape:flatsided="false"
         sodipodi:sides="3"
         sodipodi:cx="352.67331"
         sodipodi:cy="308.7309"
         sodipodi:r1="11.581915"
         sodipodi:r2="4.8644042"
         sodipodi:arg1="-1.9467573"
         sodipodi:arg2="-0.89955973"
         inkscape:rounded="0.06"
         inkscape:randomized="0"
         d="m 348.42082,297.95792 c 0.56216,-0.22191 6.80467,6.58799 7.27793,6.96389 0.47326,0.37589 8.51938,4.91501 8.43048,5.51281 -0.0889,0.5978 -9.10771,2.59902 -9.66987,2.82093 -0.56217,0.2219 -8.51622,4.9205 -8.98948,4.5446 -0.47326,-0.37589 2.30304,-9.18702 2.39194,-9.78482 0.0889,-0.5978 -0.003,-9.83551 0.559,-10.05741 z"
         inkscape:transform-center-x="-2.0994862"
         inkscape:transform-center-y="-0.84381696" />
      <path
         sodipodi:type="star"
         style="fill:#1a1022;fill-opacity:1;stroke:none;stroke-width:5;stroke-linecap:round;stroke-linejoin:round;stroke-dasharray:none;stroke-opacity:1;paint-order:fill markers stroke"
         id="path6553"
         inkscape:flatsided="false"
         sodipodi:sides="3"
         sodipodi:cx="357.77631"
         sodipodi:cy="402.85272"
         sodipodi:r1="12.835983"
         sodipodi:r2="5.3911128"
         sodipodi:arg1="0.75415833"
         sodipodi:arg2="1.8013559"
         inkscape:rounded="0.06"
         inkscape:randomized="0"
         d="m 367.13179,411.6412 c -0.45861,0.4882 -9.93538,-3.38695 -10.58747,-3.54002 -0.6521,-0.15307 -10.86332,-0.89935 -11.0568,-1.54061 -0.19349,-0.64127 7.90088,-6.91082 8.35948,-7.39901 0.45861,-0.4882 6.21052,-8.95823 6.86261,-8.80516 0.6521,0.15306 2.0345,10.29777 2.22799,10.93903 0.19348,0.64126 4.6528,9.85758 4.19419,10.34577 z"
         inkscape:transform-center-x="1.4518249"
         inkscape:transform-center-y="-1.833694" />
      <path
         sodipodi:type="star"
         style="fill:#1a1022;fill-opacity:1;stroke:none;stroke-width:5;stroke-linecap:round;stroke-linejoin:round;stroke-dasharray:none;stroke-opacity:1;paint-order:fill markers stroke"
         id="path6555"
         inkscape:flatsided="false"
         sodipodi:sides="6"
         sodipodi:cx="301.6434"
         sodipodi:cy="406.53821"
         sodipodi:r1="14.208952"
         sodipodi:r2="5.9677596"
         sodipodi:arg1="-1.0714496"
         sodipodi:arg2="-0.54785082"
         inkscape:rounded="0.06"
         inkscape:randomized="0"
         d="m 308.44739,394.06423 c 0.50147,0.27353 -2.00716,8.87802 -1.70963,9.36565 0.29752,0.48762 9.09656,2.19271 9.11042,2.76377 0.0138,0.57105 -8.69218,2.70076 -8.96571,3.20223 -0.27353,0.50148 2.64934,8.97422 2.16172,9.27174 -0.48762,0.29753 -6.68502,-6.17726 -7.25607,-6.16341 -0.57106,0.0138 -6.44723,6.78151 -6.9487,6.50797 -0.50148,-0.27353 2.00715,-8.87802 1.70963,-9.36564 -0.29753,-0.48763 -9.09657,-2.19271 -9.11042,-2.76377 -0.0138,-0.57106 8.69217,-2.70076 8.9657,-3.20224 0.27353,-0.50147 -2.64934,-8.97421 -2.16171,-9.27174 0.48762,-0.29752 6.68501,6.17727 7.25607,6.16341 0.57105,-0.0138 6.44722,-6.7815 6.9487,-6.50797 z"
         inkscape:transform-center-x="3.3413663"
         inkscape:transform-center-y="-0.17072401" />
      <path
         sodipodi:type="star"
         style="fill:#1a1022;fill-opacity:1;stroke:none;stroke-width:5;stroke-linecap:round;stroke-linejoin:round;stroke-dasharray:none;stroke-opacity:1;paint-order:fill markers stroke"
         id="path6557"
         inkscape:flatsided="false"
         sodipodi:sides="4"
         sodipodi:cx="402.00223"
         sodipodi:cy="391.22925"
         sodipodi:r1="10.023219"
         sodipodi:r2="4.2097516"
         sodipodi:arg1="-1.0691923"
         sodipodi:arg2="-0.28379414"
         inkscape:rounded="0.06"
         inkscape:randomized="0"
         d="m 406.82172,382.44077 c 0.40243,0.22068 -0.90664,7.16914 -0.77813,7.60975 0.12851,0.4406 4.96781,5.59579 4.74712,5.99822 -0.22068,0.40243 -7.16914,-0.90664 -7.60975,-0.77813 -0.44061,0.12851 -5.5958,4.96781 -5.99822,4.74712 -0.40243,-0.22068 0.90664,-7.16914 0.77813,-7.60975 -0.12851,-0.44061 -4.96781,-5.5958 -4.74713,-5.99822 0.22069,-0.40243 7.16915,0.90664 7.60976,0.77813 0.4406,-0.12851 5.59579,-4.96781 5.99822,-4.74712 z" />
      <path
         sodipodi:type="star"
         style="fill:#1a1022;fill-opacity:1;stroke:none;stroke-width:5;stroke-linecap:round;stroke-linejoin:round;stroke-dasharray:none;stroke-opacity:1;paint-order:fill markers stroke"
         id="path6559"
         inkscape:flatsided="false"
         sodipodi:sides="4"
         sodipodi:cx="417.31119"
         sodipodi:cy="343.88483"
         sodipodi:r1="13.372642"
         sodipodi:r2="5.6165094"
         sodipodi:arg1="-2.5829933"
         sodipodi:arg2="-1.7975952"
         inkscape:rounded="0.06"
         inkscape:randomized="0"
         d="m 405.97121,336.79734 c 0.32454,-0.51926 9.4804,1.7525 10.07705,1.61481 0.59666,-0.13769 7.83115,-6.19184 8.35041,-5.8673 0.51926,0.32454 -1.75249,9.4804 -1.6148,10.07705 0.13768,0.59666 6.19183,7.83115 5.86729,8.35041 -0.32453,0.51926 -9.48039,-1.7525 -10.07705,-1.61481 -0.59665,0.13769 -7.83115,6.19184 -8.35041,5.8673 -0.51926,-0.32453 1.7525,-9.48039 1.61481,-10.07705 -0.13769,-0.59665 -6.19184,-7.83115 -5.8673,-8.35041 z" />
      <path
         sodipodi:type="star"
         style="fill:#1a1022;fill-opacity:1;stroke:none;stroke-width:5;stroke-linecap:round;stroke-linejoin:round;stroke-dasharray:none;stroke-opacity:1;paint-order:fill markers stroke"
         id="path6561"
         inkscape:flatsided="false"
         sodipodi:sides="4"
         sodipodi:cx="392.07974"
         sodipodi:cy="289.45294"
         sodipodi:r1="7.738029"
         sodipodi:r2="3.2499721"
         sodipodi:arg1="2.9945143"
         sodipodi:arg2="3.7799125"
         inkscape:rounded="0.06"
         inkscape:randomized="0"
         d="m 384.42526,290.58694 c -0.0519,-0.3505 4.83331,-2.78593 5.04444,-3.07048 0.21112,-0.28456 1.12554,-5.66608 1.47604,-5.718 0.35051,-0.0519 2.78593,4.83331 3.07049,5.04444 0.28456,0.21112 5.66607,1.12554 5.718,1.47604 0.0519,0.35051 -4.83332,2.78593 -5.04444,3.07049 -0.21113,0.28456 -1.12555,5.66607 -1.47605,5.718 -0.3505,0.0519 -2.78592,-4.83332 -3.07048,-5.04444 -0.28456,-0.21113 -5.66608,-1.12555 -5.718,-1.47605 z" />
      <path
         style="fill:none;stroke:#1a1022;stroke-width:1px;stroke-linecap:butt;stroke-linejoin:miter;stroke-opacity:1"
         d="m 379.27861,350.81267 c 0.3051,0.30107 0.64162,0.57028 1.00232,0.80185 1.2911,0.82887 2.86749,1.15141 4.39979,1.07374 1.5323,-0.0777 3.02602,-0.53714 4.42346,-1.1705 2.79487,-1.26672 5.23412,-3.2184 8.01576,-4.51392 5.54772,-2.5838 12.35042,-2.27458 17.64086,0.80186"
         id="path6563"
         inkscape:path-effect="#path-effect6565"
         inkscape:original-d="m 379.27861,350.81267 c 0.33511,0.20146 0.66921,0.53557 1.00232,0.80185 0.33311,0.26629 11.22701,-3.07278 16.83901,-4.61068 5.612,-1.53789 11.76158,0.53558 17.64086,0.80186" />
      <path
         style="fill:none;stroke:#1a1022;stroke-width:1px;stroke-linecap:butt;stroke-linejoin:miter;stroke-opacity:1"
         d="m 415.3622,340.38852 c -3.54859,-6.47842 -5.74712,-13.69237 -6.41486,-21.04876 -0.58124,-6.40352 -0.0459,-13.04911 -2.28765,-19.0755 -1.12089,-3.01319 -2.97069,-5.82223 -5.59731,-7.67604 -1.31331,-0.92691 -2.80948,-1.6043 -4.38561,-1.9201 -1.57614,-0.31579 -3.23181,-0.26471 -4.7689,0.2057 -2.6192,0.80158 -4.7134,2.72666 -7.01626,4.20975 -3.7645,2.42442 -8.14766,3.69003 -12.50675,4.71356 -4.35908,1.02353 -8.7937,1.84537 -12.95222,3.50548 -2.47718,0.98891 -4.83749,2.27022 -7.01626,3.80882"
         id="path6567"
         inkscape:path-effect="#path-effect6569"
         inkscape:original-d="m 415.3622,340.38852 c -2.07047,-6.88161 -4.27558,-14.03151 -6.41486,-21.04876 -2.13929,-7.01725 -11.35865,-18.9763 -17.03947,-28.46594 -5.68083,-9.48965 -4.67651,2.8075 -7.01626,4.20975 -2.33975,1.40225 -16.97165,5.48036 -25.45897,8.21904 -8.48733,2.73868 -4.67651,2.54021 -7.01626,3.80882" />
      <path
         style="fill:none;stroke:#1a1022;stroke-width:1px;stroke-linecap:butt;stroke-linejoin:miter;stroke-opacity:1"
         d="m 347.20431,314.12769 c -3.40965,-0.082 -6.83566,1.0833 -9.48825,3.22717 -2.65259,2.14387 -4.51058,5.24923 -5.14565,8.60022 -0.49787,2.62706 -0.24274,5.42392 0.91595,7.83364 1.15869,2.40971 3.25242,4.39673 5.79088,5.23667 1.26923,0.41998 2.63547,0.55363 3.95839,0.36072 1.32291,-0.19292 2.59992,-0.71461 3.66337,-1.5248 1.06345,-0.81019 1.90896,-1.90932 2.39445,-3.15496 0.48548,-1.24565 0.60606,-2.63496 0.31643,-3.94012 -0.4336,-1.95389 -1.81309,-3.6749 -3.62576,-4.52339 -1.81267,-0.84849 -4.0179,-0.80543 -5.79607,0.11317"
         id="path6571"
         inkscape:path-effect="#path-effect6573"
         inkscape:original-d="m 347.20431,314.12769 c -4.87697,3.87664 -9.75494,7.88593 -14.6339,11.82739 -4.87897,3.94147 11.36065,3.20843 17.03947,4.81115 5.67882,1.60271 -6.28022,-2.93915 -9.42183,-4.41022" />
      <path
         style="fill:none;stroke:#1a1022;stroke-width:1px;stroke-linecap:butt;stroke-linejoin:miter;stroke-opacity:1"
         d="m 354.42103,310.31886 c 6.07776,0.97502 11.597,4.96114 14.43343,10.42415 1.5802,3.04349 2.35035,6.50293 2.2105,9.92934 -0.13986,3.42642 -1.18938,6.81158 -3.01236,9.71617"
         id="path6575"
         inkscape:path-effect="#path-effect6577"
         inkscape:original-d="m 354.42103,310.31886 c 4.74532,3.34207 9.62329,6.95043 14.43343,10.42415 4.81015,3.47372 -0.53357,13.09801 -0.80186,19.64551" />
      <path
         style="fill:none;stroke:#1a1022;stroke-width:1px;stroke-linecap:butt;stroke-linejoin:miter;stroke-opacity:1"
         d="m 366.04796,351.61452 c -2.17157,0.006 -4.33889,0.58628 -6.22359,1.66501 -1.8847,1.07873 -3.48237,2.65383 -4.58779,4.523 -1.10542,1.86917 -1.71601,4.02802 -1.75335,6.19928 -0.0373,2.17126 0.49868,4.34983 1.53919,6.2559 0.73106,1.33921 1.71316,2.54903 2.91952,3.48317 1.20637,0.93414 2.64001,1.58703 4.14895,1.81288 1.50895,0.22586 3.09082,0.0152 4.45808,-0.66197 1.36726,-0.67715 2.50701,-1.82815 3.10735,-3.23083 0.52088,-1.21701 0.62757,-2.60695 0.29856,-3.8892 -0.32902,-1.28226 -1.09176,-2.4491 -2.13426,-3.26497 -1.04249,-0.81586 -2.35845,-1.27583 -3.68219,-1.28704 -1.32375,-0.0112 -2.64731,0.4264 -3.70347,1.22449"
         id="path6579"
         inkscape:path-effect="#path-effect6581"
         inkscape:original-d="m 366.04796,351.61452 c -3.67418,6.2154 -7.34936,12.4298 -11.02554,18.64319 -3.67618,6.2134 9.75693,0.9365 14.6339,1.40325 4.87697,0.46675 -6.14658,-4.81014 -9.22136,-7.21672" />
      <path
         style="fill:none;stroke:#1a1022;stroke-width:1px;stroke-linecap:butt;stroke-linejoin:miter;stroke-opacity:1"
         d="m 374.46746,345.40013 c 3.85351,4.04421 6.65251,9.0847 8.04837,14.49365 1.39586,5.40895 1.3855,11.17443 -0.0298,16.57833 -0.43615,1.66531 -1.0338,3.34913 -2.20511,4.61068 -0.74332,0.80059 -1.7006,1.40059 -2.74502,1.72099 -1.04442,0.32039 -2.17337,0.36042 -3.23795,0.11519 -1.06458,-0.24523 -2.06216,-0.77508 -2.86171,-1.51952 -0.79955,-0.74444 -1.39913,-1.7016 -1.72044,-2.74574 -0.3213,-1.04414 -0.36357,-2.1727 -0.12167,-3.23804 0.2419,-1.06534 0.76735,-2.06488 1.50746,-2.86843 0.74012,-0.80356 1.69308,-1.4092 2.73474,-1.73848 1.04165,-0.32928 2.16947,-0.38145 3.23716,-0.15012 1.9204,0.41608 3.54762,1.70915 4.82183,3.20497 1.27421,1.49581 2.25938,3.21161 3.39721,4.81361 3.96118,5.5771 9.86007,9.74948 16.43808,11.62693"
         id="path6583"
         inkscape:path-effect="#path-effect6585"
         inkscape:original-d="m 374.46746,345.40013 c 2.67386,10.42515 5.34672,20.71565 8.01858,31.07198 2.67186,10.35632 -1.46907,3.07478 -2.20511,4.61068 -0.73604,1.53589 -2.13729,-6.94843 -3.20743,-10.42415 -1.07014,-3.47572 5.48036,5.34672 8.21904,8.01858 2.73868,2.67185 10.95972,7.75229 16.43808,11.62693" />
      <path
         style="fill:none;stroke:#1a1022;stroke-width:1px;stroke-linecap:butt;stroke-linejoin:miter;stroke-opacity:1"
         d="m 399.92644,396.11762 c -0.27072,2.59269 -1.38743,5.09017 -3.13916,7.02065 -1.75174,1.93049 -4.12931,3.28384 -6.68359,3.80442 -3.53595,0.72065 -7.20429,-0.13557 -10.60838,-1.33325 -3.4041,-1.19769 -6.70629,-2.74595 -10.23992,-3.47789 -3.84196,-0.79581 -7.88758,-0.58655 -11.62693,0.60139"
         id="path6587"
         inkscape:path-effect="#path-effect6589"
         inkscape:original-d="m 399.92644,396.11762 c -3.20643,3.60936 -6.5475,7.21771 -9.82275,10.82507 -3.27526,3.60736 -13.89787,-3.20643 -20.8483,-4.81114 -6.95043,-1.60472 -7.75029,0.40193 -11.62693,0.60139" />
      <path
         style="fill:none;stroke:#1a1022;stroke-width:1px;stroke-linecap:butt;stroke-linejoin:miter;stroke-opacity:1"
         d="m 353.01778,405.13851 c -0.54616,6.03225 -3.8611,11.75805 -8.82044,15.2353 -2.63189,1.84535 -5.73211,3.07985 -8.94056,3.27488 -3.20844,0.19504 -6.51763,-0.69524 -9.03853,-2.68953 -2.52091,-1.9943 -4.17682,-5.12327 -4.152,-8.33754 0.0124,-1.60714 0.43613,-3.21372 1.24798,-4.60078 0.81186,-1.38706 2.01318,-2.54875 3.44271,-3.28325 0.93162,-0.47867 1.96324,-0.77725 3.0103,-0.80404 1.04705,-0.0268 2.10877,0.22527 2.9996,0.77613 0.89084,0.55087 1.60115,1.40732 1.91789,2.40568 0.31675,0.99836 0.22197,2.13259 -0.31014,3.03476 -0.34994,0.5933 -0.87689,1.07569 -1.48418,1.40076 -0.60728,0.32506 -1.29262,0.49527 -1.9808,0.52479 -1.37636,0.059 -2.73134,-0.43806 -3.89795,-1.17077 -2.33322,-1.46543 -3.98548,-3.82321 -6.26865,-5.36546 -2.07412,-1.40103 -4.63547,-2.06508 -7.12903,-1.84825 -2.49356,0.21683 -4.90185,1.31303 -6.70301,3.05104"
         id="path6591"
         inkscape:path-effect="#path-effect6593"
         inkscape:original-d="m 353.01778,405.13851 c -2.93915,4.94579 -5.87929,10.15787 -8.82044,15.2353 -2.94114,5.07743 -11.62593,-10.42315 -17.4404,-15.63622 -5.81447,-5.21308 5.07943,3.60935 7.61765,5.41253 2.53821,1.80318 -9.08672,-3.07278 -13.63158,-4.61068 -4.54486,-1.53789 -9.22036,0.80286 -13.83204,1.20279" />
      <path
         style="fill:none;stroke:#1a1022;stroke-width:1px;stroke-linecap:butt;stroke-linejoin:miter;stroke-opacity:1"
         d="m 301.0975,402.33201 c -1.18638,1.43689 -2.74707,2.562 -4.48526,3.23345 -1.73819,0.67146 -3.64995,0.88774 -5.49421,0.62158 -1.84427,-0.26616 -3.61686,-1.01417 -5.09427,-2.14969 -1.47741,-1.13553 -2.65629,-2.65601 -3.38798,-4.36971 -0.73169,-1.7137 -1.01455,-3.61675 -0.8129,-5.46918 0.20165,-1.85243 0.88736,-3.65005 1.97064,-5.16617 1.08329,-1.51613 2.56171,-2.74734 4.24884,-3.53838 1.68713,-0.79104 3.57915,-1.14013 5.43749,-1.00323 2.88348,0.21241 5.5519,1.55001 8.36082,2.23523 1.40446,0.34261 2.86892,0.52177 4.29848,0.30667 1.42955,-0.21511 2.82717,-0.85223 3.77878,-1.9405 0.71998,-0.82337 1.15524,-1.86451 1.40181,-2.93011 0.24657,-1.06561 0.3148,-2.16335 0.37551,-3.25543 0.0607,-1.09207 0.11537,-2.18951 0.33582,-3.26083 0.22045,-1.07131 0.61588,-2.12486 1.29476,-2.98243 0.35245,-0.44522 0.77455,-0.82988 1.20278,-1.20278 1.91874,-1.67086 4.00382,-3.15059 6.2144,-4.41022"
         id="path6595"
         inkscape:path-effect="#path-effect6597"
         inkscape:original-d="m 301.0975,402.33201 c -2.60504,-5.94611 -5.07743,-11.89322 -7.61765,-17.84133 -2.54021,-5.94811 10.95972,0.40193 16.43808,0.6014 5.47836,0.19946 2.27293,-8.28487 3.4079,-12.4288 1.13496,-4.14393 0.80286,-0.80085 1.20278,-1.20278 0.39993,-0.40193 4.14393,-2.93915 6.2144,-4.41022" />
      <path
         style="fill:none;stroke:#1a1022;stroke-width:1px;stroke-linecap:butt;stroke-linejoin:miter;stroke-opacity:1"
         d="m 320.54255,362.23914 c 2.80893,1.33174 6.14741,1.50233 9.07745,0.46383 2.93004,-1.03849 5.41593,-3.27342 6.75923,-6.07684 1.49422,-3.1184 1.52967,-6.92206 0,-10.02322 -1.53769,-3.11741 -4.62659,-5.42057 -8.05319,-6.00465 -3.4266,-0.58408 -7.10407,0.56572 -9.58767,2.99769"
         id="path6599"
         inkscape:path-effect="#path-effect6601"
         inkscape:original-d="m 320.54255,362.23914 c 5.27989,-1.87 10.55879,-3.74101 15.83668,-5.61301 5.2779,-1.872 10e-4,-6.68114 0,-10.02322 -0.001,-3.34207 -11.75958,-2.00364 -17.64086,-3.00696" />
      <path
         style="fill:none;stroke:#1a1022;stroke-width:1px;stroke-linecap:butt;stroke-linejoin:miter;stroke-opacity:1"
         d="m 357.02706,399.92644 c -2.70833,-0.30974 -5.33172,-1.33413 -7.5333,-2.94163 -2.20158,-1.6075 -3.97618,-3.79435 -5.09595,-6.27973 -0.57211,-1.26983 -0.97791,-2.62945 -1.04058,-4.0208 -0.0627,-1.39135 0.23297,-2.81846 0.97488,-3.99717 0.74191,-1.17871 1.95261,-2.08594 3.3244,-2.32671 0.6859,-0.12039 1.40273,-0.0743 2.06164,0.15103 0.6589,0.22538 1.25761,0.63161 1.69591,1.17275 0.57407,0.70877 0.85664,1.62612 0.88954,2.53761 0.0329,0.9115 -0.17147,1.81929 -0.48861,2.67447 -0.26028,0.70185 -0.59701,1.37531 -1.00232,2.00464"
         id="path6603"
         inkscape:path-effect="#path-effect6605"
         inkscape:original-d="m 357.02706,399.92644 c -4.20875,-2.93914 -8.4185,-6.14657 -12.62925,-9.22136 -4.21076,-3.07479 4.6785,-6.01293 7.01625,-9.0209 2.33775,-3.00796 0.26829,3.47572 0.40093,5.21208 0.13264,1.73635 -0.66722,1.33742 -1.00232,2.00464" />
      <path
         style="fill:none;stroke:#1a1022;stroke-width:1px;stroke-linecap:butt;stroke-linejoin:miter;stroke-opacity:1"
         d="m 303.50307,405.53944 c -0.63677,-1.9448 -0.71239,-4.06981 -0.21547,-6.05495 0.49692,-1.98514 1.56475,-3.82392 3.04265,-5.23937 1.4779,-1.41546 3.36105,-2.40296 5.36578,-2.81377 2.00473,-0.4108 4.1245,-0.24357 6.04001,0.47652 0.89742,0.33736 1.74631,0.79113 2.63059,1.16157 0.88428,0.37043 1.82338,0.66009 2.78195,0.6426 1.16318,-0.0212 2.30638,-0.51289 3.14082,-1.32353 0.83445,-0.81063 1.35671,-1.92883 1.46986,-3.08668 0.0326,-0.33305 0.0326,-0.66927 0,-1.00232"
         id="path6607"
         inkscape:path-effect="#path-effect6609"
         inkscape:original-d="m 303.50307,405.53944 c 4.74533,-4.54286 9.48965,-9.08672 14.23297,-13.63157 4.74333,-4.54486 3.60936,1.20378 5.41254,1.80417 1.80318,0.6004 3.07479,-2.93914 4.61068,-4.41021 1.5359,-1.47107 0.001,-0.66722 0,-1.00232" />
      <path
         style="fill:none;stroke:#1a1022;stroke-width:1px;stroke-linecap:butt;stroke-linejoin:miter;stroke-opacity:1"
         d="m 363.04099,407.74455 c -1.87943,1.03244 -3.3835,2.73189 -4.17989,4.72286 -0.79638,1.99096 -0.87926,4.2589 -0.23032,6.30268 0.47443,1.49417 1.33955,2.87364 2.53241,3.89085 1.19286,1.01721 2.71696,1.6591 4.28338,1.72215 1.49767,0.0603 3.01139,-0.4147 4.20614,-1.31981 1.19474,-0.90511 2.06177,-2.23372 2.40918,-3.69179"
         id="path6611"
         inkscape:path-effect="#path-effect6613"
         inkscape:original-d="m 363.04099,407.74455 c -1.46907,3.67618 -2.93914,7.35136 -4.41021,11.02554 -1.47107,3.67418 4.54486,3.743 6.81579,5.613 2.27093,1.87001 4.41121,-3.34007 6.61532,-5.0116" />
      <path
         style="fill:none;stroke:#1a1022;stroke-width:1px;stroke-linecap:butt;stroke-linejoin:miter;stroke-opacity:1"
         d="m 405.53944,391.90787 c -1.48261,-1.04735 -2.60989,-2.58861 -3.15881,-4.31886 -0.54892,-1.73025 -0.51632,-3.63948 0.0913,-5.34998 0.60768,-1.7105 1.78692,-3.21238 3.30442,-4.2085 1.51751,-0.99612 3.3645,-1.48073 5.17558,-1.35796 2.0913,0.14177 4.15256,1.13137 5.41254,2.8065 0.67787,0.90122 1.11521,1.98166 1.25509,3.10066 0.13987,1.119 -0.0181,2.27384 -0.45323,3.3142"
         id="path6615"
         inkscape:path-effect="#path-effect6617"
         inkscape:original-d="m 405.53944,391.90787 c 1.80518,-5.07744 3.60936,-10.15587 5.41254,-15.2353 1.80318,-5.07943 3.60936,1.872 5.41254,2.8065 1.80318,0.9345 0.53557,4.27757 0.80186,6.41486 0.26629,2.13729 -4.6765,-2.93914 -7.01626,-4.41021" />
      <path
         style="fill:none;stroke:#1a1022;stroke-width:1px;stroke-linecap:butt;stroke-linejoin:miter;stroke-opacity:1"
         d="m 417.96823,347.20431 c 1.9941,4.35989 2.76587,9.27113 2.20511,14.0325 -0.28248,2.39851 -0.90545,4.77901 -2.05955,6.90049 -1.1541,2.12149 -2.86261,3.97646 -5.00492,5.09142 -2.14232,1.11496 -4.73012,1.4425 -7.01914,0.67242 -1.14452,-0.38503 -2.20202,-1.03708 -3.03802,-1.90844 -0.83599,-0.87137 -1.44652,-1.96255 -1.72202,-3.13824 -0.2268,-0.96788 -0.22558,-1.9915 0.0286,-2.95255 0.25422,-0.96104 0.76358,-1.85678 1.4776,-2.54844 0.71402,-0.69166 1.63274,-1.17461 2.61202,-1.3456 0.97928,-0.17099 2.01517,-0.0253 2.89799,0.43173 0.71217,0.36867 1.32011,0.93613 1.73691,1.62124 0.41681,0.68511 0.64125,1.48588 0.64125,2.28782 0,0.80193 -0.22444,1.6027 -0.64125,2.28781 -0.4168,0.68511 -1.02474,1.25257 -1.73691,1.62124"
         id="path6623"
         inkscape:path-effect="#path-effect6625"
         inkscape:original-d="m 417.96823,347.20431 c 0.73604,4.6785 1.47108,9.356 2.20511,14.0325 0.73404,4.67651 -12.56143,5.07944 -18.84365,7.61765 -6.28222,2.53822 4.6785,-4.27557 7.01625,-6.41486 2.33776,-2.13929 0.001,5.21307 0,7.81811" />
      <path
         style="fill:none;stroke:#1a1022;stroke-width:1px;stroke-linecap:butt;stroke-linejoin:miter;stroke-opacity:1"
         d="m 374.66793,338.7848 c 3.30127,-1.23227 6.12823,-3.6918 7.80537,-6.79085 1.67713,-3.09905 2.18998,-6.81091 1.41599,-10.24862 -0.65445,-2.90678 -2.21526,-5.60273 -4.41022,-7.61764"
         id="path6627"
         inkscape:path-effect="#path-effect6629"
         inkscape:original-d="m 374.66793,338.7848 c 3.07479,-5.612 6.14857,-11.35864 9.22136,-17.03947 3.07279,-5.68082 -2.93914,-5.07743 -4.41022,-7.61764" />
      <path
         style="fill:none;stroke:#1a1022;stroke-width:1px;stroke-linecap:butt;stroke-linejoin:miter;stroke-opacity:1"
         d="m 314.72908,361.63774 c 2.12264,-2.3707 3.0077,-5.79295 2.30053,-8.89549 -0.70717,-3.10254 -2.98784,-5.80322 -5.92817,-7.0199 -2.94032,-1.21669 -6.46245,-0.91716 -9.15511,0.77855 -2.69265,1.69572 -4.48453,4.74273 -4.65765,7.92013 -0.10018,1.83866 0.32001,3.70285 1.1993,5.32074 0.87928,1.61788 2.21498,2.98452 3.81231,3.90062"
         id="path6631"
         inkscape:path-effect="#path-effect6633"
         inkscape:original-d="m 314.72908,361.63774 c -5.74565,-2.40457 -11.62594,-4.81014 -17.4404,-7.21671 -5.81447,-2.40658 3.34207,6.14857 5.01161,9.22136" />
    </g>
    <g
       id="g9578">
      <circle
         style="fill:#000000;fill-opacity:1;stroke:none;stroke-width:5;stroke-linecap:round;stroke-linejoin:round;stroke-dasharray:none;stroke-opacity:1;paint-order:fill markers stroke"
         id="path1860"
         cx="210.19087"
         cy="260.18262"
         r="10.424148" />
      <circle
         style="fill:#000000;fill-opacity:1;stroke:none;stroke-width:5;stroke-linecap:round;stroke-linejoin:round;stroke-dasharray:none;stroke-opacity:1;paint-order:fill markers stroke"
         id="path1860-9"
         cx="275.27795"
         cy="257.9845"
         r="10.424148" />
      <path
         sodipodi:type="star"
         style="fill:#ffffff;fill-opacity:1;stroke:none;stroke-width:5;stroke-linecap:round;stroke-linejoin:round;stroke-dasharray:none;stroke-opacity:1;paint-order:fill markers stroke"
         id="path7074"
         inkscape:flatsided="false"
         sodipodi:sides="4"
         sodipodi:cx="250.61351"
         sodipodi:cy="228.50055"
         sodipodi:r1="18.179367"
         sodipodi:r2="7.635334"
         sodipodi:arg1="-1.5707963"
         sodipodi:arg2="-0.78539816"
         inkscape:rounded="0.06"
         inkscape:randomized="0"
         d="m 250.61351,210.32118 c 0.83244,0 4.81037,12.19175 5.399,12.78037 0.58862,0.58863 12.78037,4.56656 12.78037,5.399 0,0.83244 -12.19175,4.81037 -12.78037,5.399 -0.58863,0.58862 -4.56656,12.78037 -5.399,12.78037 -0.83244,0 -4.81037,-12.19175 -5.399,-12.78037 -0.58862,-0.58863 -12.78037,-4.56656 -12.78037,-5.399 0,-0.83244 12.19175,-4.81037 12.78037,-5.399 0.58863,-0.58862 4.56656,-12.78037 5.399,-12.78037 z"
         transform="matrix(1.2495132,0,0,1.2495132,-73.871344,-51.343903)" />
    </g>
    <g
       id="g9563">
      <circle
         style="fill:#e01022;fill-opacity:1;stroke:none;stroke-width:6.44737;stroke-linecap:round;stroke-linejoin:round;stroke-dasharray:none;stroke-opacity:1;paint-order:fill markers stroke"
         id="path9529"
         cx="241.82503"
         cy="163.01218"
         r="13.891473" />
      <path
         style="fill:none;stroke:#e01022;stroke-width:3;stroke-linecap:butt;stroke-linejoin:miter;stroke-opacity:1;stroke-dasharray:none"
         d="m 239.84053,166.13068 c 4.78112,0.51732 9.31241,3.04461 12.26487,6.84063 2.95245,3.79601 4.28659,8.80998 3.6111,13.57133 -0.54364,3.83201 -2.36357,7.47186 -5.10299,10.20598"
         id="path9553"
         inkscape:path-effect="#path-effect9555"
         inkscape:original-d="m 239.84053,166.13068 c 5.29299,6.80498 10.58498,13.60897 15.87597,20.41196 5.29099,6.80298 -3.40099,6.80498 -5.10299,10.20598" />
    </g>
    <g
       id="g9567">
      <circle
         style="fill:#e01022;fill-opacity:1;stroke:none;stroke-width:6.44737;stroke-linecap:round;stroke-linejoin:round;stroke-dasharray:none;stroke-opacity:1;paint-order:fill markers stroke"
         id="path9529-1"
         cx="443.96014"
         cy="303.34439"
         r="13.891473" />
      <path
         style="fill:none;stroke:#e01022;stroke-width:3;stroke-linecap:butt;stroke-linejoin:miter;stroke-opacity:1;stroke-dasharray:none"
         d="m 440.55814,301.07641 c -3.06829,-1.7437 -6.67038,-2.53271 -10.18664,-2.23132 -3.51625,0.30139 -6.93152,1.6919 -9.65832,3.93232 -2.67118,2.19472 -4.67147,5.19516 -5.66999,8.50498"
         id="path9557"
         inkscape:path-effect="#path-effect9559"
         inkscape:original-d="m 440.55814,301.07641 c -6.23599,0.568 -13.22897,1.135 -19.84496,1.701 -6.61599,0.566 -3.77899,5.67099 -5.66999,8.50498" />
    </g>
    <path
       style="fill:none;stroke:#1a1022;stroke-width:1px;stroke-linecap:round;stroke-linejoin:miter;stroke-opacity:1"
       d="m 242.95903,281.6567 c -2.49636,7.38672 -2.44561,15.60812 0.14175,22.96346 1.37627,3.91245 3.45036,7.57829 6.09523,10.77297"
       id="path10326"
       inkscape:path-effect="#path-effect10328"
       inkscape:original-d="m 242.95903,281.6567 c 0.0482,7.65549 0.0955,15.30997 0.14175,22.96346 0.0463,7.65348 4.06449,7.18298 6.09523,10.77297" />
  </g>
</svg>
