<?xml version="1.0" encoding="UTF-8" standalone="no"?>
<!-- Created with Inkscape (http://www.inkscape.org/) -->

<svg
   width="512.0px"
   height="512.0px"
   viewBox="0 0 512.0 512.0"
   version="1.1"
   id="SVGRoot"
   sodipodi:docname="Libelula.svg"
   inkscape:version="1.2.2 (732a01da63, 2022-12-09)"
   inkscape:export-filename="10.png"
   inkscape:export-xdpi="96"
   inkscape:export-ydpi="96"
   xmlns:inkscape="http://www.inkscape.org/namespaces/inkscape"
   xmlns:sodipodi="http://sodipodi.sourceforge.net/DTD/sodipodi-0.dtd"
   xmlns="http://www.w3.org/2000/svg"
   xmlns:svg="http://www.w3.org/2000/svg">
  <sodipodi:namedview
     id="namedview8182"
     pagecolor="#ffffff"
     bordercolor="#666666"
     borderopacity="1.0"
     inkscape:showpageshadow="2"
     inkscape:pageopacity="0.0"
     inkscape:pagecheckerboard="0"
     inkscape:deskcolor="#0d0d0d"
     inkscape:document-units="px"
     showgrid="true"
     inkscape:zoom="1.5405543"
     inkscape:cx="150.59514"
     inkscape:cy="212.91038"
     inkscape:window-width="1858"
     inkscape:window-height="1057"
     inkscape:window-x="54"
     inkscape:window-y="892"
     inkscape:window-maximized="1"
     inkscape:current-layer="layer1">
    <inkscape:grid
       type="xygrid"
       id="grid8305"
       dotted="true" />
  </sodipodi:namedview>
  <defs
     id="defs8177">
    <inkscape:path-effect
       effect="spiro"
       id="path-effect22132"
       is_visible="true"
       lpeversion="1" />
    <inkscape:path-effect
       effect="spiro"
       id="path-effect19339"
       is_visible="true"
       lpeversion="1" />
    <inkscape:path-effect
       effect="spiro"
       id="path-effect19339-7"
       is_visible="true"
       lpeversion="1" />
  </defs>
  <g
     inkscape:label="Camada 1"
     inkscape:groupmode="layer"
     id="layer1">
    <g
       id="g22646">
      <g
         id="g13928">
        <circle
           style="fill:#7643f6;fill-opacity:1;stroke-width:1.2;stroke-linecap:round;paint-order:fill markers stroke"
           id="path10920"
           cx="271.39273"
           cy="291.60983"
           r="73.177147" />
        <circle
           style="fill:#eff867;stroke-width:1.2;stroke-linecap:round;paint-order:fill markers stroke;fill-opacity:1"
           id="path8317"
           cx="269.19519"
           cy="298.64188"
           r="57.794563" />
        <circle
           style="fill:#7643f6;fill-opacity:1;stroke-width:0.572973;stroke-linecap:round;paint-order:fill markers stroke"
           id="path10920-7"
           cx="266.33844"
           cy="296.22461"
           r="34.940441" />
        <circle
           style="fill:#eff867;fill-opacity:1;stroke-width:0.572973;stroke-linecap:round;paint-order:fill markers stroke"
           id="path8317-0"
           cx="265.28915"
           cy="299.58224"
           r="27.595604" />
        <path
           id="path8312"
           style="fill:#7643f6;stroke-width:1.2;stroke-linecap:round;paint-order:fill markers stroke;fill-opacity:1"
           d="m 354.23892,239.0893 c 2.71684,29.90144 -122.23515,21.53561 -115.14962,172.28493 -53.5658,-94.93252 -76.53809,-92.72731 -81.74744,-158.66036 -2.40685,-30.46269 -1.94406,-62.00031 26.70995,-74.09578 13.98619,-5.90387 27.28286,14.71787 62.50903,12.56545 33.55035,-2.05002 52.84595,-22.74975 68.03423,-17.33165 29.67644,10.58646 37.56629,42.37197 39.64385,65.23741 z"
           sodipodi:nodetypes="scsssss" />
      </g>
      <path
         id="path11521"
         style="fill:#ffffff;stroke-width:1.2;stroke-linecap:round;paint-order:fill markers stroke"
         transform="matrix(1.1225974,0,0,1.1225974,-8.0507725,-54.817706)"
         d="m 216.23517,228.10173 c 2.07491,0.0315 5.81561,4.64878 9.93597,11.11357 1.72027,2.69907 5.01341,6.23577 33.09295,-7.61548 -10.76113,15.1005 -12.68033,17.34336 -22.29596,26.93562 4.70494,9.40519 8.27419,17.98189 8.2742,20.54856 3e-5,6.36838 -22.63952,50.1998 -29.00716,50.10327 -6.4515,-0.0978 -29.00713,-44.53004 -29.00716,-50.98227 -1e-5,-2.48166 3.43788,-10.65222 8.01109,-19.69537 -4.2652,-6.75184 -6.90774,-13.2784 -12.98441,-32.65448 15.72086,14.34186 22.65548,15.24002 24.51338,12.4166 3.94752,-5.99902 7.49093,-10.19998 9.4671,-10.17002 z"
         sodipodi:nodetypes="ssccsssccss" />
      <path
         sodipodi:type="star"
         style="fill:#ff24eb;fill-opacity:1;stroke-width:1.2;stroke-linecap:round;paint-order:fill markers stroke"
         id="path11521-4"
         inkscape:flatsided="false"
         sodipodi:sides="2"
         sodipodi:cx="216.23517"
         sodipodi:cy="278.6445"
         sodipodi:r1="50.542774"
         sodipodi:r2="29.010487"
         sodipodi:arg1="-1.5707963"
         sodipodi:arg2="0.015150355"
         inkscape:rounded="0.11"
         inkscape:randomized="0"
         d="m 216.23517,228.10173 c 6.45149,0.0978 29.00713,44.53004 29.00716,50.98227 2e-5,6.36838 -22.63952,50.1998 -29.00716,50.10327 -6.4515,-0.0978 -29.00713,-44.53004 -29.00716,-50.98227 -3e-5,-6.36838 22.63952,-50.1998 29.00716,-50.10327 z"
         transform="matrix(0.78030304,0,0,0.78030304,65.306054,39.125665)" />
    </g>
    <g
       id="g22610">
      <path
         id="path8314"
         style="fill:#7643f6;fill-opacity:1;stroke-width:1.51476;stroke-linecap:round;paint-order:fill markers stroke"
         d="m 306.77123,65.00526 c -0.0172,-5.6e-4 -0.0356,5.81e-4 -0.0527,0 -0.92764,-0.0314 -1.83194,-0.09062 -2.71289,-0.169921 -1.7619,-0.158594 -3.42813,-0.392293 -4.99219,-0.613282 -1.90848,-0.269654 -3.7894,-0.544692 -5.64453,-0.80664 -1.85512,-0.261949 -3.68437,-0.511096 -5.48632,-0.72461 -1.80196,-0.213513 -3.5772,-0.393229 -5.32618,-0.517578 -0.87448,-0.06217 -1.74223,-0.110331 -2.60351,-0.142578 -0.86128,-0.03225 -1.71636,-0.04769 -2.56446,-0.04492 -0.84192,0.0028 -1.67964,0.02499 -2.51171,0.06836 -0.83208,0.04337 -1.65927,0.107596 -2.47657,0.193359 -0.8173,0.08576 -1.62427,0.194294 -2.42187,0.324219 -0.7976,0.129925 -1.58445,0.281172 -2.35742,0.457031 -0.77298,0.175859 -1.53392,0.376045 -2.27735,0.599609 -0.74343,0.223564 -1.47073,0.4711 -2.17968,0.744141 -0.70896,0.273041 -1.3988,0.570243 -2.06836,0.894531 -0.66956,0.324289 -1.31812,0.675427 -1.94336,1.052735 -0.62543,0.377418 -1.25328,0.809236 -1.88868,1.285156 -0.63539,0.47592 -1.27844,0.995189 -1.93554,1.548828 -1.31421,1.107278 -2.68276,2.349122 -4.1543,3.642578 -0.73577,0.646728 -1.4983,1.306651 -2.29101,1.96875 -0.79272,0.662099 -1.61711,1.327688 -2.47852,1.984375 -0.86141,0.656687 -1.75932,1.305054 -2.70117,1.935547 -0.94185,0.63049 -1.9269,1.24266 -2.96094,1.82617 -0.8831,0.49834 -1.80026,0.9657 -2.75,1.39258 -0.94974,0.42688 -1.93163,0.81418 -2.94336,1.14844 -0.50586,0.16713 -1.02053,0.32093 -1.54101,0.46094 -0.52049,0.14 -1.04751,0.26476 -1.58204,0.375 -0.53453,0.11023 -1.07505,0.20537 -1.62304,0.2832 -0.54799,0.07782 -1.1032,0.13887 -1.66407,0.18164 -0.56688,0.04322 -1.13879,0.06653 -1.71289,0.07031 -0.57409,0.0038 -1.15066,-0.01115 -1.72851,-0.04883 -0.57785,-0.03768 -1.15624,-0.09656 -1.73438,-0.17773 -0.57814,-0.08117 -1.15549,-0.18582 -1.73046,-0.3125 -0.57498,-0.12668 -1.14845,-0.27695 -1.7168,-0.45117 -0.56835,-0.17422 -1.13118,-0.37193 -1.68946,-0.59571 -0.55827,-0.22378 -1.11151,-0.47268 -1.65624,-0.74804 -0.54474,-0.27537 -1.08164,-0.57728 -1.60938,-0.90625 -0.50081,-0.31219 -0.97942,-0.64018 -1.4375,-0.98047 -0.45808,-0.34029 -0.89626,-0.69347 -1.31445,-1.05664 -0.4182,-0.363172 -0.81613,-0.736367 -1.19727,-1.11719 -0.38114,-0.380823 -0.74487,-0.76886 -1.0918,-1.162109 -0.69385,-0.7865 -1.32247,-1.591635 -1.89648,-2.396485 -0.57401,-0.804849 -1.09345,-1.609236 -1.57031,-2.390625 -0.94436,-1.547419 -1.74644,-3.035271 -2.47852,-4.404297 -0.73208,-1.369026 -1.39417,-2.619235 -2.05469,-3.693359 -0.29361,-0.477469 -0.65596,-0.956822 -1.07031,-1.433594 -0.41435,-0.476772 -0.87992,-0.950783 -1.38476,-1.416015 -0.50485,-0.465233 -1.04819,-0.922384 -1.61329,-1.365235 -0.56509,-0.442851 -1.15294,-0.871622 -1.74804,-1.28125 -0.5951,-0.409627 -1.19811,-0.800454 -1.79297,-1.166015 -0.59486,-0.365562 -1.18171,-0.704972 -1.74609,-1.015625 -0.96438,-0.530827 -1.80087,-0.918462 -2.55664,-1.246094 a 67.683365,67.683365 0 0 0 -12.24415,38.556643 67.683365,67.683365 0 0 0 67.6836,67.681642 67.683365,67.683365 0 0 0 67.68359,-67.681642 67.683365,67.683365 0 0 0 -6.45898,-28.609378 z" />
      <path
         id="path22111"
         style="fill:#ffffff;fill-opacity:1;stroke-width:1.51476;stroke-linecap:round;paint-order:fill markers stroke"
         d="m 304.68724,60.870495 c -0.10643,-0.009 -0.21619,-0.01191 -0.32226,-0.02148 -1.63901,-0.147932 -3.23582,-0.367876 -4.79297,-0.58789 -1.89362,-0.267555 -3.77519,-0.545211 -5.64453,-0.810547 -1.86935,-0.265336 -3.72643,-0.519265 -5.57422,-0.738281 -1.84779,-0.219017 -3.68471,-0.402654 -5.51367,-0.53125 -0.91448,-0.0643 -1.828,-0.115014 -2.73828,-0.148438 -0.91029,-0.03342 -1.81819,-0.04984 -2.72461,-0.04687 -0.9038,0.003 -1.80693,0.02635 -2.70703,0.07227 -0.90011,0.04591 -1.79808,0.114731 -2.68946,0.207031 -0.89138,0.0923 -1.77666,0.207492 -2.6543,0.34961 -0.87763,0.142117 -1.7466,0.310495 -2.60546,0.505859 -0.85886,0.195363 -1.70791,0.417883 -2.54297,0.669922 -0.83506,0.252039 -1.65666,0.533559 -2.46289,0.845703 -0.80624,0.312144 -1.59676,0.655571 -2.36914,1.03125 -0.77239,0.375678 -1.52626,0.78392 -2.25977,1.226562 -0.754,0.455011 -1.48958,0.950268 -2.21289,1.478516 -0.72331,0.528248 -1.43478,1.088746 -2.14258,1.671875 -1.4156,1.166259 -2.81506,2.425533 -4.25976,3.701172 -0.72236,0.637819 -1.45658,1.278387 -2.20899,1.916015 -0.75241,0.637629 -1.52265,1.271545 -2.32031,1.890626 -0.79766,0.61908 -1.62237,1.224465 -2.48047,1.80664 -0.8581,0.582175 -1.74986,1.141057 -2.68359,1.667969 -0.78347,0.442115 -1.59133,0.853264 -2.42188,1.226562 -0.83055,0.373298 -1.68342,0.709361 -2.55664,0.998051 -0.87322,0.28868 -1.76625,0.53046 -2.67773,0.71875 -0.91148,0.18828 -1.84178,0.32245 -2.78711,0.39453 -0.47584,0.03628 -0.95469,0.0573 -1.4336,0.06054 -0.4789,0.0032 -0.95821,-0.01184 -1.4375,-0.04296 -0.47928,-0.03112 -0.95856,-0.07968 -1.43554,-0.14649 -0.47698,-0.0668 -0.95183,-0.15204 -1.42383,-0.25586 -0.472,-0.10381 -0.93997,-0.22504 -1.4043,-0.36719 -0.46433,-0.14214 -0.92493,-0.30453 -1.3789,-0.48632 -0.45398,-0.1818 -0.90085,-0.384652 -1.3418,-0.607426 -0.44095,-0.222773 -0.87555,-0.465396 -1.30078,-0.730468 -0.40589,-0.253017 -0.79529,-0.520367 -1.16992,-0.798828 -0.37464,-0.278462 -0.73445,-0.568715 -1.08008,-0.869141 -0.69127,-0.600852 -1.32717,-1.242338 -1.91602,-1.910156 -0.58884,-0.667819 -1.13024,-1.361426 -1.63476,-2.06836 -0.50453,-0.706934 -0.97186,-1.426334 -1.41016,-2.144531 -0.87315,-1.430746 -1.63131,-2.844569 -2.35937,-4.207031 -0.72807,-1.362463 -1.42604,-2.673573 -2.18165,-3.902344 -0.33509,-0.544927 -0.72197,-1.082731 -1.15234,-1.611328 -0.43037,-0.528597 -0.90409,-1.04727 -1.41016,-1.552735 -0.50606,-0.505464 -1.04526,-0.999078 -1.60742,-1.474609 -0.56216,-0.47553 -1.14742,-0.934253 -1.74609,-1.373047 -0.59867,-0.438794 -1.21059,-0.856698 -1.82617,-1.251953 -0.61559,-0.395255 -1.23475,-0.766414 -1.84766,-1.111328 -0.61291,-0.344914 -1.2199,-0.663402 -1.81055,-0.951172 -0.55765,-0.271693 -1.09636,-0.5117 -1.61718,-0.726562 a 67.683365,67.683365 0 0 0 -0.93946,1.146484 67.683365,67.683365 0 0 0 -1.36132,2.076172 c 0.75577,0.327632 1.59226,0.715267 2.55664,1.246094 0.56438,0.310653 1.15123,0.650063 1.74609,1.015625 0.59486,0.365561 1.19787,0.756388 1.79297,1.166015 0.5951,0.409628 1.18295,0.838399 1.74804,1.28125 0.5651,0.442851 1.10844,0.900002 1.61329,1.365235 0.50484,0.465232 0.97041,0.939243 1.38476,1.416015 0.41435,0.476772 0.7767,0.956125 1.07031,1.433594 0.66052,1.074124 1.32261,2.324333 2.05469,3.693359 0.73208,1.369026 1.53416,2.856878 2.47852,4.404297 0.47686,0.781389 0.9963,1.585776 1.57031,2.390625 0.57401,0.80485 1.20263,1.609985 1.89648,2.396485 0.34693,0.393249 0.71066,0.781286 1.0918,1.162109 0.38114,0.380823 0.77907,0.754018 1.19727,1.11719 0.41819,0.36317 0.85637,0.71635 1.31445,1.05664 0.45808,0.34029 0.93669,0.66828 1.4375,0.98047 0.52774,0.32897 1.06464,0.63088 1.60938,0.90625 0.54473,0.27536 1.09797,0.52426 1.65624,0.74804 0.55828,0.22378 1.12111,0.42149 1.68946,0.59571 0.56835,0.17422 1.14182,0.32449 1.7168,0.45117 0.57497,0.12668 1.15232,0.23133 1.73046,0.3125 0.57814,0.08117 1.15653,0.14005 1.73438,0.17773 0.57785,0.03768 1.15442,0.05261 1.72851,0.04883 0.5741,-0.0038 1.14601,-0.02709 1.71289,-0.07031 0.56087,-0.04277 1.11608,-0.10382 1.66407,-0.18164 0.54799,-0.07783 1.08851,-0.17297 1.62304,-0.2832 0.53453,-0.11024 1.06155,-0.235 1.58204,-0.375 0.52048,-0.14001 1.03515,-0.29381 1.54101,-0.46094 1.01173,-0.33426 1.99362,-0.72156 2.94336,-1.14844 0.94974,-0.42688 1.8669,-0.89424 2.75,-1.39258 1.03404,-0.58351 2.01909,-1.19568 2.96094,-1.82617 0.94185,-0.630493 1.83976,-1.27886 2.70117,-1.935547 0.86141,-0.656687 1.6858,-1.322276 2.47852,-1.984375 0.79271,-0.662099 1.55524,-1.322022 2.29101,-1.96875 1.47154,-1.293456 2.84009,-2.5353 4.1543,-3.642578 0.6571,-0.553639 1.30015,-1.072908 1.93554,-1.548828 0.6354,-0.47592 1.26325,-0.907738 1.88868,-1.285156 0.62524,-0.377308 1.2738,-0.728446 1.94336,-1.052735 0.66956,-0.324288 1.3594,-0.62149 2.06836,-0.894531 0.70895,-0.273041 1.43625,-0.520577 2.17968,-0.744141 0.74343,-0.223564 1.50437,-0.42375 2.27735,-0.599609 0.77297,-0.175859 1.55982,-0.327106 2.35742,-0.457031 0.7976,-0.129925 1.60457,-0.238456 2.42187,-0.324219 0.8173,-0.08576 1.64449,-0.149988 2.47657,-0.193359 0.83207,-0.04337 1.66979,-0.06561 2.51171,-0.06836 0.8481,-0.0028 1.70318,0.01268 2.56446,0.04492 0.86128,0.03225 1.72903,0.0804 2.60351,0.142578 1.74898,0.124349 3.52422,0.304065 5.32618,0.517578 1.80195,0.213514 3.6312,0.462661 5.48632,0.72461 1.85513,0.261948 3.73605,0.536986 5.64453,0.80664 1.56406,0.220989 3.23029,0.454688 4.99219,0.613282 0.88095,0.0793 1.78525,0.138523 2.71289,0.169921 0.0172,5.81e-4 0.0356,-5.6e-4 0.0527,0 a 67.683365,67.683365 0 0 0 -0.89844,-2.05664 67.683365,67.683365 0 0 0 -1.18555,-2.078125 z" />
      <path
         id="path22109"
         style="fill:#ff24eb;fill-opacity:1;stroke-width:1.51476;stroke-linecap:round;paint-order:fill markers stroke"
         d="m 300.52123,54.276745 c -0.034,-0.0048 -0.0656,-0.0069 -0.0996,-0.01172 -1.86681,-0.263766 -3.74462,-0.543792 -5.63672,-0.814453 -1.8921,-0.270661 -3.79858,-0.531849 -5.71875,-0.759766 -1.92017,-0.227916 -3.8556,-0.42306 -5.80664,-0.558593 -0.97552,-0.06777 -1.95374,-0.120886 -2.9375,-0.15625 -0.98377,-0.03536 -1.97249,-0.05207 -2.96484,-0.04883 -0.99505,0.0033 -1.99542,0.02775 -2.99805,0.07812 -1.00264,0.05037 -2.00729,0.127306 -3.01172,0.230469 -1.00443,0.103164 -2.00936,0.232905 -3.00977,0.394531 -1.0004,0.161627 -1.99574,0.354318 -2.98632,0.580079 -0.99059,0.225761 -1.97623,0.485683 -2.95118,0.78125 -0.97495,0.295567 -1.93906,0.627002 -2.89257,0.998047 -0.95351,0.371044 -1.89601,0.780227 -2.82227,1.232421 -0.92626,0.452194 -1.83726,0.947314 -2.73047,1.486329 -0.91193,0.550311 -1.78438,1.128787 -2.625,1.726562 -0.84061,0.597775 -1.64931,1.214439 -2.43359,1.841797 -1.56856,1.254716 -3.03954,2.550637 -4.47266,3.816406 -1.43312,1.265769 -2.82857,2.500983 -4.24609,3.634766 -0.70877,0.566891 -1.42306,1.110113 -2.15039,1.617187 -0.72734,0.507075 -1.46763,0.978826 -2.22852,1.408203 -0.63041,0.355744 -1.27154,0.680887 -1.92187,0.972657 -0.65034,0.29177 -1.31022,0.549799 -1.97461,0.769531 -0.6644,0.219732 -1.33328,0.401387 -2.00586,0.541015 -0.67259,0.139629 -1.34854,0.237602 -2.02344,0.289063 -0.6708,0.05115 -1.34093,0.05504 -2.00195,0.01172 -0.66102,-0.04332 -1.31217,-0.134533 -1.94727,-0.273438 -0.6351,-0.138904 -1.2546,-0.324942 -1.84766,-0.560547 -0.59305,-0.235604 -1.16043,-0.520095 -1.69531,-0.853515 -0.51702,-0.322291 -1.00889,-0.692201 -1.48047,-1.105469 -0.47157,-0.413268 -0.92281,-0.8692 -1.35546,-1.361328 -0.43266,-0.492128 -0.84778,-1.021209 -1.24805,-1.580078 -0.40027,-0.558869 -0.78575,-1.148227 -1.16016,-1.761719 -0.75323,-1.234249 -1.45023,-2.550494 -2.17969,-3.916016 -0.36472,-0.682761 -0.73749,-1.378862 -1.1289,-2.082031 -0.39142,-0.703169 -0.80233,-1.413602 -1.24219,-2.128906 -0.39545,-0.643076 -0.80779,-1.283075 -1.23828,-1.914063 -0.43049,-0.630987 -0.87965,-1.253045 -1.34766,-1.863281 -0.468,-0.610236 -0.9549,-1.20824 -1.46289,-1.789062 -0.50798,-0.580823 -1.03745,-1.144754 -1.58789,-1.6875 -0.55043,-0.542747 -1.12144,-1.06454 -1.71679,-1.560547 -0.59536,-0.496008 -1.21469,-0.965644 -1.85743,-1.40625 -0.64274,-0.440607 -1.30935,-0.851973 -2.00195,-1.228516 -0.66115,-0.359447 -1.34981,-0.681255 -2.05859,-0.974609 a 67.683365,67.683365 0 0 0 -4.90625,5.544922 c 0.52082,0.214862 1.05953,0.454869 1.61718,0.726562 0.59065,0.28777 1.19764,0.606258 1.81055,0.951172 0.61291,0.344914 1.23207,0.716073 1.84766,1.111328 0.61558,0.395255 1.2275,0.813159 1.82617,1.251953 0.59867,0.438794 1.18393,0.897517 1.74609,1.373047 0.56216,0.475531 1.10136,0.969145 1.60742,1.474609 0.50607,0.505465 0.97979,1.024138 1.41016,1.552735 0.43037,0.528597 0.81725,1.066401 1.15234,1.611328 0.75561,1.228771 1.45358,2.539881 2.18165,3.902344 0.72806,1.362462 1.48622,2.776285 2.35937,4.207031 0.4383,0.718197 0.90563,1.437597 1.41016,2.144531 0.50452,0.706934 1.04592,1.400541 1.63476,2.06836 0.58885,0.667818 1.22475,1.309304 1.91602,1.910156 0.34563,0.300426 0.70544,0.590679 1.08008,0.869141 0.37463,0.278461 0.76403,0.545811 1.16992,0.798828 0.42523,0.265072 0.85983,0.507695 1.30078,0.730468 0.44095,0.222774 0.88782,0.425626 1.3418,0.607426 0.45397,0.18179 0.91457,0.34418 1.3789,0.48632 0.46433,0.14215 0.9323,0.26338 1.4043,0.36719 0.472,0.10382 0.94685,0.18906 1.42383,0.25586 0.47698,0.06681 0.95626,0.11537 1.43554,0.14649 0.47929,0.03112 0.9586,0.04621 1.4375,0.04296 0.47891,-0.0032 0.95776,-0.02426 1.4336,-0.06054 0.94533,-0.07208 1.87563,-0.20625 2.78711,-0.39453 0.91148,-0.18829 1.80451,-0.43007 2.67773,-0.71875 0.87322,-0.28869 1.72609,-0.624753 2.55664,-0.998051 0.83055,-0.373298 1.63841,-0.784447 2.42188,-1.226562 0.93373,-0.526912 1.82549,-1.085794 2.68359,-1.667969 0.8581,-0.582175 1.68281,-1.18756 2.48047,-1.80664 0.79766,-0.619081 1.5679,-1.252997 2.32031,-1.890626 0.75241,-0.637628 1.48663,-1.278196 2.20899,-1.916015 1.4447,-1.275639 2.84416,-2.534913 4.25976,-3.701172 0.7078,-0.583129 1.41927,-1.143627 2.14258,-1.671875 0.72331,-0.528248 1.45889,-1.023505 2.21289,-1.478516 0.73351,-0.442642 1.48738,-0.850884 2.25977,-1.226562 0.77238,-0.375679 1.5629,-0.719106 2.36914,-1.03125 0.80623,-0.312144 1.62783,-0.593664 2.46289,-0.845703 0.83506,-0.252039 1.68411,-0.474559 2.54297,-0.669922 0.85886,-0.195364 1.72783,-0.363742 2.60546,-0.505859 0.87764,-0.142118 1.76292,-0.25731 2.6543,-0.34961 0.89138,-0.0923 1.78935,-0.161119 2.68946,-0.207031 0.9001,-0.04591 1.80323,-0.06931 2.70703,-0.07227 0.90642,-0.003 1.81432,0.01345 2.72461,0.04687 0.91028,0.03342 1.8238,0.08414 2.73828,0.148438 1.82896,0.128596 3.66588,0.312233 5.51367,0.53125 1.84779,0.219016 3.70487,0.472945 5.57422,0.738281 1.86934,0.265336 3.75091,0.542992 5.64453,0.810547 1.55715,0.220014 3.15396,0.439958 4.79297,0.58789 0.10607,0.0096 0.21583,0.01253 0.32226,0.02148 a 67.683365,67.683365 0 0 0 -4.16601,-6.59375 z" />
      <path
         id="path22107"
         style="fill:#ffffff;fill-opacity:1;stroke-width:1.51476;stroke-linecap:round;paint-order:fill markers stroke"
         d="m 296.8767,49.710339 c -0.51227,-0.07469 -1.00863,-0.146482 -1.52539,-0.220703 -1.90695,-0.273887 -3.84559,-0.541768 -5.81446,-0.775391 -1.96887,-0.233623 -3.96817,-0.434175 -6,-0.574219 -1.01591,-0.07002 -2.04041,-0.125479 -3.07226,-0.162109 -1.03185,-0.03663 -2.07123,-0.05421 -3.11914,-0.05078 -1.05403,0.0034 -2.11753,0.03054 -3.1875,0.08398 -1.06998,0.05345 -2.14723,0.133615 -3.22657,0.24414 -1.07933,0.110526 -2.16008,0.251095 -3.24218,0.425782 -1.08211,0.174686 -2.16391,0.382977 -3.24219,0.628906 -1.07828,0.245929 -2.15479,0.529264 -3.22266,0.853516 -1.06787,0.324251 -2.12881,0.689954 -3.17968,1.099609 -1.05088,0.409655 -2.08991,0.863094 -3.11719,1.365234 -1.02728,0.50214 -2.04197,1.052592 -3.03907,1.654297 -1.00226,0.604826 -1.9575,1.233047 -2.87304,1.875 -0.91554,0.641954 -1.79087,1.297632 -2.63086,1.957032 -0.83999,0.659399 -1.64624,1.323304 -2.42188,1.980468 -0.77563,0.657165 -1.52168,1.308112 -2.24414,1.94336 -1.44491,1.270494 -2.79445,2.476278 -4.09375,3.541015 -0.64965,0.532369 -1.28599,1.029062 -1.91601,1.480469 -0.63003,0.451407 -1.25342,0.858221 -1.875,1.208984 -0.52646,0.297085 -1.059,0.564813 -1.5918,0.802735 -0.5328,0.237921 -1.06677,0.446172 -1.5957,0.621093 -0.52894,0.174922 -1.05154,0.317698 -1.56641,0.425782 -0.51487,0.108084 -1.02111,0.181341 -1.51172,0.21875 -0.47631,0.03632 -0.95422,0.03612 -1.42187,0.002 -0.46766,-0.03417 -0.92421,-0.103254 -1.36133,-0.199219 -0.43712,-0.09597 -0.85359,-0.220074 -1.23828,-0.36914 -0.38469,-0.149067 -0.73846,-0.32215 -1.04883,-0.515626 -0.30188,-0.188181 -0.61867,-0.429039 -0.94336,-0.71875 -0.32469,-0.28971 -0.65778,-0.628465 -0.99414,-1.009765 -0.33636,-0.3813 -0.67482,-0.806581 -1.01172,-1.269531 -0.3369,-0.462951 -0.67175,-0.963385 -0.99805,-1.498047 -0.66096,-1.083068 -1.32458,-2.342606 -2.06054,-3.71875 -0.36798,-0.688072 -0.75251,-1.405353 -1.16602,-2.144531 -0.4135,-0.739179 -0.85515,-1.499881 -1.33203,-2.275391 -0.43431,-0.70628 -0.87634,-1.396729 -1.33203,-2.070313 -0.45569,-0.673583 -0.92552,-1.331048 -1.41211,-1.96875 -0.48659,-0.637702 -0.99058,-1.256832 -1.51758,-1.855468 -0.52699,-0.598636 -1.07738,-1.176037 -1.6543,-1.732422 -0.57691,-0.556385 -1.18005,-1.090613 -1.8164,-1.601563 -0.63635,-0.510949 -1.30447,-0.998608 -2.00977,-1.460937 -0.70529,-0.46233 -1.44866,-0.900023 -2.23242,-1.310547 -0.61843,-0.32393 -1.28445,-0.618302 -1.95703,-0.908203 a 67.683365,67.683365 0 0 0 -1.48828,1.267578 67.683365,67.683365 0 0 0 -1.25781,1.310547 c 0.70878,0.293354 1.39744,0.615162 2.05859,0.974609 0.6926,0.376543 1.35921,0.787909 2.00195,1.228516 0.64274,0.440606 1.26207,0.910242 1.85743,1.40625 0.59535,0.496007 1.16636,1.0178 1.71679,1.560547 0.55044,0.542746 1.07991,1.106677 1.58789,1.6875 0.50799,0.580822 0.99489,1.178826 1.46289,1.789062 0.46801,0.610236 0.91717,1.232294 1.34766,1.863281 0.43049,0.630988 0.84283,1.270987 1.23828,1.914063 0.43986,0.715304 0.85077,1.425737 1.24219,2.128906 0.39141,0.703169 0.76418,1.39927 1.1289,2.082031 0.72946,1.365522 1.42646,2.681767 2.17969,3.916016 0.37441,0.613492 0.75989,1.20285 1.16016,1.761719 0.40027,0.558869 0.81539,1.08795 1.24805,1.580078 0.43265,0.492128 0.88389,0.94806 1.35546,1.361328 0.47158,0.413268 0.96345,0.783178 1.48047,1.105469 0.53488,0.33342 1.10226,0.617911 1.69531,0.853515 0.59306,0.235605 1.21256,0.421643 1.84766,0.560547 0.6351,0.138905 1.28625,0.230118 1.94727,0.273438 0.66102,0.04332 1.33115,0.03943 2.00195,-0.01172 0.6749,-0.05146 1.35085,-0.149434 2.02344,-0.289063 0.67258,-0.139628 1.34146,-0.321283 2.00586,-0.541015 0.66439,-0.219732 1.32427,-0.477761 1.97461,-0.769531 0.65033,-0.29177 1.29146,-0.616913 1.92187,-0.972657 0.76089,-0.429377 1.50118,-0.901128 2.22852,-1.408203 0.72733,-0.507074 1.44162,-1.050296 2.15039,-1.617187 1.41752,-1.133783 2.81297,-2.368997 4.24609,-3.634766 1.43312,-1.265769 2.9041,-2.56169 4.47266,-3.816406 0.78428,-0.627358 1.59298,-1.244022 2.43359,-1.841797 0.84062,-0.597775 1.71307,-1.176251 2.625,-1.726562 0.89321,-0.539015 1.80421,-1.034135 2.73047,-1.486329 0.92626,-0.452194 1.86876,-0.861377 2.82227,-1.232421 0.95351,-0.371045 1.91762,-0.70248 2.89257,-0.998047 0.97495,-0.295567 1.96059,-0.555489 2.95118,-0.78125 0.99058,-0.225761 1.98592,-0.418452 2.98632,-0.580079 1.00041,-0.161626 2.00534,-0.291367 3.00977,-0.394531 1.00443,-0.103163 2.00908,-0.180096 3.01172,-0.230469 1.00263,-0.05037 2.003,-0.07487 2.99805,-0.07812 0.99235,-0.0032 1.98107,0.01346 2.96484,0.04883 0.98376,0.03536 1.96198,0.08848 2.9375,0.15625 1.95104,0.135533 3.88647,0.330677 5.80664,0.558593 1.92017,0.227917 3.82665,0.489105 5.71875,0.759766 1.8921,0.270661 3.76991,0.550687 5.63672,0.814453 0.034,0.0048 0.0656,0.0069 0.0996,0.01172 a 67.683365,67.683365 0 0 0 -1.58399,-2.248047 67.683365,67.683365 0 0 0 -2.06054,-2.318359 z" />
      <path
         id="path22105"
         style="fill:#7643f6;fill-opacity:1;stroke-width:1.51476;stroke-linecap:round;paint-order:fill markers stroke"
         d="m 245.54662,25.931042 a 67.683365,67.683365 0 0 0 -45.48633,17.78125 c 0.67258,0.289901 1.3386,0.584273 1.95703,0.908203 0.78376,0.410524 1.52713,0.848217 2.23242,1.310547 0.7053,0.462329 1.37342,0.949988 2.00977,1.460937 0.63635,0.51095 1.23949,1.045178 1.8164,1.601563 0.57692,0.556385 1.12731,1.133786 1.6543,1.732422 0.527,0.598636 1.03099,1.217766 1.51758,1.855468 0.48659,0.637702 0.95642,1.295167 1.41211,1.96875 0.45569,0.673584 0.89772,1.364033 1.33203,2.070313 0.47688,0.77551 0.91853,1.536212 1.33203,2.275391 0.41351,0.739178 0.79804,1.456459 1.16602,2.144531 0.73596,1.376144 1.39958,2.635682 2.06054,3.71875 0.3263,0.534662 0.66115,1.035096 0.99805,1.498047 0.3369,0.46295 0.67536,0.888231 1.01172,1.269531 0.33636,0.3813 0.66945,0.720055 0.99414,1.009765 0.32469,0.289711 0.64148,0.530569 0.94336,0.71875 0.31037,0.193476 0.66414,0.366559 1.04883,0.515626 0.38469,0.149066 0.80116,0.273175 1.23828,0.36914 0.43712,0.09596 0.89367,0.165049 1.36133,0.199219 0.46765,0.03417 0.94556,0.03437 1.42187,-0.002 0.49061,-0.03741 0.99685,-0.110666 1.51172,-0.21875 0.51487,-0.108084 1.03747,-0.25086 1.56641,-0.425782 0.52893,-0.174921 1.0629,-0.383172 1.5957,-0.621093 0.5328,-0.237922 1.06534,-0.50565 1.5918,-0.802735 0.62158,-0.350763 1.24497,-0.757577 1.875,-1.208984 0.63002,-0.451407 1.26636,-0.9481 1.91601,-1.480469 1.2993,-1.064737 2.64884,-2.270521 4.09375,-3.541015 0.72246,-0.635248 1.46851,-1.286195 2.24414,-1.94336 0.77564,-0.657164 1.58189,-1.321069 2.42188,-1.980468 0.83999,-0.6594 1.71532,-1.315078 2.63086,-1.957032 0.91554,-0.641953 1.87078,-1.270174 2.87304,-1.875 0.9971,-0.601705 2.01179,-1.152157 3.03907,-1.654297 1.02728,-0.50214 2.06631,-0.955579 3.11719,-1.365234 1.05087,-0.409655 2.11181,-0.775358 3.17968,-1.099609 1.06787,-0.324252 2.14438,-0.607587 3.22266,-0.853516 1.07828,-0.245929 2.16008,-0.45422 3.24219,-0.628906 1.0821,-0.174687 2.16285,-0.315256 3.24218,-0.425782 1.07934,-0.110525 2.15659,-0.190695 3.22657,-0.24414 1.06997,-0.05344 2.13347,-0.08054 3.1875,-0.08398 1.04791,-0.0034 2.08729,0.01415 3.11914,0.05078 1.03185,0.03663 2.05635,0.09209 3.07226,0.162109 2.03183,0.140044 4.03113,0.340596 6,0.574219 1.96887,0.233623 3.90751,0.501504 5.81446,0.775391 0.51676,0.07422 1.01312,0.146013 1.52539,0.220703 A 67.683365,67.683365 0 0 0 245.54662,25.931042 Z" />
      <path
         style="fill:none;stroke:#000000;stroke-width:3;stroke-linecap:round;stroke-linejoin:miter;stroke-dasharray:3, 6;stroke-dashoffset:0;stroke-opacity:1"
         d="m 256.62279,79.653698 c -4.83277,2.472931 -9.03895,6.15876 -12.125,10.625 -4.03642,5.841645 -6.09034,12.850262 -7.125,19.875002 -1.32104,8.96907 -1.07625,18.10921 -0.125,27.125 0.61985,5.87484 1.53809,11.71819 2.75,17.5"
         id="path22130"
         inkscape:path-effect="#path-effect22132"
         inkscape:original-d="m 256.62279,79.653698 c -3.999,3.501 -8.08233,7.08433 -12.125,10.625 -4.04267,3.54067 -4.749,13.251002 -7.125,19.875002 -2.376,6.624 -0.0823,18.08433 -0.125,27.125 -0.0427,9.04067 1.83433,11.66767 2.75,17.5" />
    </g>
    <path
       id="path13930"
       style="fill:#f9f7fe;stroke-width:1.48155;stroke-linecap:round;paint-order:fill markers stroke"
       d="m 224.26766,123.55098 c -0.64271,3.52706 -6.56738,7.67877 -16.00736,6.62679 -1.34634,-0.15003 -2.54547,5.49478 1.54683,20.29853 -7.47456,-16.22943 -7.87507,-22.16498 -8.98952,-22.82909 -2.0346,-1.21239 -4.28173,-1.60377 -6.20594,-3.50281 -3.05209,-3.45947 -6.83328,-7.08934 -16.06194,-28.521064 10.46134,19.314824 13.68398,21.616574 13.20859,20.093574 -0.4522,-1.4487 -0.59061,-2.98969 -0.59061,-4.53652 0,-4.75738 0.92821,-8.76729 3.41277,-10.83661 0.64635,-0.538314 -1.54127,-11.079188 -0.98084,-28.108188 1.43889,16.284618 5.33109,26.529428 6.60635,26.654336 1.90312,0.186404 4.16384,0.861128 6.83341,2.121502 13.8208,6.52516 18.02824,18.14933 17.22826,22.53955 z"
       sodipodi:nodetypes="sscsccssscsss" />
    <g
       id="g22623">
      <circle
         style="fill:#fa1414;fill-opacity:1;stroke-width:2.00986;stroke-linecap:round;paint-order:fill markers stroke"
         id="path15285"
         cx="205.1615"
         cy="117.41553"
         r="8.3932571" />
      <circle
         style="fill:#080000;fill-opacity:1;stroke-width:2.21361;stroke-linecap:round;paint-order:fill markers stroke"
         id="path16639"
         cx="205.16153"
         cy="117.51144"
         r="6.0911069" />
      <path
         sodipodi:type="star"
         style="fill:#9e0000;fill-opacity:1;stroke-width:1.2;stroke-linecap:round;paint-order:fill markers stroke"
         id="path17889"
         inkscape:flatsided="false"
         sodipodi:sides="2"
         sodipodi:cx="206.66545"
         sodipodi:cy="115.53065"
         sodipodi:r1="4.3536253"
         sodipodi:r2="0.71615916"
         sodipodi:arg1="1.5707963"
         sodipodi:arg2="3.0328921"
         inkscape:rounded="0.11"
         inkscape:randomized="0"
         d="m 206.66545,119.88427 c -0.47401,0.0517 -0.71193,-3.7991 -0.71193,-4.27593 0,-0.49369 0.22115,-4.37776 0.71193,-4.43132 0.47401,-0.0517 0.71193,3.79911 0.71193,4.27593 0,0.4937 -0.22115,4.37776 -0.71193,4.43132 z"
         transform="matrix(0.93721968,0,0,0.93721968,11.162944,0.79263693)" />
      <path
         sodipodi:type="star"
         style="fill:#9e0000;fill-opacity:1;stroke-width:1.2;stroke-linecap:round;paint-order:fill markers stroke"
         id="path17889-2"
         inkscape:flatsided="false"
         sodipodi:sides="2"
         sodipodi:cx="206.66545"
         sodipodi:cy="115.53065"
         sodipodi:r1="4.3536253"
         sodipodi:r2="0.71615916"
         sodipodi:arg1="1.5707963"
         sodipodi:arg2="3.0328921"
         inkscape:rounded="0.11"
         inkscape:randomized="0"
         d="m 206.66545,119.88427 c -0.47401,0.0517 -0.71193,-3.7991 -0.71193,-4.27593 0,-0.49369 0.22115,-4.37776 0.71193,-4.43132 0.47401,-0.0517 0.71193,3.79911 0.71193,4.27593 0,0.4937 -0.22115,4.37776 -0.71193,4.43132 z"
         transform="matrix(0.40809038,0.84370786,-0.84370786,0.40809038,226.16314,-107.0703)" />
      <path
         sodipodi:type="star"
         style="fill:#ffffff;fill-opacity:1;stroke-width:1.2;stroke-linecap:round;paint-order:fill markers stroke"
         id="path17889-2-5"
         inkscape:flatsided="false"
         sodipodi:sides="2"
         sodipodi:cx="206.66545"
         sodipodi:cy="115.53065"
         sodipodi:r1="4.3536253"
         sodipodi:r2="0.71615916"
         sodipodi:arg1="1.5707963"
         sodipodi:arg2="3.0328921"
         inkscape:rounded="0.11"
         inkscape:randomized="0"
         d="m 206.66545,119.88427 c -0.47401,0.0517 -0.71193,-3.7991 -0.71193,-4.27593 0,-0.49369 0.22115,-4.37776 0.71193,-4.43132 0.47401,-0.0517 0.71193,3.79911 0.71193,4.27593 0,0.4937 -0.22115,4.37776 -0.71193,4.43132 z"
         transform="matrix(-0.01034072,1.4748049,-0.60110776,-0.02537071,271.92977,-181.55869)"
         inkscape:transform-center-x="-0.4012758"
         inkscape:transform-center-y="-0.050678188" />
    </g>
    <path
       id="path13930-2"
       style="fill:#f9f7fe;stroke-width:1.62437;stroke-linecap:round;paint-order:fill markers stroke"
       d="m 249.749,122.76691 c 0.72923,3.73934 7.45143,8.16098 18.16213,7.08311 1.52759,-0.15373 2.46264,1.9232 4.55622,24.36878 2.31127,-21.22606 2.62387,-26.32166 3.88833,-27.02092 2.3085,-1.2766 4.36171,-2.94236 6.04856,-4.88237 4.03023,-1.99598 11.937,-5.74845 28.01007,-21.57947 -14.56424,9.81897 -24.1774,15.27072 -23.77985,13.85714 0.437,-1.55376 0.67012,-3.16521 0.67012,-4.80404 0,-5.04033 -1.05317,-9.29235 -3.87217,-11.494403 -0.73336,-0.57284 1.74875,-11.732161 1.11286,-29.776183 -1.63255,17.247601 -6.04871,28.086626 -7.49563,28.214003 -2.1593,0.190105 -4.72433,0.896172 -7.75326,2.221128 -15.68123,6.859575 -20.45504,19.158775 -19.54738,23.813225 z"
       sodipodi:nodetypes="sscsccssscsss" />
    <g
       id="g22636">
      <circle
         style="fill:#fa1414;fill-opacity:1;stroke-width:1.8935;stroke-linecap:round;paint-order:fill markers stroke"
         id="path15285-8"
         cx="263.49142"
         cy="119.6637"
         r="7.9073339" />
      <circle
         style="fill:#080000;fill-opacity:1;stroke-width:2.08546;stroke-linecap:round;paint-order:fill markers stroke"
         id="path16639-5"
         cx="263.49142"
         cy="119.75406"
         r="5.7384653" />
      <path
         sodipodi:type="star"
         style="fill:#9e0000;fill-opacity:1;stroke-width:1.2;stroke-linecap:round;paint-order:fill markers stroke"
         id="path17889-5"
         inkscape:flatsided="false"
         sodipodi:sides="2"
         sodipodi:cx="206.66545"
         sodipodi:cy="115.53065"
         sodipodi:r1="4.3536253"
         sodipodi:r2="0.71615916"
         sodipodi:arg1="1.5707963"
         sodipodi:arg2="3.0328921"
         inkscape:rounded="0.11"
         inkscape:randomized="0"
         d="m 206.66545,119.88427 c -0.47401,0.0517 -0.71193,-3.7991 -0.71193,-4.27593 0,-0.49369 0.22115,-4.37776 0.71193,-4.43132 0.47401,-0.0517 0.71193,3.79911 0.71193,4.27593 0,0.4937 -0.22115,4.37776 -0.71193,4.43132 z"
         transform="matrix(0.88295981,0,0,0.88295981,80.724319,9.7926378)" />
      <path
         sodipodi:type="star"
         style="fill:#9e0000;fill-opacity:1;stroke-width:1.2;stroke-linecap:round;paint-order:fill markers stroke"
         id="path17889-2-3"
         inkscape:flatsided="false"
         sodipodi:sides="2"
         sodipodi:cx="206.66545"
         sodipodi:cy="115.53065"
         sodipodi:r1="4.3536253"
         sodipodi:r2="0.71615916"
         sodipodi:arg1="1.5707963"
         sodipodi:arg2="3.0328921"
         inkscape:rounded="0.11"
         inkscape:randomized="0"
         d="m 206.66545,119.88427 c -0.47401,0.0517 -0.71193,-3.7991 -0.71193,-4.27593 0,-0.49369 0.22115,-4.37776 0.71193,-4.43132 0.47401,-0.0517 0.71193,3.79911 0.71193,4.27593 0,0.4937 -0.22115,4.37776 -0.71193,4.43132 z"
         transform="matrix(0.38446419,0.79486181,-0.79486181,0.38446419,283.27718,-91.825623)" />
      <path
         sodipodi:type="star"
         style="fill:#ffffff;fill-opacity:1;stroke-width:1.2;stroke-linecap:round;paint-order:fill markers stroke"
         id="path17889-2-5-1"
         inkscape:flatsided="false"
         sodipodi:sides="2"
         sodipodi:cx="206.66545"
         sodipodi:cy="115.53065"
         sodipodi:r1="4.3536253"
         sodipodi:r2="0.71615916"
         sodipodi:arg1="1.5707963"
         sodipodi:arg2="3.0328921"
         inkscape:rounded="0.11"
         inkscape:randomized="0"
         d="m 206.66545,119.88427 c -0.47401,0.0517 -0.71193,-3.7991 -0.71193,-4.27593 0,-0.49369 0.22115,-4.37776 0.71193,-4.43132 0.47401,-0.0517 0.71193,3.79911 0.71193,4.27593 0,0.4937 -0.22115,4.37776 -0.71193,4.43132 z"
         transform="matrix(-0.00974205,1.3894218,-0.56630693,-0.02390189,326.39418,-162.00154)"
         inkscape:transform-center-x="-0.4012778"
         inkscape:transform-center-y="-0.050678188" />
    </g>
    <g
       id="g24152">
      <circle
         style="fill:#ff24eb;fill-opacity:1;stroke:none;stroke-width:3;stroke-linecap:round;stroke-dasharray:3, 6;stroke-dashoffset:0;stroke-opacity:1;paint-order:fill markers stroke"
         id="path22190"
         cx="112.6218"
         cy="208.04199"
         r="30.833057" />
      <circle
         style="fill:#ffffff;fill-opacity:1;stroke:none;stroke-width:3;stroke-linecap:round;stroke-dasharray:3, 6;stroke-dashoffset:0;stroke-opacity:1;paint-order:fill markers stroke"
         id="path22192"
         cx="106.13063"
         cy="206.74376"
         r="19.148951" />
    </g>
    <g
       id="g24148">
      <circle
         style="fill:#ff24eb;fill-opacity:1;stroke:none;stroke-width:3;stroke-linecap:round;stroke-dasharray:3, 6;stroke-dashoffset:0;stroke-opacity:1;paint-order:fill markers stroke"
         id="path22190-2"
         cx="-391.5098"
         cy="201.52776"
         r="30.833057"
         transform="scale(-1,1)" />
      <circle
         style="fill:#ffffff;fill-opacity:1;stroke:none;stroke-width:3;stroke-linecap:round;stroke-dasharray:3, 6;stroke-dashoffset:0;stroke-opacity:1;paint-order:fill markers stroke"
         id="path22192-6"
         cx="-398.00095"
         cy="200.22952"
         r="19.148951"
         transform="scale(-1,1)" />
    </g>
    <path
       sodipodi:type="star"
       style="fill:#ff24eb;fill-opacity:1;stroke:none;stroke-width:3;stroke-linecap:round;stroke-dasharray:3, 6;stroke-dashoffset:0;stroke-opacity:1;paint-order:fill markers stroke"
       id="path22429"
       inkscape:flatsided="false"
       sodipodi:sides="2"
       sodipodi:cx="125.30564"
       sodipodi:cy="337.36136"
       sodipodi:r1="81.116257"
       sodipodi:r2="21.414692"
       sodipodi:arg1="1.5707963"
       sodipodi:arg2="3.1415927"
       inkscape:rounded="0.05"
       inkscape:randomized="0"
       d="m 125.30564,418.47762 c -4.19477,0 -21.41469,-76.92149 -21.41469,-81.11626 0,-4.19477 17.21992,-81.11626 21.41469,-81.11626 4.19477,0 21.41469,76.92149 21.41469,81.11626 0,4.19477 -17.21992,81.11626 -21.41469,81.11626 z"
       transform="matrix(0.65368527,0.35814712,-0.35814712,0.65368527,194.21956,149.06652)" />
    <path
       sodipodi:type="star"
       style="fill:#ff24eb;fill-opacity:1;stroke:none;stroke-width:3;stroke-linecap:round;stroke-dasharray:3, 6;stroke-dashoffset:0;stroke-opacity:1;paint-order:fill markers stroke"
       id="path22429-7"
       inkscape:flatsided="false"
       sodipodi:sides="2"
       sodipodi:cx="125.30564"
       sodipodi:cy="337.36136"
       sodipodi:r1="81.116257"
       sodipodi:r2="21.414692"
       sodipodi:arg1="1.5707963"
       sodipodi:arg2="3.1415927"
       inkscape:rounded="0.05"
       inkscape:randomized="0"
       d="m 125.30564,418.47762 c -4.19477,0 -21.41469,-76.92149 -21.41469,-81.11626 0,-4.19477 17.21992,-81.11626 21.41469,-81.11626 4.19477,0 21.41469,76.92149 21.41469,81.11626 0,4.19477 -17.21992,81.11626 -21.41469,81.11626 z"
       transform="matrix(-0.65368527,0.35814712,0.35814712,0.65368527,285.59494,163.75435)" />
    <path
       sodipodi:type="star"
       style="fill:#ff24eb;fill-opacity:1;stroke:none;stroke-width:3;stroke-linecap:round;stroke-dasharray:3, 6;stroke-dashoffset:0;stroke-opacity:1;paint-order:fill markers stroke"
       id="path22429-7-1"
       inkscape:flatsided="false"
       sodipodi:sides="2"
       sodipodi:cx="125.30564"
       sodipodi:cy="337.36136"
       sodipodi:r1="81.116257"
       sodipodi:r2="21.414692"
       sodipodi:arg1="1.5707963"
       sodipodi:arg2="3.1415927"
       inkscape:rounded="0.05"
       inkscape:randomized="0"
       d="m 125.30564,418.47762 c -4.19477,0 -21.41469,-76.92149 -21.41469,-81.11626 0,-4.19477 17.21992,-81.11626 21.41469,-81.11626 4.19477,0 21.41469,76.92149 21.41469,81.11626 0,4.19477 -17.21992,81.11626 -21.41469,81.11626 z"
       transform="matrix(-0.89068841,-0.64724197,-0.64724197,0.89068841,708.57149,-133.04822)" />
    <path
       sodipodi:type="star"
       style="fill:#ff24eb;fill-opacity:1;stroke:none;stroke-width:3;stroke-linecap:round;stroke-dasharray:3, 6;stroke-dashoffset:0;stroke-opacity:1;paint-order:fill markers stroke"
       id="path22429-7-1-3"
       inkscape:flatsided="false"
       sodipodi:sides="2"
       sodipodi:cx="125.30564"
       sodipodi:cy="337.36136"
       sodipodi:r1="81.116257"
       sodipodi:r2="21.414692"
       sodipodi:arg1="1.5707963"
       sodipodi:arg2="3.1415927"
       inkscape:rounded="0.05"
       inkscape:randomized="0"
       d="m 125.30564,418.47762 c -4.19477,0 -21.41469,-76.92149 -21.41469,-81.11626 0,-4.19477 17.21992,-81.11626 21.41469,-81.11626 4.19477,0 21.41469,76.92149 21.41469,81.11626 0,4.19477 -17.21992,81.11626 -21.41469,81.11626 z"
       transform="matrix(0.89068841,-0.64724197,0.64724197,0.89068841,-217.01637,-130.45176)" />
  </g>
</svg>
