<?xml version="1.0" encoding="UTF-8" standalone="no"?>
<!-- Created with Inkscape (http://www.inkscape.org/) -->

<svg
   width="512"
   height="512"
   viewBox="0 0 512 512"
   version="1.1"
   id="svg5"
   inkscape:export-filename="hpbar fill.png"
   inkscape:export-xdpi="390"
   inkscape:export-ydpi="390"
   inkscape:version="1.2.2 (732a01da63, 2022-12-09)"
   sodipodi:docname="health bar.svg"
   xmlns:inkscape="http://www.inkscape.org/namespaces/inkscape"
   xmlns:sodipodi="http://sodipodi.sourceforge.net/DTD/sodipodi-0.dtd"
   xmlns="http://www.w3.org/2000/svg"
   xmlns:svg="http://www.w3.org/2000/svg">
  <sodipodi:namedview
     id="namedview7"
     pagecolor="#ffffff"
     bordercolor="#666666"
     borderopacity="1.0"
     inkscape:showpageshadow="2"
     inkscape:pageopacity="0.0"
     inkscape:pagecheckerboard="0"
     inkscape:deskcolor="#d1d1d1"
     inkscape:document-units="px"
     showgrid="false"
     inkscape:zoom="1.7636719"
     inkscape:cx="234.73754"
     inkscape:cy="298.80842"
     inkscape:window-width="1858"
     inkscape:window-height="1057"
     inkscape:window-x="54"
     inkscape:window-y="892"
     inkscape:window-maximized="1"
     inkscape:current-layer="layer1" />
  <defs
     id="defs2">
    <inkscape:path-effect
       effect="spiro"
       id="path-effect5238"
       is_visible="true"
       lpeversion="1" />
    <inkscape:path-effect
       effect="spiro"
       id="path-effect5234"
       is_visible="true"
       lpeversion="1" />
    <inkscape:path-effect
       effect="spiro"
       id="path-effect5230"
       is_visible="true"
       lpeversion="1" />
    <inkscape:path-effect
       effect="spiro"
       id="path-effect5226"
       is_visible="true"
       lpeversion="1" />
    <inkscape:path-effect
       effect="spiro"
       id="path-effect5222"
       is_visible="true"
       lpeversion="1" />
    <inkscape:path-effect
       effect="spiro"
       id="path-effect5218"
       is_visible="true"
       lpeversion="1" />
    <inkscape:path-effect
       effect="spiro"
       id="path-effect5210"
       is_visible="true"
       lpeversion="1" />
    <inkscape:path-effect
       effect="spiro"
       id="path-effect5206"
       is_visible="true"
       lpeversion="1" />
    <inkscape:path-effect
       effect="spiro"
       id="path-effect5202"
       is_visible="true"
       lpeversion="1" />
    <inkscape:path-effect
       effect="spiro"
       id="path-effect5198"
       is_visible="true"
       lpeversion="1" />
    <inkscape:path-effect
       effect="spiro"
       id="path-effect292"
       is_visible="true"
       lpeversion="1" />
  </defs>
  <g
     inkscape:label="Camada 1"
     inkscape:groupmode="layer"
     id="layer1">
    <rect
       style="fill:none;fill-opacity:1;stroke:#709dff;stroke-width:16;stroke-linecap:round;stroke-linejoin:round;stroke-dasharray:none;stroke-opacity:1;paint-order:fill markers stroke"
       id="rect2121"
       width="479.68106"
       height="85.616837"
       x="16.15947"
       y="213.19159" />
    <path
       id="rect2121-2-0"
       style="fill:#676bff;fill-opacity:1;stroke:none;stroke-width:16;stroke-linecap:round;stroke-linejoin:round;stroke-dasharray:none;stroke-opacity:1;paint-order:fill markers stroke"
       d="M 334.37109 269.61719 C 333.84827 269.63379 333.3219 269.67718 332.79688 269.74414 C 332.1444 269.82736 331.49011 269.99299 330.83594 270.18945 C 330.18176 270.38592 329.5277 270.61323 328.87305 270.81641 C 328.82696 271.15198 328.72298 271.48127 328.70898 271.81836 C 328.67268 272.68931 328.74025 273.56713 328.90625 274.42383 C 329.07225 275.28053 329.33667 276.11612 329.69727 276.90234 C 330.05759 277.688 330.51637 278.43085 331.05664 279.10742 C 331.59691 279.784 332.21868 280.3943 332.90234 280.91211 C 333.3778 281.27222 333.89011 281.5869 334.42578 281.84961 C 334.96146 282.11231 335.51985 282.32353 336.08789 282.47656 C 336.65594 282.6296 337.23407 282.72476 337.80664 282.75586 C 338.37921 282.78696 338.94686 282.7535 339.49609 282.65039 C 340.04658 282.54705 340.58394 282.37387 341.08789 282.14062 C 341.59184 281.90738 342.06239 281.61405 342.47656 281.26758 C 342.88891 280.92263 343.25466 280.51572 343.55469 280.07227 C 343.85472 279.62881 344.08903 279.14882 344.24219 278.6543 C 344.36591 278.25481 344.43701 277.83314 344.45898 277.40039 C 344.48096 276.96764 344.45437 276.52401 344.38086 276.08398 C 344.30735 275.64396 344.18617 275.20645 344.02344 274.78516 C 343.8607 274.36386 343.65585 273.9586 343.41016 273.58203 C 343.16014 273.19884 342.86871 272.83685 342.54297 272.5 C 342.21723 272.16315 341.85746 271.85214 341.4707 271.56836 C 340.69719 271.00079 339.81607 270.54537 338.88672 270.23047 C 337.94915 269.91278 336.95093 269.72384 335.92578 269.64844 C 335.41321 269.61075 334.89392 269.60058 334.37109 269.61719 z " />
    <path
       id="path5362"
       style="fill:#f27fff;fill-opacity:1;stroke:none;stroke-width:16;stroke-linecap:round;stroke-linejoin:round;stroke-dasharray:none;stroke-opacity:1;paint-order:fill markers stroke"
       d="M 340.8125 256.14453 C 339.94441 256.18439 339.0793 256.28637 338.22656 256.45117 C 337.37382 256.61598 336.53281 256.84435 335.71289 257.13281 C 334.89297 257.42127 334.09384 257.77082 333.32422 258.18164 C 332.5546 258.59246 331.81513 259.06382 331.11328 259.5957 C 330.45125 260.09742 329.83241 260.64951 329.26172 261.24609 C 328.69103 261.84268 328.16762 262.48436 327.69531 263.16016 C 327.22301 263.83595 326.80243 264.54775 326.43555 265.28711 C 326.06867 266.02647 325.75637 266.7928 325.50195 267.58008 C 325.34525 267.63878 325.17692 267.68226 325.02148 267.74219 C 323.72581 268.24173 322.45084 268.79239 321.19922 269.39062 C 319.94759 269.98886 318.71909 270.63409 317.51758 271.32617 C 316.31607 272.01825 315.14142 272.75604 313.99609 273.53711 C 312.85077 274.31818 311.73542 275.14259 310.65234 276.00781 C 309.56927 276.87303 308.51866 277.78009 307.50391 278.72461 C 306.48915 279.66913 305.51068 280.65095 304.57031 281.66992 C 303.62994 282.6889 302.7271 283.74541 301.86719 284.83398 C 301.00727 285.92256 300.18941 287.04393 299.41602 288.19727 A 2 2 0 0 0 299.11523 289.69922 A 2 2 0 0 0 299.96289 290.97266 A 2 2 0 0 0 301.46289 291.27344 A 2 2 0 0 0 302.73828 290.42578 C 303.40939 289.42499 304.11898 288.4504 304.86328 287.50391 C 305.60759 286.55742 306.38706 285.63898 307.19922 284.75 C 308.01138 283.86102 308.85581 283.00209 309.73047 282.17383 C 310.60513 281.34557 311.50959 280.54754 312.44141 279.7832 C 313.37323 279.01887 314.33277 278.28704 315.31641 277.58984 C 316.30004 276.89265 317.3078 276.23037 318.33789 275.60352 C 319.36799 274.97666 320.41902 274.38533 321.49023 273.83203 C 322.56145 273.27873 323.65278 272.76364 324.75977 272.28711 C 324.76 273.36525 324.85824 274.44331 325.07031 275.49805 C 325.28238 276.55279 325.60829 277.58422 326.06055 278.57031 C 326.55767 279.65424 327.18651 280.67465 327.92969 281.60547 C 328.67286 282.53629 329.53037 283.37753 330.48633 284.10156 C 331.16515 284.6157 331.89599 285.06919 332.66406 285.44922 C 333.43213 285.82925 334.23803 286.13513 335.06836 286.35742 C 335.89868 286.57971 336.75354 286.71883 337.61914 286.75977 C 338.48474 286.8007 339.36048 286.74413 340.23438 286.58008 C 341.10702 286.41626 341.96161 286.14591 342.77148 285.77148 C 343.58135 285.39706 344.34651 284.91854 345.04297 284.33594 C 345.74125 283.7518 346.35763 283.07077 346.86914 282.31445 C 347.38065 281.55814 347.78728 280.72654 348.0625 279.83789 C 348.28725 279.1122 348.41852 278.37357 348.46289 277.63672 C 348.50726 276.89987 348.46525 276.16463 348.3457 275.44336 C 348.22616 274.72209 348.0287 274.0149 347.76172 273.33594 C 347.49474 272.65697 347.15771 272.00641 346.75977 271.39648 C 346.36614 270.79319 345.91983 270.23725 345.43164 269.72852 C 344.94345 269.21978 344.41416 268.75912 343.85156 268.3457 C 343.28897 267.93228 342.69301 267.56541 342.07617 267.24805 C 341.45934 266.93069 340.82083 266.66196 340.16992 266.44141 C 339.52312 266.22224 338.86785 266.05087 338.20898 265.92188 C 337.55012 265.79288 336.88692 265.70694 336.22461 265.6582 C 334.89998 265.56074 333.5778 265.61322 332.29102 265.77734 C 331.70264 265.85244 331.14928 266.01625 330.57617 266.13281 C 330.97296 265.49427 331.41377 264.88305 331.9043 264.31836 C 332.39482 263.75367 332.93506 263.23549 333.5293 262.78516 C 334.23278 262.25203 334.99893 261.7964 335.80664 261.41992 C 336.61435 261.04344 337.46315 260.74653 338.33594 260.5332 C 339.20872 260.31988 340.10521 260.19014 341.00391 260.14648 C 341.9026 260.10282 342.80401 260.14483 343.68945 260.27734 C 344.57784 260.41029 345.45468 260.63105 346.30859 260.93164 C 347.16251 261.23223 347.99391 261.6129 348.78711 262.0625 C 349.58031 262.5121 350.33671 263.03136 351.04297 263.61133 C 351.74923 264.1913 352.40495 264.83172 352.99805 265.52344 C 353.56039 266.17929 354.07461 266.88663 354.55469 267.63477 C 355.03476 268.3829 355.48101 269.17213 355.9082 269.99023 C 356.76258 271.62643 357.54025 273.37996 358.35938 275.16211 C 358.77022 276.05598 359.19848 276.96694 359.66211 277.875 C 360.12574 278.78306 360.624 279.68735 361.17578 280.57031 C 361.72756 281.45327 362.33252 282.31423 363.00781 283.13281 C 363.68311 283.95139 364.4295 284.72845 365.26367 285.44336 C 366.12691 286.18318 367.06417 286.82898 368.05664 287.37305 C 369.04911 287.91711 370.09654 288.35931 371.17773 288.68945 C 372.25893 289.0196 373.37448 289.23788 374.50391 289.33594 C 375.63333 289.434 376.7769 289.41195 377.91406 289.25977 C 379.05445 289.10715 380.17152 288.82492 381.24219 288.42383 C 382.31286 288.02273 383.33643 287.5027 384.29102 286.87695 C 385.2456 286.25121 386.13171 285.51993 386.92383 284.69336 C 387.71595 283.86679 388.41477 282.94498 388.99805 281.94141 C 389.5784 280.94286 390.03794 279.8775 390.36523 278.77148 C 390.69253 277.66546 390.88758 276.51877 390.93945 275.35938 C 390.99136 274.19944 390.8991 273.03731 390.66602 271.90234 C 390.43294 270.76738 390.05903 269.65959 389.54688 268.61133 C 389.03447 267.56254 388.38864 266.58208 387.62891 265.69922 C 386.86917 264.81636 385.99552 264.03111 385.02734 263.36914 C 384.05866 262.70682 383.0057 262.17542 381.90039 261.79102 C 380.79508 261.40661 379.63742 261.1692 378.46094 261.0918 C 377.77031 261.04636 377.0747 261.05669 376.38477 261.125 C 375.69483 261.19331 375.01017 261.32015 374.33984 261.50391 C 373.66952 261.68766 373.01461 261.92955 372.38281 262.23047 C 371.75102 262.53139 371.14271 262.89076 370.56836 263.31055 C 369.9904 263.73297 369.4541 264.21248 368.9707 264.73828 C 368.48731 265.26409 368.05748 265.83583 367.6875 266.44727 C 367.31752 267.05871 367.00921 267.70934 366.77148 268.38867 C 366.53376 269.068 366.36593 269.77639 366.2793 270.50586 C 366.19372 271.22642 366.18946 271.95319 366.26562 272.66992 C 366.34179 273.38665 366.4982 274.09267 366.73242 274.77344 C 366.96664 275.4542 367.27936 276.10999 367.66797 276.72266 C 368.05657 277.33532 368.52123 277.90554 369.06055 278.41797 C 369.59621 278.92693 370.19433 279.36757 370.83984 279.72656 C 371.48536 280.08556 372.17828 280.36291 372.9043 280.54688 C 373.6314 280.73112 374.37873 280.8175 375.12695 280.80273 C 375.87517 280.78797 376.62428 280.67208 377.35156 280.45117 C 377.8592 280.29698 378.3464 280.09404 378.80859 279.84766 C 379.27079 279.60128 379.7084 279.3114 380.11328 278.98242 C 380.51816 278.65344 380.89086 278.28481 381.22656 277.88281 C 381.56227 277.48082 381.86057 277.0455 382.11523 276.58008 C 382.3699 276.11466 382.57685 275.62824 382.73438 275.12891 C 382.8919 274.62957 382.99987 274.11779 383.05859 273.59961 C 383.11731 273.08142 383.12572 272.55712 383.08398 272.03516 C 383.04225 271.5132 382.95049 270.99309 382.80664 270.48242 A 2 2 0 0 0 381.85938 269.2793 A 2 2 0 0 0 380.33984 269.09961 A 2 2 0 0 0 379.13672 270.04688 A 2 2 0 0 0 378.95703 271.56836 C 379.098 272.06878 379.13496 272.61462 379.07422 273.14844 C 379.01348 273.68226 378.85502 274.20407 378.60547 274.66016 C 378.35591 275.11624 378.00124 275.53168 377.58398 275.87109 C 377.16673 276.21051 376.68691 276.4739 376.18945 276.625 C 375.82642 276.73527 375.43938 276.79516 375.04883 276.80273 C 374.65827 276.81031 374.2642 276.76559 373.88672 276.66992 C 373.50814 276.57399 373.13549 276.42363 372.78516 276.22852 C 372.43483 276.0334 372.10682 275.79351 371.81641 275.51758 C 371.52965 275.24511 371.27623 274.92827 371.06055 274.58008 C 370.84486 274.23189 370.66732 273.8516 370.53125 273.45508 C 370.39518 273.05856 370.29986 272.64596 370.25195 272.22852 C 370.20405 271.81107 370.20315 271.3895 370.25195 270.97852 C 370.3024 270.55376 370.40506 270.13031 370.55273 269.7168 C 370.70041 269.30328 370.89325 268.90046 371.125 268.51758 C 371.35675 268.1347 371.62701 267.77036 371.92969 267.4375 C 372.23236 267.10464 372.56729 266.8025 372.92773 266.53906 C 373.29179 266.27298 373.68572 266.04165 374.10156 265.8457 C 374.5174 265.64975 374.95563 265.48832 375.40625 265.36523 C 376.30749 265.11907 377.26082 265.02224 378.19922 265.08398 C 379.0067 265.13711 379.81338 265.30354 380.58594 265.57227 C 381.35849 265.84099 382.09693 266.212 382.76953 266.67188 C 383.44265 267.1321 384.05867 267.68619 384.5957 268.31055 C 385.13273 268.9349 385.59077 269.62953 385.95117 270.36719 C 386.31183 271.10536 386.57897 271.8965 386.74609 272.70898 C 386.91322 273.52147 386.98033 274.35531 386.94336 275.18164 C 386.90636 276.00852 386.76448 276.83606 386.52734 277.63672 C 386.2902 278.43738 385.9578 279.21118 385.53906 279.93164 C 385.12325 280.64707 384.61421 281.31184 384.03125 281.91406 C 383.44829 282.51629 382.79174 283.05576 382.08398 283.51953 C 381.37623 283.9833 380.61638 284.37181 379.82617 284.67188 C 379.03597 284.97194 378.21507 285.1838 377.38477 285.29492 C 376.55124 285.40647 375.70201 285.42051 374.85547 285.34375 C 374.00892 285.26699 373.16541 285.10007 372.3457 284.84961 C 371.526 284.59914 370.72957 284.26502 369.97656 283.85547 C 369.22356 283.44592 368.51363 282.96027 367.86719 282.40625 C 367.23038 281.86049 366.64517 281.24754 366.09961 280.58008 C 365.55405 279.91262 365.04764 279.19115 364.57227 278.42969 C 363.62152 276.90676 362.79057 275.22301 361.99414 273.49023 C 361.19514 271.75188 360.40356 269.92361 359.46289 268.12305 C 358.99256 267.22276 358.48473 266.32916 357.91992 265.45703 C 357.35511 264.5849 356.73381 263.73476 356.03516 262.91992 C 355.28943 262.05019 354.46768 261.2456 353.58398 260.51758 C 352.70029 259.78956 351.75417 259.13863 350.75781 258.57422 C 349.76145 258.00981 348.71654 257.53123 347.63281 257.15234 C 346.54909 256.77345 345.42704 256.49373 344.28125 256.32227 C 343.13252 256.15035 341.96995 256.09138 340.8125 256.14453 z M 334.37109 269.61719 C 334.89392 269.60058 335.41321 269.61075 335.92578 269.64844 C 336.95093 269.72384 337.94915 269.91278 338.88672 270.23047 C 339.81607 270.54537 340.69719 271.00079 341.4707 271.56836 C 341.85746 271.85214 342.21723 272.16315 342.54297 272.5 C 342.86871 272.83685 343.16014 273.19884 343.41016 273.58203 C 343.65585 273.9586 343.8607 274.36386 344.02344 274.78516 C 344.18617 275.20645 344.30735 275.64396 344.38086 276.08398 C 344.45437 276.52401 344.48096 276.96764 344.45898 277.40039 C 344.43701 277.83314 344.36591 278.25481 344.24219 278.6543 C 344.08903 279.14882 343.85472 279.62881 343.55469 280.07227 C 343.25466 280.51572 342.88891 280.92263 342.47656 281.26758 C 342.06239 281.61405 341.59184 281.90738 341.08789 282.14062 C 340.58394 282.37387 340.04658 282.54705 339.49609 282.65039 C 338.94686 282.7535 338.37921 282.78696 337.80664 282.75586 C 337.23407 282.72476 336.65594 282.6296 336.08789 282.47656 C 335.51985 282.32353 334.96146 282.11231 334.42578 281.84961 C 333.89011 281.5869 333.3778 281.27222 332.90234 280.91211 C 332.21868 280.3943 331.59691 279.784 331.05664 279.10742 C 330.51637 278.43085 330.05759 277.688 329.69727 276.90234 C 329.33667 276.11612 329.07225 275.28053 328.90625 274.42383 C 328.74025 273.56713 328.67268 272.68931 328.70898 271.81836 C 328.72298 271.48127 328.82696 271.15198 328.87305 270.81641 C 329.5277 270.61323 330.18176 270.38592 330.83594 270.18945 C 331.49011 269.99299 332.1444 269.82736 332.79688 269.74414 C 333.3219 269.67718 333.84827 269.63379 334.37109 269.61719 z " />
    <path
       id="path5358"
       style="fill:#f27fff;fill-opacity:1;stroke:none;stroke-width:16;stroke-linecap:round;stroke-linejoin:round;stroke-dasharray:none;stroke-opacity:1;paint-order:fill markers stroke"
       d="M 276.00781 253.04102 C 275.0338 253.03159 274.0605 253.08515 273.09375 253.20117 C 272.127 253.31719 271.1669 253.49658 270.22266 253.73633 C 269.27841 253.97608 268.34985 254.27691 267.44336 254.63867 C 266.53686 255.00044 265.65233 255.42222 264.79883 255.9043 C 263.49824 256.63888 262.27922 257.50584 261.16016 258.48242 C 260.04109 259.459 259.02179 260.54499 258.11719 261.7207 C 257.21258 262.89642 256.42284 264.16217 255.76562 265.49414 C 255.10841 266.82612 254.58392 268.22456 254.20703 269.66992 A 2 2 0 0 0 254.41602 271.18555 A 2 2 0 0 0 255.63672 272.10938 A 2 2 0 0 0 257.15234 271.90039 A 2 2 0 0 0 258.07617 270.67969 C 258.38226 269.50584 258.81529 268.36191 259.35742 267.26953 C 259.89955 266.17715 260.55104 265.13698 261.29688 264.16797 C 262.04271 263.19896 262.88161 262.30179 263.79883 261.49805 C 264.71604 260.6943 265.71131 259.98331 266.76758 259.38672 C 267.82384 258.79013 268.94577 258.30594 270.10742 257.93555 C 271.26908 257.56515 272.47092 257.30817 273.68555 257.16992 C 274.90018 257.03168 276.12856 257.01147 277.34375 257.11133 C 278.55894 257.21118 279.76049 257.43149 280.92383 257.77539 C 282.08716 258.1193 283.21675 258.58896 284.29102 259.16602 C 285.36528 259.74307 286.38375 260.42846 287.32812 261.20508 C 288.2725 261.9817 289.14236 262.84841 289.91602 263.79102 C 290.68967 264.73362 291.36758 265.75116 291.92969 266.82617 C 292.49179 267.90119 292.94084 269.03789 293.27344 270.21094 C 293.60604 271.38399 293.82302 272.59401 293.92188 273.8125 C 294.02073 275.03099 294.00046 276.25936 293.86133 277.4707 C 293.7222 278.68204 293.46339 279.87575 293.08203 281.02734 C 292.85658 281.70814 292.5873 282.37452 292.27734 283.02344 C 291.96738 283.67236 291.6172 284.30462 291.23047 284.91406 C 290.84374 285.5235 290.42061 286.11147 289.96484 286.67383 C 289.50908 287.23618 289.02096 287.77163 288.50391 288.2793 C 287.98685 288.78696 287.43975 289.26557 286.86914 289.71094 C 286.29853 290.15631 285.70431 290.56984 285.08789 290.94531 C 284.47147 291.32078 283.83419 291.65907 283.17969 291.95703 C 282.52519 292.255 281.8528 292.51176 281.16797 292.72461 C 280.48313 292.93746 279.78431 293.10683 279.07617 293.23242 C 278.36804 293.35802 277.65042 293.44027 276.92969 293.48047 C 276.20895 293.52067 275.48435 293.51795 274.76172 293.47461 C 274.03909 293.43127 273.3193 293.34766 272.60547 293.22266 C 271.89163 293.09765 271.18457 292.93137 270.49023 292.72656 C 269.7959 292.52175 269.11336 292.27689 268.44922 291.99414 C 267.78508 291.71139 267.13886 291.39008 266.51562 291.03125 C 265.89239 290.67242 265.29235 290.2768 264.7207 289.84375 A 2 2 0 0 0 263.23828 289.45703 A 2 2 0 0 0 261.91797 290.23047 A 2 2 0 0 0 261.53125 291.71094 A 2 2 0 0 0 262.30469 293.03125 C 263.01114 293.56642 263.74908 294.05586 264.51172 294.49805 C 265.27436 294.94023 266.06137 295.33439 266.86914 295.68164 C 267.67691 296.02889 268.50387 296.3297 269.3457 296.58008 C 270.18754 296.83046 271.0453 297.03202 271.91016 297.18359 C 272.77501 297.33517 273.64858 297.4355 274.52539 297.48633 C 275.4022 297.53715 276.28245 297.53819 277.16016 297.48633 C 278.03787 297.43447 278.91174 297.33032 279.7793 297.17383 C 280.64685 297.01734 281.50718 296.80797 282.35352 296.54492 C 283.19985 296.28187 284.02665 295.96639 284.83008 295.60352 C 285.6335 295.24064 286.41352 294.82983 287.16602 294.375 C 287.91851 293.92017 288.64434 293.42173 289.33789 292.88281 C 290.03145 292.3439 290.69372 291.76553 291.32031 291.15039 C 291.94691 290.53525 292.53627 289.88271 293.08789 289.19922 C 293.63952 288.51573 294.15246 287.80061 294.62109 287.05664 C 295.08973 286.31267 295.51494 285.54073 295.89258 284.74414 C 296.27021 283.94755 296.60029 283.1265 296.87891 282.28516 C 297.34847 280.86719 297.66912 279.40691 297.8418 277.93164 C 298.01448 276.45637 298.03982 274.96693 297.91992 273.48828 C 297.80002 272.00963 297.53512 270.5414 297.12695 269.11328 C 296.71879 267.68516 296.16673 266.29632 295.47461 264.97266 C 294.78249 263.64899 293.95552 262.40413 293.01562 261.25391 C 292.07573 260.10368 291.02282 259.04784 289.87695 258.10547 C 288.73109 257.1631 287.49363 256.33293 286.18359 255.63281 C 284.87355 254.9327 283.49101 254.36291 282.05859 253.93945 C 280.62619 253.516 279.15592 253.2439 277.67578 253.11914 C 277.12073 253.07236 276.56439 253.0464 276.00781 253.04102 z " />
    <path
       id="path5354"
       style="fill:#f27fff;fill-opacity:1;stroke:none;stroke-width:16;stroke-linecap:round;stroke-linejoin:round;stroke-dasharray:none;stroke-opacity:1;paint-order:fill markers stroke"
       d="M 153.31055 246.51367 C 152.29488 246.54547 151.28062 246.68234 150.28516 246.92773 C 149.28945 247.17319 148.32656 247.52407 147.41211 247.96875 C 146.49766 248.41343 145.63074 248.95152 144.82812 249.57227 C 144.02551 250.19301 143.28715 250.89627 142.62695 251.66992 C 141.96676 252.44357 141.38562 253.28802 140.89844 254.19141 C 140.41113 255.09501 140.02569 256.04594 139.74219 257.02344 C 139.45869 258.00094 139.27748 259.00493 139.20117 260.01758 C 139.12486 261.03023 139.15285 262.0515 139.28711 263.06055 C 139.42137 264.06959 139.66155 265.06651 140.00977 266.0332 C 140.38972 267.08803 140.89529 268.10394 141.52539 269.04492 C 142.15549 269.9859 142.91012 270.85196 143.78516 271.60547 C 144.22431 271.98364 144.69078 272.3315 145.18164 272.64258 C 145.6725 272.95365 146.18688 273.22809 146.7207 273.46289 C 147.25453 273.69769 147.80891 273.89167 148.37695 274.04102 C 148.94499 274.19036 149.52758 274.29491 150.12109 274.34961 C 150.71759 274.40458 151.31756 274.4078 151.91406 274.35938 C 152.51057 274.31095 153.10378 274.21122 153.68359 274.05859 C 154.26341 273.90597 154.83052 273.70098 155.37695 273.44336 C 155.92338 273.18574 156.44897 272.87513 156.94531 272.51172 C 157.44482 272.14599 157.9053 271.73071 158.32031 271.27539 C 158.73532 270.82007 159.10471 270.32431 159.41992 269.79492 C 159.73513 269.26553 159.99715 268.70318 160.19727 268.11523 C 160.39738 267.52729 160.53575 266.91418 160.60547 266.2832 C 160.68193 265.59114 160.67237 264.89997 160.58203 264.22266 C 160.49169 263.54534 160.32014 262.88163 160.07422 262.24805 C 159.82829 261.61446 159.50748 261.01008 159.11719 260.44922 C 158.7269 259.88836 158.26757 259.37126 157.74414 258.91211 C 157.22071 258.45296 156.64818 258.06392 156.04102 257.75 C 155.43385 257.43608 154.7914 257.19648 154.13086 257.03516 C 153.47032 256.87383 152.79097 256.79237 152.10742 256.79102 C 151.42387 256.78966 150.73675 256.86918 150.06055 257.03516 A 2 2 0 0 0 148.82812 257.94141 A 2 2 0 0 0 148.5957 259.45312 A 2 2 0 0 0 149.50195 260.6875 A 2 2 0 0 0 151.01562 260.91992 C 151.35903 260.83563 151.71924 260.79783 152.08398 260.80273 C 152.44873 260.80763 152.81881 260.85582 153.17773 260.94336 C 153.53666 261.0309 153.88499 261.15669 154.21094 261.32031 C 154.53689 261.48394 154.83965 261.68481 155.10547 261.91797 C 155.37129 262.15114 155.60947 262.42463 155.81445 262.72656 C 156.01943 263.02849 156.19029 263.35856 156.32422 263.70312 C 156.45815 264.04769 156.55477 264.40651 156.60742 264.76758 C 156.66008 265.12865 156.66969 265.49229 156.63086 265.84375 C 156.55879 266.49602 156.32422 267.15233 155.96875 267.74805 C 155.61328 268.34377 155.1369 268.8789 154.58203 269.28516 C 154.02083 269.69605 153.36015 269.99911 152.6582 270.18359 C 151.95625 270.36808 151.21302 270.43398 150.48828 270.36719 C 149.75759 270.29984 149.02558 270.10124 148.33008 269.79492 C 147.63457 269.4886 146.97557 269.07456 146.39453 268.57422 C 145.81021 268.07105 145.29062 267.47547 144.84961 266.81641 C 144.40859 266.15735 144.04615 265.43481 143.77344 264.67773 C 143.52564 263.98983 143.35439 263.26985 143.25977 262.53711 C 143.16514 261.80436 143.14748 261.05879 143.20312 260.31836 C 143.25877 259.57793 143.38878 258.84377 143.5918 258.13281 C 143.79481 257.42186 144.07049 256.73417 144.41797 256.08984 C 144.76556 255.4453 145.18743 254.83634 145.66992 254.27539 C 146.15241 253.71444 146.69504 253.201 147.2832 252.74609 C 147.87137 252.29119 148.5053 251.89478 149.16992 251.56836 C 149.83454 251.24194 150.53033 250.98603 151.24219 250.81055 C 151.95428 250.635 152.68906 250.53788 153.42969 250.51758 C 154.17031 250.49728 154.91705 250.55315 155.65039 250.68164 C 156.38374 250.81013 157.10466 251.01238 157.79492 251.2832 C 158.48518 251.55403 159.1445 251.89408 159.75586 252.30078 C 160.36742 252.70762 160.93618 253.18493 161.45312 253.7168 C 161.97007 254.24867 162.43478 254.83421 162.83789 255.46094 C 163.241 256.08766 163.58346 256.75586 163.85352 257.44727 C 164.12358 258.13867 164.32166 258.85418 164.43945 259.58008 C 164.59796 260.55682 164.6219 261.56763 164.52734 262.58203 C 164.43279 263.59643 164.21972 264.61442 163.9043 265.60547 C 163.58792 266.59955 163.16999 267.57225 162.67188 268.51953 C 162.17376 269.46681 161.59544 270.38867 160.95898 271.2793 C 160.25144 272.2694 159.47702 273.21316 158.64453 274.10352 C 157.81205 274.99387 156.92106 275.83083 155.98047 276.60742 C 155.03988 277.38401 154.04943 278.10118 153.01758 278.75 C 151.98573 279.39882 150.91291 279.97929 149.80664 280.48633 C 148.70037 280.99337 147.55953 281.4269 146.39453 281.78516 C 145.22953 282.14341 144.04008 282.42705 142.83789 282.63281 C 141.6357 282.83857 140.42095 282.96607 139.20312 283.01562 C 137.9853 283.06518 136.76466 283.03613 135.55273 282.92578 A 2 2 0 0 0 134.08984 283.38086 A 2 2 0 0 0 133.37891 284.73633 A 2 2 0 0 0 133.83398 286.19727 A 2 2 0 0 0 135.18945 286.9082 C 136.57798 287.03464 137.97247 287.06953 139.36328 287.01367 C 140.75409 286.95781 142.14032 286.81069 143.51172 286.57617 C 144.88311 286.34165 146.24003 286.01892 147.57031 285.60938 C 148.9006 285.19983 150.20517 284.70397 151.47266 284.12305 C 152.74013 283.54212 153.96758 282.87717 155.14648 282.13672 C 156.32539 281.39627 157.45606 280.58118 158.5293 279.69531 C 159.60254 278.80944 160.61787 277.85312 161.56836 276.83594 C 162.51885 275.81876 163.40419 274.73985 164.21484 273.60547 C 165.14484 272.30408 165.98922 270.9111 166.68555 269.42773 A 2 2 0 0 0 167.05078 268.97656 C 167.85842 267.43505 168.80245 265.96301 169.86523 264.58008 C 170.92802 263.19714 172.10935 261.90341 173.38867 260.71484 C 174.66799 259.52627 176.04666 258.44279 177.50391 257.48438 C 178.96115 256.52596 180.49719 255.69248 182.09375 255 C 182.71174 254.73196 183.32487 254.49197 183.93164 254.29297 C 184.53841 254.09397 185.13881 253.93597 185.73242 253.83398 C 186.32253 253.7326 186.91118 253.68759 187.47852 253.70508 C 188.04585 253.72257 188.59186 253.80257 189.09961 253.95117 C 189.56446 254.08722 190.01627 254.2876 190.43555 254.54102 C 190.85483 254.79443 191.24159 255.10089 191.57812 255.44922 C 191.91467 255.79754 192.20837 256.19561 192.44727 256.62305 C 192.68616 257.05049 192.87025 257.50731 192.99023 257.97656 C 193.11022 258.44581 193.1684 258.93575 193.16406 259.42578 C 193.15973 259.91581 193.09289 260.40593 192.96484 260.87305 C 192.83681 261.34017 192.64458 261.79518 192.39844 262.21875 C 192.1523 262.64232 191.85225 263.03447 191.50977 263.37695 C 191.16728 263.71944 190.77514 264.01949 190.35156 264.26562 C 189.92799 264.51176 189.47298 264.704 189.00586 264.83203 C 188.53874 264.96007 188.04862 265.02692 187.55859 265.03125 C 187.06857 265.03558 186.57862 264.97741 186.10938 264.85742 C 185.64013 264.73744 185.1833 264.55335 184.75586 264.31445 C 184.32842 264.07556 183.93036 263.78186 183.58203 263.44531 C 183.23371 263.10877 182.92725 262.72201 182.67383 262.30273 C 182.42041 261.88345 182.22003 261.43164 182.08398 260.9668 A 2 2 0 0 0 181.125 259.77344 A 2 2 0 0 0 179.60156 259.60938 A 2 2 0 0 0 178.41016 260.56836 A 2 2 0 0 0 178.24414 262.08984 C 178.47928 262.89325 178.81768 263.66121 179.24805 264.37305 C 179.67841 265.08489 180.20073 265.74061 180.80273 266.32227 C 181.40475 266.90392 182.07884 267.40331 182.80469 267.80859 C 183.53053 268.21387 184.30813 268.52505 185.11914 268.73242 C 185.93015 268.9398 186.76249 269.04046 187.59375 269.0332 C 188.42501 269.02594 189.25518 268.91076 190.0625 268.68945 C 190.86982 268.46817 191.64229 268.1424 192.36133 267.72461 C 193.08036 267.30682 193.74597 266.797 194.33789 266.20508 C 194.92982 265.61315 195.43963 264.94755 195.85742 264.22852 C 196.27521 263.50948 196.60098 262.73701 196.82227 261.92969 C 197.04355 261.12236 197.15876 260.29219 197.16602 259.46094 C 197.17327 258.62968 197.07259 257.79734 196.86523 256.98633 C 196.65786 256.17532 196.34668 255.39772 195.94141 254.67188 C 195.53613 253.94603 195.03674 253.27193 194.45508 252.66992 C 193.87342 252.06791 193.2177 251.5456 192.50586 251.11523 C 191.79402 250.68487 191.02605 250.34646 190.22266 250.11133 C 189.35223 249.85658 188.47356 249.73163 187.60547 249.70508 C 186.73738 249.67848 185.87984 249.75078 185.05469 249.89258 C 184.23305 250.03374 183.44542 250.24199 182.6875 250.49023 C 181.92958 250.73848 181.20137 251.02672 180.50195 251.33008 C 179.36162 251.82468 178.24938 252.38172 177.17188 252.99609 C 176.09437 253.61047 175.05196 254.28281 174.04688 255.00781 C 173.04179 255.73282 172.07543 256.50944 171.15234 257.33594 C 170.22926 258.16243 169.34908 259.03818 168.51758 259.95703 C 168.48602 259.61769 168.44369 259.27851 168.38867 258.93945 C 168.22476 257.92939 167.95579 256.94278 167.58984 255.99609 C 167.2239 255.04941 166.76098 254.14278 166.21289 253.29102 C 165.6648 252.43925 165.03066 251.64325 164.32031 250.91797 C 163.60997 250.19268 162.82341 249.53796 161.9707 248.9707 C 161.33103 248.54516 160.66058 248.17305 159.9668 247.85547 C 159.27301 247.53788 158.55638 247.27506 157.82422 247.06836 C 157.09206 246.86166 156.34466 246.71008 155.58984 246.61719 C 154.83503 246.52429 154.07229 246.48983 153.31055 246.51367 z " />
    <path
       id="path5350"
       style="fill:#f27fff;fill-opacity:1;stroke:none;stroke-width:16;stroke-linecap:round;stroke-linejoin:round;stroke-dasharray:none;stroke-opacity:1;paint-order:fill markers stroke"
       d="M 435.71484 242.54688 C 434.91402 242.53425 434.11573 242.59932 433.33203 242.73828 C 432.54833 242.87724 431.77958 243.08935 431.03711 243.37305 C 430.29464 243.65675 429.57752 244.01201 428.90039 244.43359 C 428.22326 244.85518 427.58573 245.34385 426.99805 245.89648 C 426.20213 246.64492 425.51319 247.49649 424.94727 248.42383 C 424.38134 249.35116 423.93844 250.35425 423.63672 251.4043 C 423.33499 252.45434 423.17697 253.53892 423.16406 254.625 C 423.15116 255.71108 423.28337 256.79868 423.56055 257.85547 C 423.83774 258.91225 424.25654 259.92513 424.80078 260.86523 C 425.34502 261.80534 426.0147 262.67269 426.79297 263.43945 C 427.57123 264.20622 428.45 264.86252 429.39844 265.39258 C 430.34687 265.92264 431.36499 266.32646 432.42578 266.58789 A 2 2 0 0 0 433.93945 266.35742 A 2 2 0 0 0 434.8457 265.125 A 2 2 0 0 0 434.88086 264.3457 A 2 2 0 0 0 434.61523 263.61133 A 2 2 0 0 0 434.08984 263.03516 A 2 2 0 0 0 433.38281 262.70508 C 432.67726 262.5312 431.98961 262.25823 431.34961 261.90039 C 430.70961 261.54255 430.11724 261.09983 429.59961 260.58984 C 429.08197 260.07986 428.63261 259.49366 428.26562 258.85938 C 427.89864 258.22509 427.61405 257.54273 427.42969 256.83984 C 427.24532 256.13697 427.1574 255.40261 427.16602 254.66992 C 427.17463 253.93723 427.27977 253.20621 427.48047 252.50781 C 427.68115 251.80941 427.98134 251.13308 428.36328 250.50781 C 428.74522 249.88255 429.20891 249.30834 429.73828 248.81055 C 430.12596 248.44599 430.55463 248.11916 431.01367 247.83594 C 431.47272 247.55272 431.96283 247.31308 432.4707 247.11914 C 432.97857 246.9252 433.50492 246.77835 434.03906 246.68164 C 434.57321 246.58493 435.11447 246.5384 435.65234 246.54688 C 436.19156 246.55537 436.73341 246.61808 437.26758 246.73047 C 437.80175 246.84286 438.32868 247.00548 438.83789 247.21289 C 439.3471 247.4203 439.8384 247.67324 440.30273 247.9668 C 440.76706 248.26036 441.20398 248.594 441.60352 248.96484 C 442.00393 249.33652 442.37094 249.74709 442.70117 250.18945 C 443.03141 250.63181 443.3243 251.1063 443.57617 251.60156 C 443.82804 252.09682 444.03975 252.61417 444.20508 253.14453 C 444.37041 253.6749 444.48994 254.21795 444.56055 254.76562 C 444.63129 255.3144 444.65281 255.87184 444.62891 256.42969 C 444.605 256.98753 444.53609 257.54579 444.42188 258.0957 C 444.30766 258.64561 444.14942 259.18792 443.94922 259.71289 C 443.74902 260.23786 443.50645 260.74548 443.22461 261.22852 C 442.93211 261.72981 442.59327 262.21272 442.2168 262.68164 C 441.84033 263.15056 441.42597 263.60624 440.98242 264.05078 C 440.09532 264.93986 439.0912 265.78745 438.03711 266.62695 C 436.60608 267.76665 435.14288 268.86431 433.64844 269.91992 C 432.15399 270.97554 430.6286 271.99002 429.07617 272.95898 C 427.52374 273.92795 425.94287 274.85268 424.33789 275.73242 C 422.73291 276.61216 421.10327 277.44643 419.45117 278.23438 C 417.79907 279.02232 416.12543 279.76345 414.43164 280.45703 C 412.73786 281.15061 411.02496 281.79594 409.29492 282.39258 C 407.56488 282.98922 405.8175 283.53607 404.05664 284.0332 C 402.29578 284.53033 400.52063 284.978 398.73438 285.37305 A 2 2 0 0 0 397.48047 286.25 A 2 2 0 0 0 397.21484 287.75781 A 2 2 0 0 0 398.0918 289.01172 A 2 2 0 0 0 399.59961 289.2793 C 401.46114 288.8676 403.31027 288.4025 405.14453 287.88477 C 406.9788 287.36703 408.79804 286.79697 410.59961 286.17578 C 412.40118 285.55459 414.18577 284.88222 415.94922 284.16016 C 417.71266 283.43809 419.4559 282.66606 421.17578 281.8457 C 422.89567 281.02535 424.59082 280.15631 426.26172 279.24023 C 427.93262 278.32416 429.57884 277.36077 431.19531 276.35156 C 432.81179 275.34236 434.39846 274.28726 435.95508 273.1875 C 437.5117 272.08774 439.03796 270.94359 440.5293 269.75586 C 441.0638 269.33017 441.6048 268.88736 442.14258 268.42578 A 2 2 0 0 0 443.15039 267.99414 C 443.67238 267.5376 444.23054 267.11974 444.81836 266.74609 C 445.40618 266.37245 446.02457 266.04335 446.66211 265.75977 C 447.29964 265.47618 447.95777 265.23909 448.62891 265.05273 C 449.30004 264.86637 449.98327 264.73041 450.67188 264.64844 C 451.36048 264.56646 452.05788 264.53891 452.75391 264.5625 C 453.44993 264.58609 454.14391 264.66113 454.83008 264.78711 C 455.51624 264.91308 456.1945 265.08926 456.85352 265.31445 C 457.51253 265.53965 458.153 265.81353 458.76758 266.13477 C 459.7717 266.65961 460.71105 267.31364 461.54688 268.07031 C 462.3827 268.82699 463.11501 269.68632 463.70703 270.625 C 464.29747 271.56118 464.75052 272.58735 465.04688 273.65039 C 465.19505 274.18191 465.30428 274.72241 465.37109 275.26562 C 465.43791 275.80884 465.46313 276.35491 465.44336 276.89648 C 465.42366 277.4362 465.35841 277.97674 465.25 278.50781 C 465.14159 279.03888 464.99086 279.56124 464.79883 280.06641 C 464.6068 280.57157 464.37408 281.0595 464.10352 281.52148 C 463.83295 281.98347 463.5237 282.41877 463.17969 282.82031 C 462.83717 283.22012 462.45557 283.58972 462.04297 283.92188 C 461.63037 284.25403 461.18682 284.54967 460.72266 284.80273 C 460.25849 285.0558 459.77261 285.26519 459.27539 285.42773 C 458.77817 285.59028 458.26958 285.70505 457.75781 285.76562 C 457.05918 285.84833 456.34491 285.83536 455.64453 285.73047 C 454.94415 285.62558 454.25766 285.42878 453.61719 285.14453 C 452.97702 284.8604 452.37255 284.48365 451.82812 284.03516 C 451.2837 283.58666 450.79932 283.06642 450.40039 282.49414 C 450.00166 281.92214 449.68118 281.28863 449.45117 280.625 C 449.22116 279.96137 449.08162 279.26761 449.04297 278.57422 C 449.00432 277.88117 449.06534 277.17655 449.2207 276.49414 C 449.37606 275.81173 449.62576 275.15152 449.96094 274.54688 C 450.22587 274.06895 450.54644 273.62272 450.91016 273.22266 C 451.27387 272.82259 451.68073 272.46869 452.11914 272.17773 C 452.55579 271.88796 453.03191 271.65539 453.52539 271.49023 C 454.01887 271.32508 454.52972 271.22734 455.0332 271.20508 C 455.53403 271.18293 456.04259 271.23765 456.52734 271.36133 C 457.0121 271.48501 457.47306 271.67765 457.88086 271.93359 C 458.28591 272.18782 458.6515 272.51481 458.95508 272.88672 C 459.25865 273.25863 459.50021 273.67547 459.6543 274.10742 C 459.8102 274.54447 459.87885 275.0207 459.86328 275.48242 C 459.84771 275.94414 459.7479 276.39135 459.56641 276.77344 C 459.39009 277.14462 459.11211 277.48288 458.78711 277.74805 C 458.46211 278.01322 458.0901 278.20531 457.72656 278.28125 C 457.40842 278.34771 457.05329 278.33515 456.71289 278.25586 C 456.37249 278.17657 456.04682 278.03056 455.79102 277.83008 C 455.53521 277.62958 455.31502 277.34866 455.15625 277.03711 C 454.99748 276.72556 454.90015 276.3834 454.88867 276.05859 A 2 2 0 0 0 454.25391 274.66602 A 2 2 0 0 0 452.82031 274.12891 A 2 2 0 0 0 451.42773 274.76562 A 2 2 0 0 0 450.89258 276.19922 C 450.90915 276.66864 450.97644 277.12869 451.0918 277.57422 C 451.20716 278.01974 451.37098 278.44981 451.57812 278.85742 C 451.78527 279.26504 452.0362 279.65212 452.32812 280.00781 C 452.62005 280.36351 452.95257 280.68876 453.32227 280.97852 C 453.69196 281.26827 454.08865 281.51429 454.50391 281.71289 C 454.91916 281.91149 455.35337 282.0621 455.79883 282.16602 C 456.24429 282.26993 456.69985 282.32633 457.16016 282.33203 C 457.62046 282.33773 458.08513 282.29331 458.54492 282.19727 C 459.06614 282.08839 459.5619 281.91872 460.02539 281.69531 C 460.48889 281.4719 460.92041 281.19563 461.31445 280.875 C 461.7085 280.55437 462.06408 280.18763 462.37695 279.78711 C 462.68983 279.38658 462.95971 278.95139 463.17969 278.48828 C 463.39707 278.03063 463.56146 277.55753 463.67578 277.07812 C 463.79011 276.59872 463.85458 276.11364 463.87109 275.62695 C 463.88761 275.14026 463.85729 274.65335 463.78125 274.17383 C 463.70521 273.69431 463.58326 273.22156 463.41992 272.76367 C 463.10439 271.87915 462.64048 271.06878 462.06055 270.35742 C 461.48062 269.64607 460.78467 269.03373 460.00586 268.54492 C 459.22979 268.05784 458.39069 267.70454 457.52148 267.48242 C 456.65228 267.26031 455.75295 267.16938 454.85742 267.20898 C 453.96455 267.24848 453.09186 267.41532 452.25977 267.69336 C 451.42767 267.9714 450.63616 268.36065 449.9082 268.84375 C 449.18202 269.32567 448.52778 269.89499 447.95117 270.5293 C 447.37457 271.1636 446.87561 271.86289 446.46289 272.60742 C 445.94015 273.55045 445.55615 274.56035 445.31836 275.60352 C 445.08057 276.64668 444.98897 277.72311 445.04883 278.79688 C 445.10866 279.87029 445.3206 280.92577 445.66992 281.93359 C 446.01924 282.94141 446.50594 283.90159 447.11914 284.78125 C 447.73215 285.66064 448.46202 286.4484 449.2832 287.125 C 450.10439 287.8016 451.0169 288.36705 451.99414 288.80078 C 452.97108 289.23438 454.00108 289.53215 455.05078 289.68945 C 456.10048 289.84676 457.16987 289.86361 458.22852 289.73828 C 459.00855 289.64594 459.77186 289.47649 460.50977 289.23828 C 461.24767 289.00007 461.96085 288.69367 462.63867 288.32422 C 463.31649 287.95477 463.95881 287.52318 464.55859 287.03711 C 465.15838 286.55104 465.71495 286.00993 466.21875 285.42188 C 466.72106 284.83556 467.16706 284.20866 467.55469 283.55078 C 467.94232 282.8929 468.2707 282.20486 468.54102 281.49414 C 468.81133 280.78342 469.02347 280.04953 469.17383 279.30469 C 469.32419 278.55984 469.41365 277.80322 469.44141 277.04297 C 469.4691 276.28459 469.43637 275.52948 469.3457 274.7832 C 469.25503 274.03693 469.10549 273.29933 468.9043 272.57812 C 468.70311 271.85692 468.45036 271.15192 468.14648 270.46875 C 467.84261 269.78558 467.48856 269.12437 467.08984 268.49219 C 466.69192 267.86126 466.25112 267.26261 465.77344 266.69727 C 465.29575 266.13192 464.78079 265.60049 464.23438 265.10547 C 463.68796 264.61045 463.10997 264.15043 462.50586 263.73047 C 461.90174 263.31051 461.27187 262.93 460.62109 262.58984 C 459.8241 262.17326 458.99781 261.81794 458.15039 261.52734 C 457.30297 261.23675 456.43492 261.01105 455.55469 260.84961 C 454.67445 260.68816 453.78214 260.59164 452.88672 260.5625 C 451.99129 260.53336 451.09222 260.57142 450.19922 260.67773 C 449.34573 260.77934 448.5027 260.94532 447.67578 261.16797 C 448.09722 260.07575 448.38589 258.93354 448.53125 257.77148 C 448.67661 256.60943 448.67865 255.42753 448.52734 254.25391 C 448.42676 253.47371 448.25872 252.70552 448.02734 251.95703 C 447.79597 251.20854 447.50151 250.479 447.14648 249.78125 C 446.79146 249.0835 446.37582 248.41704 445.9043 247.78906 C 445.43277 247.16109 444.90509 246.57238 444.32422 246.0332 C 443.74246 245.49321 443.11363 245.00814 442.44727 244.58398 C 441.7809 244.15983 441.07656 243.79569 440.3457 243.49805 C 439.61484 243.20041 438.85726 242.96905 438.08203 242.80859 C 437.3068 242.64814 436.51433 242.55948 435.71484 242.54688 z " />
    <rect
       style="fill:#64ee7d;fill-opacity:1;stroke:none;stroke-width:16;stroke-linecap:round;stroke-linejoin:round;stroke-dasharray:none;stroke-opacity:1;paint-order:fill markers stroke"
       id="rect2121-2"
       width="479.68106"
       height="85.616837"
       x="16.15947"
       y="213.19159" />
    <g
       id="g5371"
       style="fill:#ffffff;fill-opacity:1">
      <path
         id="path5360"
         style="fill:#ffffff;fill-opacity:1;stroke:none;stroke-width:16;stroke-linecap:round;stroke-linejoin:round;stroke-dasharray:none;stroke-opacity:1;paint-order:fill markers stroke"
         d="m 340.8125,256.14453 c 1.15745,-0.0531 2.32002,0.006 3.46875,0.17774 1.14579,0.17146 2.26784,0.45118 3.35156,0.83007 1.08373,0.37889 2.12864,0.85747 3.125,1.42188 0.99636,0.56441 1.94248,1.21534 2.82617,1.94336 0.8837,0.72802 1.70545,1.53261 2.45118,2.40234 0.69865,0.81484 1.31995,1.66498 1.88476,2.53711 0.56481,0.87213 1.07264,1.76573 1.54297,2.66602 0.94067,1.80056 1.73225,3.62883 2.53125,5.36718 0.79643,1.73278 1.62738,3.41653 2.57813,4.93946 0.47537,0.76146 0.98178,1.48293 1.52734,2.15039 0.54556,0.66746 1.13077,1.28041 1.76758,1.82617 0.64644,0.55402 1.35637,1.03967 2.10937,1.44922 0.75301,0.40955 1.54944,0.74367 2.36914,0.99414 0.81971,0.25046 1.66322,0.41738 2.50977,0.49414 0.84654,0.0768 1.69577,0.0627 2.5293,-0.0488 0.8303,-0.11112 1.6512,-0.32298 2.4414,-0.62304 0.79021,-0.30007 1.55006,-0.68858 2.25781,-1.15235 0.70776,-0.46377 1.36431,-1.00324 1.94727,-1.60547 0.58296,-0.60222 1.092,-1.26699 1.50781,-1.98242 0.41874,-0.72046 0.75114,-1.49426 0.98828,-2.29492 0.23714,-0.80066 0.37902,-1.6282 0.41602,-2.45508 0.037,-0.82633 -0.0301,-1.66017 -0.19727,-2.47266 -0.16712,-0.81248 -0.43426,-1.60362 -0.79492,-2.34179 -0.3604,-0.73766 -0.81844,-1.43229 -1.35547,-2.05664 -0.53703,-0.62436 -1.15305,-1.17845 -1.82617,-1.63867 -0.6726,-0.45988 -1.41104,-0.83089 -2.18359,-1.09961 -0.77256,-0.26873 -1.57924,-0.43516 -2.38672,-0.48829 -0.9384,-0.0617 -1.89173,0.0351 -2.79297,0.28125 -0.45062,0.12309 -0.88885,0.28452 -1.30469,0.48047 -0.41584,0.19595 -0.80977,0.42728 -1.17383,0.69336 -0.36044,0.26344 -0.69537,0.56558 -0.99804,0.89844 -0.30268,0.33286 -0.57294,0.6972 -0.80469,1.08008 -0.23175,0.38288 -0.42459,0.7857 -0.57227,1.19922 -0.14767,0.41351 -0.25033,0.83696 -0.30078,1.26172 -0.0488,0.41098 -0.0479,0.83255 0,1.25 0.0479,0.41744 0.14323,0.83004 0.2793,1.22656 0.13607,0.39652 0.31361,0.77681 0.5293,1.125 0.21568,0.34819 0.4691,0.66503 0.75586,0.9375 0.29041,0.27593 0.61842,0.51582 0.96875,0.71094 0.35033,0.19511 0.72298,0.34547 1.10156,0.4414 0.37748,0.0957 0.77155,0.14039 1.16211,0.13281 0.39055,-0.008 0.77759,-0.0675 1.14062,-0.17773 0.49746,-0.1511 0.97728,-0.41449 1.39453,-0.75391 0.41726,-0.33941 0.77193,-0.75485 1.02149,-1.21093 0.24955,-0.45609 0.40801,-0.9779 0.46875,-1.51172 0.0607,-0.53382 0.0238,-1.07966 -0.11719,-1.58008 a 2,2 0 0 1 0.17969,-1.52148 2,2 0 0 1 1.20312,-0.94727 2,2 0 0 1 1.51954,0.17969 2,2 0 0 1 0.94726,1.20312 c 0.14385,0.51067 0.23561,1.03078 0.27734,1.55274 0.0417,0.52196 0.0333,1.04626 -0.0254,1.56445 -0.0587,0.51818 -0.16669,1.02996 -0.32421,1.5293 -0.15753,0.49933 -0.36448,0.98575 -0.61915,1.45117 -0.25466,0.46542 -0.55296,0.90074 -0.88867,1.30273 -0.3357,0.402 -0.7084,0.77063 -1.11328,1.09961 -0.40488,0.32898 -0.84249,0.61886 -1.30469,0.86524 -0.46219,0.24638 -0.94939,0.44932 -1.45703,0.60351 -0.72728,0.22091 -1.47639,0.3368 -2.22461,0.35156 -0.74822,0.0148 -1.49555,-0.0716 -2.22265,-0.25585 -0.72602,-0.18397 -1.41894,-0.46132 -2.06446,-0.82032 -0.64551,-0.35899 -1.24363,-0.79963 -1.77929,-1.30859 -0.53932,-0.51243 -1.00398,-1.08265 -1.39258,-1.69531 -0.38861,-0.61267 -0.70133,-1.26846 -0.93555,-1.94922 -0.23422,-0.68077 -0.39063,-1.38679 -0.4668,-2.10352 -0.0762,-0.71673 -0.0719,-1.4435 0.0137,-2.16406 0.0866,-0.72947 0.25446,-1.43786 0.49218,-2.11719 0.23773,-0.67933 0.54604,-1.32996 0.91602,-1.9414 0.36998,-0.61144 0.79981,-1.18318 1.2832,-1.70899 0.4834,-0.5258 1.0197,-1.00531 1.59766,-1.42773 0.57435,-0.41979 1.18266,-0.77916 1.81445,-1.08008 0.6318,-0.30092 1.28671,-0.54281 1.95703,-0.72656 0.67033,-0.18376 1.35499,-0.3106 2.04493,-0.37891 0.68993,-0.0683 1.38554,-0.0786 2.07617,-0.0332 1.17648,0.0774 2.33414,0.31481 3.43945,0.69922 1.10531,0.3844 2.15827,0.9158 3.12695,1.57812 0.96818,0.66197 1.84183,1.44722 2.60157,2.33008 0.75973,0.88286 1.40556,1.86332 1.91797,2.91211 0.51215,1.04826 0.88606,2.15605 1.11914,3.29101 0.23308,1.13497 0.32534,2.2971 0.27343,3.45704 -0.0519,1.15939 -0.24692,2.30608 -0.57422,3.4121 -0.32729,1.10602 -0.78683,2.17138 -1.36718,3.16993 -0.58328,1.00357 -1.2821,1.92538 -2.07422,2.75195 -0.79212,0.82657 -1.67823,1.55785 -2.63281,2.18359 -0.95459,0.62575 -1.97816,1.14578 -3.04883,1.54688 -1.07067,0.40109 -2.18774,0.68332 -3.32813,0.83594 -1.13716,0.15218 -2.28073,0.17423 -3.41015,0.0762 -1.12943,-0.0981 -2.24498,-0.31634 -3.32618,-0.64649 -1.08119,-0.33014 -2.12862,-0.77234 -3.12109,-1.3164 -0.99247,-0.54407 -1.92973,-1.18987 -2.79297,-1.92969 -0.83417,-0.71491 -1.58056,-1.49197 -2.25586,-2.31055 -0.67529,-0.81858 -1.28025,-1.67954 -1.83203,-2.5625 -0.55178,-0.88296 -1.05004,-1.78725 -1.51367,-2.69531 -0.46363,-0.90806 -0.89189,-1.81902 -1.30273,-2.71289 -0.81913,-1.78215 -1.5968,-3.53568 -2.45118,-5.17188 -0.42719,-0.8181 -0.87344,-1.60733 -1.35351,-2.35546 -0.48008,-0.74814 -0.9943,-1.45548 -1.55664,-2.11133 -0.5931,-0.69172 -1.24882,-1.33214 -1.95508,-1.91211 -0.70626,-0.57997 -1.46266,-1.09923 -2.25586,-1.54883 -0.7932,-0.4496 -1.6246,-0.83027 -2.47852,-1.13086 -0.85391,-0.30059 -1.73075,-0.52135 -2.61914,-0.6543 -0.88544,-0.13251 -1.78685,-0.17452 -2.68554,-0.13086 -0.8987,0.0437 -1.79519,0.1734 -2.66797,0.38672 -0.87279,0.21333 -1.72159,0.51024 -2.5293,0.88672 -0.80771,0.37648 -1.57386,0.83211 -2.27734,1.36524 -0.59424,0.45033 -1.13448,0.96851 -1.625,1.5332 -0.49053,0.56469 -0.93134,1.17591 -1.32813,1.81445 0.57311,-0.11656 1.12647,-0.28037 1.71485,-0.35547 1.28678,-0.16412 2.60896,-0.2166 3.93359,-0.11914 0.66231,0.0487 1.32551,0.13468 1.98437,0.26368 0.65887,0.12899 1.31414,0.30036 1.96094,0.51953 0.65091,0.22055 1.28942,0.48928 1.90625,0.80664 0.61684,0.31736 1.2128,0.68423 1.77539,1.09765 0.5626,0.41342 1.09189,0.87408 1.58008,1.38282 0.48819,0.50873 0.9345,1.06467 1.32813,1.66796 0.39794,0.60993 0.73497,1.26049 1.00195,1.93946 0.26698,0.67896 0.46444,1.38615 0.58398,2.10742 0.11955,0.72127 0.16156,1.45651 0.11719,2.19336 -0.0444,0.73685 -0.17564,1.47548 -0.40039,2.20117 -0.27522,0.88865 -0.68185,1.72025 -1.19336,2.47656 -0.51151,0.75632 -1.12789,1.43735 -1.82617,2.02149 -0.69646,0.5826 -1.46162,1.06112 -2.27149,1.43554 -0.80987,0.37443 -1.66446,0.64478 -2.5371,0.8086 -0.8739,0.16405 -1.74964,0.22062 -2.61524,0.17969 -0.8656,-0.0409 -1.72046,-0.18006 -2.55078,-0.40235 -0.83033,-0.22229 -1.63623,-0.52817 -2.4043,-0.9082 -0.76807,-0.38003 -1.49891,-0.83352 -2.17773,-1.34766 -0.95596,-0.72403 -1.81347,-1.56527 -2.55664,-2.49609 -0.74318,-0.93082 -1.37202,-1.95123 -1.86914,-3.03516 -0.45226,-0.98609 -0.77817,-2.01752 -0.99024,-3.07226 -0.21207,-1.05474 -0.31031,-2.1328 -0.31054,-3.21094 -1.10699,0.47653 -2.19832,0.99162 -3.26954,1.54492 -1.07121,0.5533 -2.12224,1.14463 -3.15234,1.77149 -1.03009,0.62685 -2.03785,1.28913 -3.02148,1.98632 -0.98364,0.6972 -1.94318,1.42903 -2.875,2.19336 -0.93182,0.76434 -1.83628,1.56237 -2.71094,2.39063 -0.87466,0.82826 -1.71909,1.68719 -2.53125,2.57617 -0.81216,0.88898 -1.59163,1.80742 -2.33594,2.75391 -0.7443,0.94649 -1.45389,1.92108 -2.125,2.92187 a 2,2 0 0 1 -1.27539,0.84766 2,2 0 0 1 -1.5,-0.30078 2,2 0 0 1 -0.84766,-1.27344 2,2 0 0 1 0.30079,-1.50195 c 0.77339,-1.15334 1.59125,-2.27471 2.45117,-3.36329 0.85991,-1.08857 1.76275,-2.14508 2.70312,-3.16406 0.94037,-1.01897 1.91884,-2.00079 2.9336,-2.94531 1.01475,-0.94452 2.06536,-1.85158 3.14843,-2.7168 1.08308,-0.86522 2.19843,-1.68963 3.34375,-2.4707 1.14533,-0.78107 2.31998,-1.51886 3.52149,-2.21094 1.20151,-0.69208 2.43001,-1.33731 3.68164,-1.93555 1.25162,-0.59823 2.52659,-1.14889 3.82226,-1.64843 0.15544,-0.0599 0.32377,-0.10341 0.48047,-0.16211 0.25442,-0.78728 0.56672,-1.55361 0.9336,-2.29297 0.36688,-0.73936 0.78746,-1.45116 1.25976,-2.12695 0.47231,-0.6758 0.99572,-1.31748 1.56641,-1.91407 0.57069,-0.59658 1.18953,-1.14867 1.85156,-1.65039 0.70185,-0.53188 1.44132,-1.00324 2.21094,-1.41406 0.76962,-0.41082 1.56875,-0.76037 2.38867,-1.04883 0.81992,-0.28846 1.66093,-0.51683 2.51367,-0.68164 0.85274,-0.1648 1.71785,-0.26678 2.58594,-0.30664 z" />
      <path
         id="path5356"
         style="fill:#ffffff;fill-opacity:1;stroke:none;stroke-width:16;stroke-linecap:round;stroke-linejoin:round;stroke-dasharray:none;stroke-opacity:1;paint-order:fill markers stroke"
         d="m 276.00781,253.04102 c 0.55658,0.005 1.11292,0.0313 1.66797,0.0781 1.48014,0.12476 2.95041,0.39686 4.38281,0.82031 1.43242,0.42346 2.81496,0.99325 4.125,1.69336 1.31004,0.70012 2.5475,1.53029 3.69336,2.47266 1.14587,0.94237 2.19878,1.99821 3.13867,3.14844 0.9399,1.15022 1.76687,2.39508 2.45899,3.71875 0.69212,1.32366 1.24418,2.7125 1.65234,4.14062 0.40817,1.42812 0.67307,2.89635 0.79297,4.375 0.1199,1.47865 0.0946,2.96809 -0.0781,4.44336 -0.17268,1.47527 -0.49333,2.93555 -0.96289,4.35352 -0.27862,0.84134 -0.6087,1.66239 -0.98633,2.45898 -0.37764,0.79659 -0.80285,1.56853 -1.27149,2.3125 -0.46863,0.74397 -0.98157,1.45909 -1.5332,2.14258 -0.55162,0.68349 -1.14098,1.33603 -1.76758,1.95117 -0.62659,0.61514 -1.28886,1.19351 -1.98242,1.73242 -0.69355,0.53892 -1.41938,1.03736 -2.17187,1.49219 -0.7525,0.45483 -1.53252,0.86564 -2.33594,1.22852 -0.80343,0.36287 -1.63023,0.67835 -2.47656,0.9414 -0.84634,0.26305 -1.70667,0.47242 -2.57422,0.62891 -0.86756,0.15649 -1.74143,0.26064 -2.61914,0.3125 -0.87771,0.0519 -1.75796,0.0508 -2.63477,0 -0.87681,-0.0508 -1.75038,-0.15116 -2.61523,-0.30274 -0.86486,-0.15157 -1.72262,-0.35313 -2.56446,-0.60351 -0.84183,-0.25038 -1.66879,-0.55119 -2.47656,-0.89844 -0.80777,-0.34725 -1.59478,-0.74141 -2.35742,-1.18359 -0.76264,-0.44219 -1.50058,-0.93163 -2.20703,-1.4668 a 2,2 0 0 1 -0.77344,-1.32031 2,2 0 0 1 0.38672,-1.48047 2,2 0 0 1 1.32031,-0.77344 2,2 0 0 1 1.48242,0.38672 c 0.57165,0.43305 1.17169,0.82867 1.79492,1.1875 0.62324,0.35883 1.26946,0.68014 1.9336,0.96289 0.66414,0.28275 1.34668,0.52761 2.04101,0.73242 0.69434,0.20481 1.4014,0.37109 2.11524,0.4961 0.71383,0.125 1.43362,0.20861 2.15625,0.25195 0.72263,0.0433 1.44723,0.0461 2.16797,0.006 0.72073,-0.0402 1.43835,-0.12245 2.14648,-0.24805 0.70814,-0.12559 1.40696,-0.29496 2.0918,-0.50781 0.68483,-0.21285 1.35722,-0.46961 2.01172,-0.76758 0.6545,-0.29796 1.29178,-0.63625 1.9082,-1.01172 0.61642,-0.37547 1.21064,-0.789 1.78125,-1.23437 0.57061,-0.44537 1.11771,-0.92398 1.63477,-1.43164 0.51705,-0.50767 1.00517,-1.04312 1.46093,-1.60547 0.45577,-0.56236 0.8789,-1.15033 1.26563,-1.75977 0.38673,-0.60944 0.73691,-1.2417 1.04687,-1.89062 0.30996,-0.64892 0.57924,-1.3153 0.80469,-1.9961 0.38136,-1.15159 0.64017,-2.3453 0.7793,-3.55664 0.13913,-1.21134 0.1594,-2.43971 0.0605,-3.6582 -0.0989,-1.21849 -0.31584,-2.42851 -0.64844,-3.60156 -0.3326,-1.17305 -0.78165,-2.30975 -1.34375,-3.38477 -0.56211,-1.07501 -1.24002,-2.09255 -2.01367,-3.03515 -0.77366,-0.94261 -1.64352,-1.80932 -2.5879,-2.58594 -0.94437,-0.77662 -1.96284,-1.46201 -3.0371,-2.03906 -1.07427,-0.57706 -2.20386,-1.04672 -3.36719,-1.39063 -1.16334,-0.3439 -2.36489,-0.56421 -3.58008,-0.66406 -1.21519,-0.0999 -2.44357,-0.0797 -3.6582,0.0586 -1.21463,0.13825 -2.41647,0.39523 -3.57813,0.76563 -1.16165,0.37039 -2.28358,0.85458 -3.33984,1.45117 -1.05627,0.59659 -2.05154,1.30758 -2.96875,2.11133 -0.91722,0.80374 -1.75612,1.70091 -2.50195,2.66992 -0.74584,0.96901 -1.39733,2.00918 -1.93946,3.10156 -0.54213,1.09238 -0.97516,2.23631 -1.28125,3.41016 a 2,2 0 0 1 -0.92383,1.2207 2,2 0 0 1 -1.51562,0.20899 2,2 0 0 1 -1.2207,-0.92383 2,2 0 0 1 -0.20899,-1.51563 c 0.37689,-1.44536 0.90138,-2.8438 1.55859,-4.17578 0.65722,-1.33197 1.44696,-2.59772 2.35157,-3.77344 0.9046,-1.17571 1.9239,-2.2617 3.04297,-3.23828 1.11906,-0.97658 2.33808,-1.84354 3.63867,-2.57812 0.8535,-0.48208 1.73803,-0.90386 2.64453,-1.26563 0.90649,-0.36176 1.83505,-0.66259 2.7793,-0.90234 0.94424,-0.23975 1.90434,-0.41914 2.87109,-0.53516 0.96675,-0.11602 1.94005,-0.16958 2.91406,-0.16015 z" />
      <path
         id="path5352"
         style="fill:#ffffff;fill-opacity:1;stroke:none;stroke-width:16;stroke-linecap:round;stroke-linejoin:round;stroke-dasharray:none;stroke-opacity:1;paint-order:fill markers stroke"
         d="m 153.31055,246.51367 c 0.76174,-0.0238 1.52448,0.0106 2.27929,0.10352 0.75482,0.0929 1.50222,0.24447 2.23438,0.45117 0.73216,0.2067 1.44879,0.46952 2.14258,0.78711 0.69378,0.31758 1.36423,0.68969 2.0039,1.11523 0.85271,0.56726 1.63927,1.22198 2.34961,1.94727 0.71035,0.72528 1.34449,1.52128 1.89258,2.37305 0.54809,0.85176 1.01101,1.75839 1.37695,2.70507 0.36595,0.94669 0.63492,1.9333 0.79883,2.94336 0.055,0.33906 0.0974,0.67824 0.12891,1.01758 0.8315,-0.91885 1.71168,-1.7946 2.63476,-2.62109 0.92309,-0.8265 1.88945,-1.60312 2.89454,-2.32813 1.00508,-0.725 2.04749,-1.39734 3.125,-2.01172 1.0775,-0.61437 2.18974,-1.17141 3.33007,-1.66601 0.69942,-0.30336 1.42763,-0.5916 2.18555,-0.83985 0.75792,-0.24824 1.54555,-0.45649 2.36719,-0.59765 0.82515,-0.1418 1.68269,-0.2141 2.55078,-0.1875 0.86809,0.0265 1.74676,0.1515 2.61719,0.40625 0.80339,0.23513 1.57136,0.57354 2.2832,1.0039 0.71184,0.43037 1.36756,0.95268 1.94922,1.55469 0.58166,0.60201 1.08105,1.27611 1.48633,2.00196 0.40527,0.72584 0.71645,1.50344 0.92382,2.31445 0.20736,0.81101 0.30804,1.64335 0.30079,2.47461 -0.007,0.83125 -0.12247,1.66142 -0.34375,2.46875 -0.22129,0.80732 -0.54706,1.57979 -0.96485,2.29883 -0.41779,0.71903 -0.9276,1.38463 -1.51953,1.97656 -0.59192,0.59192 -1.25753,1.10174 -1.97656,1.51953 -0.71904,0.41779 -1.49151,0.74356 -2.29883,0.96484 -0.80732,0.22131 -1.63749,0.33649 -2.46875,0.34375 -0.83126,0.007 -1.6636,-0.0934 -2.47461,-0.30078 -0.81101,-0.20737 -1.58861,-0.51855 -2.31445,-0.92383 -0.72585,-0.40528 -1.39994,-0.90467 -2.00196,-1.48632 -0.602,-0.58166 -1.12432,-1.23738 -1.55468,-1.94922 -0.43037,-0.71184 -0.76877,-1.4798 -1.00391,-2.28321 a 2,2 0 0 1 0.16602,-1.52148 2,2 0 0 1 1.1914,-0.95898 2,2 0 0 1 1.52344,0.16406 2,2 0 0 1 0.95898,1.19336 c 0.13605,0.46484 0.33643,0.91665 0.58985,1.33593 0.25342,0.41928 0.55988,0.80604 0.9082,1.14258 0.34833,0.33655 0.74639,0.63025 1.17383,0.86914 0.42744,0.2389 0.88427,0.42299 1.35352,0.54297 0.46924,0.11999 0.95919,0.17816 1.44921,0.17383 0.49003,-0.004 0.98015,-0.0712 1.44727,-0.19922 0.46712,-0.12803 0.92213,-0.32027 1.3457,-0.56641 0.42358,-0.24613 0.81572,-0.54618 1.15821,-0.88867 0.34248,-0.34248 0.64253,-0.73463 0.88867,-1.1582 0.24614,-0.42357 0.43837,-0.87858 0.5664,-1.3457 0.12805,-0.46712 0.19489,-0.95724 0.19922,-1.44727 0.004,-0.49003 -0.0538,-0.97997 -0.17383,-1.44922 -0.11998,-0.46925 -0.30407,-0.92607 -0.54296,-1.35351 -0.2389,-0.42744 -0.5326,-0.82551 -0.86915,-1.17383 -0.33653,-0.34833 -0.72329,-0.65479 -1.14257,-0.9082 -0.41928,-0.25342 -0.87109,-0.4538 -1.33594,-0.58985 -0.50775,-0.1486 -1.05376,-0.2286 -1.62109,-0.24609 -0.56734,-0.0175 -1.15599,0.0275 -1.7461,0.1289 -0.59361,0.10199 -1.19401,0.25999 -1.80078,0.45899 -0.60677,0.199 -1.2199,0.43899 -1.83789,0.70703 -1.59656,0.69248 -3.1326,1.52596 -4.58984,2.48438 -1.45725,0.95841 -2.83592,2.04189 -4.11524,3.23046 -1.27932,1.18857 -2.46065,2.4823 -3.52344,3.86524 -1.06278,1.38293 -2.00681,2.85497 -2.81445,4.39648 a 2,2 0 0 1 -0.36523,0.45117 c -0.69633,1.48337 -1.54071,2.87635 -2.47071,4.17774 -0.81065,1.13438 -1.69599,2.21329 -2.64648,3.23047 -0.95049,1.01718 -1.96582,1.9735 -3.03906,2.85937 -1.07324,0.88587 -2.20391,1.70096 -3.38282,2.44141 -1.1789,0.74045 -2.40635,1.4054 -3.67382,1.98633 -1.26749,0.58092 -2.57206,1.07678 -3.90235,1.48633 -1.33028,0.40954 -2.6872,0.73227 -4.05859,0.96679 -1.3714,0.23452 -2.75763,0.38164 -4.14844,0.4375 -1.39081,0.0559 -2.7853,0.021 -4.17383,-0.10547 a 2,2 0 0 1 -1.35547,-0.71093 2,2 0 0 1 -0.45507,-1.46094 2,2 0 0 1 0.71093,-1.35547 2,2 0 0 1 1.46289,-0.45508 c 1.21193,0.11035 2.43257,0.1394 3.65039,0.0898 1.21783,-0.0496 2.43258,-0.17705 3.63477,-0.38281 1.20219,-0.20576 2.39164,-0.4894 3.55664,-0.84765 1.165,-0.35826 2.30584,-0.79179 3.41211,-1.29883 1.10627,-0.50704 2.17909,-1.08751 3.21094,-1.73633 1.03185,-0.64882 2.0223,-1.36599 2.96289,-2.14258 0.94059,-0.77659 1.83158,-1.61355 2.66406,-2.5039 0.83249,-0.89036 1.60691,-1.83412 2.31445,-2.82422 0.63646,-0.89063 1.21478,-1.81249 1.7129,-2.75977 0.49811,-0.94728 0.91604,-1.91998 1.23242,-2.91406 0.31542,-0.99105 0.52849,-2.00904 0.62304,-3.02344 0.0946,-1.0144 0.0706,-2.02521 -0.0879,-3.00195 -0.11779,-0.7259 -0.31587,-1.44141 -0.58593,-2.13281 -0.27006,-0.69141 -0.61252,-1.35961 -1.01563,-1.98633 -0.40311,-0.62673 -0.86782,-1.21227 -1.38477,-1.74414 -0.51694,-0.53187 -1.0857,-1.00918 -1.69726,-1.41602 -0.61136,-0.4067 -1.27068,-0.74675 -1.96094,-1.01758 -0.69026,-0.27082 -1.41118,-0.47307 -2.14453,-0.60156 -0.73334,-0.12849 -1.48008,-0.18436 -2.2207,-0.16406 -0.74063,0.0203 -1.47541,0.11742 -2.1875,0.29297 -0.71186,0.17548 -1.40765,0.43139 -2.07227,0.75781 -0.66462,0.32642 -1.29855,0.72283 -1.88672,1.17773 -0.58816,0.45491 -1.13079,0.96835 -1.61328,1.5293 -0.48249,0.56095 -0.90436,1.16991 -1.25195,1.81445 -0.34748,0.64433 -0.62316,1.33202 -0.82617,2.04297 -0.20302,0.71096 -0.33303,1.44512 -0.38868,2.18555 -0.0556,0.74043 -0.038,1.486 0.0566,2.21875 0.0946,0.73274 0.26587,1.45272 0.51367,2.14062 0.27271,0.75708 0.63515,1.47962 1.07617,2.13868 0.44101,0.65906 0.9606,1.25464 1.54492,1.75781 0.58104,0.50034 1.24004,0.91438 1.93555,1.2207 0.6955,0.30632 1.42751,0.50492 2.1582,0.57227 0.72474,0.0668 1.46797,8.9e-4 2.16992,-0.1836 0.70195,-0.18448 1.36263,-0.48754 1.92383,-0.89843 0.55487,-0.40626 1.03125,-0.94139 1.38672,-1.53711 0.35547,-0.59572 0.59004,-1.25203 0.66211,-1.9043 0.0388,-0.35146 0.0292,-0.7151 -0.0234,-1.07617 -0.0526,-0.36107 -0.14927,-0.71989 -0.2832,-1.06446 -0.13393,-0.34456 -0.30479,-0.67463 -0.50977,-0.97656 -0.20498,-0.30193 -0.44316,-0.57542 -0.70898,-0.80859 -0.26582,-0.23316 -0.56858,-0.43403 -0.89453,-0.59766 -0.32595,-0.16362 -0.67428,-0.28941 -1.03321,-0.37695 -0.35892,-0.0875 -0.729,-0.13573 -1.09375,-0.14063 -0.36474,-0.005 -0.72495,0.0329 -1.06836,0.11719 a 2,2 0 0 1 -1.51367,-0.23242 2,2 0 0 1 -0.90625,-1.23438 2,2 0 0 1 0.23242,-1.51171 2,2 0 0 1 1.23243,-0.90625 c 0.6762,-0.16598 1.36332,-0.2455 2.04687,-0.24414 0.68355,0.001 1.3629,0.0828 2.02344,0.24414 0.66054,0.16132 1.30299,0.40092 1.91016,0.71484 0.60716,0.31392 1.17969,0.70296 1.70312,1.16211 0.52343,0.45915 0.98276,0.97625 1.37305,1.53711 0.39029,0.56086 0.7111,1.16524 0.95703,1.79883 0.24592,0.63358 0.41747,1.29729 0.50781,1.97461 0.0903,0.67731 0.0999,1.36848 0.0234,2.06054 -0.0697,0.63098 -0.20809,1.24409 -0.4082,1.83203 -0.20012,0.58795 -0.46214,1.1503 -0.77735,1.67969 -0.31521,0.52939 -0.6846,1.02515 -1.09961,1.48047 -0.41501,0.45532 -0.87549,0.8706 -1.375,1.23633 -0.49634,0.36341 -1.02193,0.67402 -1.56836,0.93164 -0.54643,0.25762 -1.11354,0.46261 -1.69336,0.61523 -0.57981,0.15263 -1.17302,0.25236 -1.76953,0.30079 -0.5965,0.0484 -1.19647,0.0452 -1.79297,-0.01 -0.59351,-0.0547 -1.1761,-0.15925 -1.74414,-0.30859 -0.56804,-0.14935 -1.12242,-0.34333 -1.65625,-0.57813 -0.53382,-0.2348 -1.0482,-0.50924 -1.53906,-0.82031 -0.49086,-0.31108 -0.95733,-0.65894 -1.39648,-1.03711 -0.87504,-0.75351 -1.62967,-1.61957 -2.25977,-2.56055 -0.6301,-0.94098 -1.13567,-1.95689 -1.51562,-3.01172 -0.34822,-0.96669 -0.5884,-1.96361 -0.72266,-2.97265 -0.13426,-1.00905 -0.16225,-2.03032 -0.0859,-3.04297 0.0763,-1.01265 0.25752,-2.01664 0.54102,-2.99414 0.2835,-0.9775 0.66894,-1.92843 1.15625,-2.83203 0.48718,-0.90339 1.06832,-1.74784 1.72851,-2.52149 0.6602,-0.77365 1.39856,-1.47691 2.20117,-2.09765 0.80262,-0.62075 1.66954,-1.15884 2.58399,-1.60352 0.91445,-0.44468 1.87734,-0.79556 2.87305,-1.04102 0.99546,-0.24539 2.00972,-0.38226 3.02539,-0.41406 z" />
      <path
         id="path5348"
         style="fill:#ffffff;fill-opacity:1;stroke:none;stroke-width:16;stroke-linecap:round;stroke-linejoin:round;stroke-dasharray:none;stroke-opacity:1;paint-order:fill markers stroke"
         d="m 435.71484,242.54688 c 0.79949,0.0126 1.59196,0.10126 2.36719,0.26171 0.77523,0.16046 1.53281,0.39182 2.26367,0.68946 0.73086,0.29764 1.4352,0.66178 2.10157,1.08593 0.66636,0.42416 1.29519,0.90923 1.87695,1.44922 0.58087,0.53918 1.10855,1.12789 1.58008,1.75586 0.47152,0.62798 0.88716,1.29444 1.24218,1.99219 0.35503,0.69775 0.64949,1.42729 0.88086,2.17578 0.23138,0.74849 0.39942,1.51668 0.5,2.29688 0.15131,1.17362 0.14927,2.35552 0.004,3.51757 -0.14536,1.16206 -0.43403,2.30427 -0.85547,3.39649 0.82692,-0.22265 1.66995,-0.38863 2.52344,-0.49024 0.893,-0.10631 1.79207,-0.14437 2.6875,-0.11523 0.89542,0.0291 1.78773,0.12566 2.66797,0.28711 0.88023,0.16144 1.74828,0.38714 2.5957,0.67773 0.84742,0.2906 1.67371,0.64592 2.4707,1.0625 0.65078,0.34016 1.28065,0.72067 1.88477,1.14063 0.60411,0.41996 1.1821,0.87998 1.72852,1.375 0.54641,0.49502 1.06137,1.02645 1.53906,1.5918 0.47768,0.56534 0.91848,1.16399 1.3164,1.79492 0.39872,0.63218 0.75277,1.29339 1.05664,1.97656 0.30388,0.68317 0.55663,1.38817 0.75782,2.10937 0.20119,0.72121 0.35073,1.45881 0.4414,2.20508 0.0907,0.74628 0.1234,1.50139 0.0957,2.25977 -0.0278,0.76025 -0.11722,1.51687 -0.26758,2.26172 -0.15036,0.74484 -0.3625,1.47873 -0.63281,2.18945 -0.27032,0.71072 -0.5987,1.39876 -0.98633,2.05664 -0.38763,0.65788 -0.83363,1.28478 -1.33594,1.8711 -0.5038,0.58805 -1.06037,1.12916 -1.66016,1.61523 -0.59978,0.48607 -1.2421,0.91766 -1.91992,1.28711 -0.67782,0.36945 -1.391,0.67585 -2.1289,0.91406 -0.73791,0.23821 -1.50122,0.40766 -2.28125,0.5 -1.05865,0.12533 -2.12804,0.10848 -3.17774,-0.0488 -1.0497,-0.1573 -2.0797,-0.45507 -3.05664,-0.88867 -0.97724,-0.43373 -1.88975,-0.99918 -2.71094,-1.67578 -0.82118,-0.6766 -1.55105,-1.46436 -2.16406,-2.34375 -0.6132,-0.87966 -1.0999,-1.83984 -1.44922,-2.84766 -0.34932,-1.00782 -0.56126,-2.0633 -0.62109,-3.13671 -0.0599,-1.07377 0.0317,-2.1502 0.26953,-3.19336 0.23779,-1.04317 0.62179,-2.05307 1.14453,-2.9961 0.41272,-0.74453 0.91168,-1.44382 1.48828,-2.07812 0.57661,-0.63431 1.23085,-1.20363 1.95703,-1.68555 0.72796,-0.4831 1.51947,-0.87235 2.35157,-1.15039 0.83209,-0.27804 1.70478,-0.44488 2.59765,-0.48438 0.89553,-0.0396 1.79486,0.0513 2.66406,0.27344 0.86921,0.22212 1.70831,0.57542 2.48438,1.0625 0.77881,0.48881 1.47476,1.10115 2.05469,1.8125 0.57993,0.71136 1.04384,1.52173 1.35937,2.40625 0.16334,0.45789 0.28529,0.93064 0.36133,1.41016 0.076,0.47952 0.10636,0.96643 0.0898,1.45312 -0.0165,0.48669 -0.081,0.97177 -0.19531,1.45117 -0.11432,0.47941 -0.27871,0.95251 -0.49609,1.41016 -0.21998,0.46311 -0.48986,0.8983 -0.80274,1.29883 -0.31287,0.40052 -0.66845,0.76726 -1.0625,1.08789 -0.39404,0.32063 -0.82556,0.5969 -1.28906,0.82031 -0.46349,0.22341 -0.95925,0.39308 -1.48047,0.50196 -0.45979,0.096 -0.92446,0.14046 -1.38476,0.13476 -0.46031,-0.006 -0.91587,-0.0621 -1.36133,-0.16601 -0.44546,-0.10392 -0.87967,-0.25453 -1.29492,-0.45313 -0.41526,-0.1986 -0.81195,-0.44462 -1.18164,-0.73437 -0.3697,-0.28976 -0.70222,-0.61501 -0.99415,-0.97071 -0.29192,-0.35569 -0.54285,-0.74277 -0.75,-1.15039 -0.20714,-0.40761 -0.37096,-0.83768 -0.48632,-1.2832 -0.11536,-0.44553 -0.18265,-0.90558 -0.19922,-1.375 a 2,2 0 0 1 0.53515,-1.4336 2,2 0 0 1 1.39258,-0.63671 2,2 0 0 1 1.4336,0.53711 2,2 0 0 1 0.63476,1.39257 c 0.0115,0.32481 0.10881,0.66697 0.26758,0.97852 0.15877,0.31155 0.37896,0.59247 0.63477,0.79297 0.2558,0.20048 0.58147,0.34649 0.92187,0.42578 0.3404,0.0793 0.69553,0.0919 1.01367,0.0254 0.36354,-0.0759 0.73555,-0.26803 1.06055,-0.5332 0.325,-0.26517 0.60298,-0.60343 0.7793,-0.97461 0.18149,-0.38209 0.2813,-0.8293 0.29687,-1.29102 0.0156,-0.46172 -0.0531,-0.93795 -0.20898,-1.375 -0.15409,-0.43195 -0.39565,-0.84879 -0.69922,-1.2207 -0.30358,-0.37191 -0.66917,-0.6989 -1.07422,-0.95313 -0.4078,-0.25594 -0.86876,-0.44858 -1.35352,-0.57226 -0.48475,-0.12368 -0.99331,-0.1784 -1.49414,-0.15625 -0.50348,0.0223 -1.01433,0.12 -1.50781,0.28515 -0.49348,0.16516 -0.9696,0.39773 -1.40625,0.6875 -0.43841,0.29096 -0.84527,0.64486 -1.20898,1.04493 -0.36372,0.40006 -0.68429,0.84629 -0.94922,1.32422 -0.33518,0.60464 -0.58488,1.26485 -0.74024,1.94726 -0.15536,0.68241 -0.21638,1.38703 -0.17773,2.08008 0.0386,0.69339 0.17819,1.38715 0.4082,2.05078 0.23001,0.66363 0.55049,1.29714 0.94922,1.86914 0.39893,0.57228 0.88331,1.09252 1.42773,1.54102 0.54443,0.44849 1.1489,0.82524 1.78907,1.10937 0.64047,0.28425 1.32696,0.48105 2.02734,0.58594 0.70038,0.10489 1.41465,0.11786 2.11328,0.0351 0.51177,-0.0606 1.02036,-0.17534 1.51758,-0.33789 0.49722,-0.16254 0.9831,-0.37193 1.44727,-0.625 0.46416,-0.25306 0.90771,-0.5487 1.32031,-0.88085 0.4126,-0.33216 0.7942,-0.70176 1.13672,-1.10157 0.34401,-0.40154 0.65326,-0.83684 0.92383,-1.29883 0.27056,-0.46198 0.50328,-0.94991 0.69531,-1.45507 0.19203,-0.50517 0.34276,-1.02753 0.45117,-1.5586 0.10841,-0.53107 0.17366,-1.07161 0.19336,-1.61133 0.0198,-0.54157 -0.005,-1.08764 -0.0723,-1.63086 -0.0668,-0.54321 -0.17604,-1.08371 -0.32421,-1.61523 -0.29636,-1.06304 -0.74941,-2.08921 -1.33985,-3.02539 -0.59202,-0.93868 -1.32433,-1.79801 -2.16015,-2.55469 -0.83583,-0.75667 -1.77518,-1.4107 -2.7793,-1.93554 -0.61458,-0.32124 -1.25505,-0.59512 -1.91406,-0.82032 -0.65902,-0.22519 -1.33728,-0.40137 -2.02344,-0.52734 -0.68617,-0.12598 -1.38015,-0.20102 -2.07617,-0.22461 -0.69603,-0.0236 -1.39343,0.004 -2.08203,0.0859 -0.68861,0.082 -1.37184,0.21793 -2.04297,0.40429 -0.67114,0.18636 -1.32927,0.42345 -1.9668,0.70704 -0.63754,0.28358 -1.25593,0.61268 -1.84375,0.98632 -0.58782,0.37365 -1.14598,0.79151 -1.66797,1.24805 a 2,2 0 0 1 -1.00781,0.43164 c -0.53778,0.46158 -1.07878,0.90439 -1.61328,1.33008 -1.49134,1.18773 -3.0176,2.33188 -4.57422,3.43164 -1.55662,1.09976 -3.14329,2.15486 -4.75977,3.16406 -1.61647,1.00921 -3.26269,1.9726 -4.93359,2.88867 -1.6709,0.91608 -3.36605,1.78512 -5.08594,2.60547 -1.71988,0.82036 -3.46312,1.59239 -5.22656,2.31446 -1.76345,0.72206 -3.54804,1.39443 -5.34961,2.01562 -1.80157,0.62119 -3.62081,1.19125 -5.45508,1.70899 -1.83426,0.51773 -3.68339,0.98283 -5.54492,1.39453 a 2,2 0 0 1 -1.50781,-0.26758 2,2 0 0 1 -0.87696,-1.25391 2,2 0 0 1 0.26563,-1.50781 2,2 0 0 1 1.25391,-0.87695 c 1.78625,-0.39505 3.5614,-0.84272 5.32226,-1.33985 1.76086,-0.49713 3.50824,-1.04398 5.23828,-1.64062 1.73004,-0.59664 3.44294,-1.24197 5.13672,-1.93555 1.69379,-0.69358 3.36743,-1.43471 5.01953,-2.22265 1.6521,-0.78795 3.28174,-1.62222 4.88672,-2.50196 1.60498,-0.87974 3.18585,-1.80447 4.73828,-2.77344 1.55243,-0.96896 3.07782,-1.98344 4.57227,-3.03906 1.49444,-1.05561 2.95764,-2.15327 4.38867,-3.29297 1.05409,-0.8395 2.05821,-1.68709 2.94531,-2.57617 0.44355,-0.44454 0.85791,-0.90022 1.23438,-1.36914 0.37647,-0.46892 0.71531,-0.95183 1.00781,-1.45312 0.28184,-0.48304 0.52441,-0.99066 0.72461,-1.51563 0.2002,-0.52497 0.35844,-1.06728 0.47266,-1.61719 0.11421,-0.54991 0.18312,-1.10817 0.20703,-1.66601 0.0239,-0.55785 0.002,-1.11529 -0.0684,-1.66407 -0.0706,-0.54767 -0.19014,-1.09072 -0.35547,-1.62109 -0.16533,-0.53036 -0.37704,-1.04771 -0.62891,-1.54297 -0.25187,-0.49526 -0.54476,-0.96975 -0.875,-1.41211 -0.33023,-0.44236 -0.69724,-0.85293 -1.09765,-1.22461 -0.39954,-0.37084 -0.83646,-0.70448 -1.30079,-0.99804 -0.46433,-0.29356 -0.95563,-0.5465 -1.46484,-0.75391 -0.50921,-0.20741 -1.03614,-0.37003 -1.57031,-0.48242 -0.53417,-0.11239 -1.07602,-0.1751 -1.61524,-0.18359 -0.53787,-0.008 -1.07913,0.0381 -1.61328,0.13476 -0.53414,0.0967 -1.06049,0.24356 -1.56836,0.4375 -0.50787,0.19394 -0.99798,0.43358 -1.45703,0.7168 -0.45904,0.28322 -0.88771,0.61005 -1.27539,0.97461 -0.52937,0.49779 -0.99306,1.072 -1.375,1.69726 -0.38194,0.62527 -0.68213,1.3016 -0.88281,2 -0.2007,0.6984 -0.30584,1.42942 -0.31445,2.16211 -0.009,0.73269 0.0793,1.46705 0.26367,2.16992 0.18436,0.70289 0.46895,1.38525 0.83593,2.01954 0.36699,0.63428 0.81635,1.22048 1.33399,1.73046 0.51763,0.50999 1.11,0.95271 1.75,1.31055 0.64,0.35784 1.32765,0.63081 2.0332,0.80469 a 2,2 0 0 1 0.70703,0.33008 2,2 0 0 1 0.52539,0.57617 2,2 0 0 1 0.26563,0.73437 2,2 0 0 1 -0.0352,0.7793 2,2 0 0 1 -0.90625,1.23242 2,2 0 0 1 -1.51367,0.23047 c -1.06079,-0.26143 -2.07891,-0.66525 -3.02734,-1.19531 -0.94844,-0.53006 -1.82721,-1.18636 -2.60547,-1.95313 -0.77827,-0.76676 -1.44795,-1.63411 -1.99219,-2.57422 -0.54424,-0.9401 -0.96304,-1.95298 -1.24023,-3.00976 -0.27718,-1.05679 -0.40939,-2.14439 -0.39649,-3.23047 0.0129,-1.08608 0.17093,-2.17066 0.47266,-3.2207 0.30172,-1.05005 0.74462,-2.05314 1.31055,-2.98047 0.56592,-0.92734 1.25486,-1.77891 2.05078,-2.52735 0.58768,-0.55263 1.22521,-1.0413 1.90234,-1.46289 0.67713,-0.42158 1.39425,-0.77684 2.13672,-1.06054 0.74247,-0.2837 1.51122,-0.49581 2.29492,-0.63477 0.7837,-0.13896 1.58199,-0.20403 2.38281,-0.1914 z" />
      <path
         id="path5346"
         style="fill:#ffffff;fill-opacity:1;stroke:none;stroke-width:16;stroke-linecap:round;stroke-linejoin:round;stroke-dasharray:none;stroke-opacity:1;paint-order:fill markers stroke"
         d="m 27.203125,298.80859 c 2.749351,-1.74157 5.495168,-3.4896 8.203125,-5.29492 3.430099,-2.28674 6.826474,-4.62458 10.1875,-7.01172 3.361026,-2.38714 6.685626,-4.82316 9.974609,-7.30859 3.288984,-2.48543 6.541888,-5.01994 9.75586,-7.60156 2.378284,-1.91037 4.721343,-3.83246 7.08789,-5.6836 2.366548,-1.85114 4.756599,-3.63133 7.228516,-5.25586 1.234975,-0.81161 2.494452,-1.58459 3.775391,-2.30664 1.280938,-0.72205 2.584181,-1.39378 3.908203,-2 1.324021,-0.60621 2.668978,-1.14721 4.033203,-1.61132 1.364225,-0.46412 2.74689,-0.85075 4.148437,-1.14649 1.396787,-0.29473 2.816139,-0.49516 4.238282,-0.5918 1.422139,-0.0966 2.847759,-0.0902 4.253909,0.0273 1.40614,0.11754 2.79377,0.34752 4.14257,0.69531 1.34881,0.34779 2.65811,0.8141 3.90821,1.4082 1.24978,0.59396 2.43812,1.3142 3.5332,2.14649 1.09508,0.83228 2.0969,1.77661 2.9707,2.82031 0.43628,0.5211 0.84228,1.06764 1.21289,1.63672 0.37062,0.56907 0.70606,1.16011 1.00391,1.76758 0.29786,0.60746 0.55738,1.23287 0.77539,1.86914 0.21802,0.63626 0.39431,1.28397 0.52539,1.93945 0.20652,1.03267 0.2951,2.09207 0.27344,3.15234 -0.0217,1.06028 -0.15436,2.12101 -0.39258,3.15821 -0.23821,1.0372 -0.58028,2.05022 -1.02344,3.01367 -0.44315,0.96345 -0.98658,1.87776 -1.62304,2.7168 -0.63647,0.83903 -1.37118,1.60834 -2.17969,2.29492 -0.80851,0.68657 -1.6902,1.28967 -2.625,1.79883 -0.9348,0.50915 -1.92216,0.9237 -2.9375,1.23047 -1.01534,0.30676 -2.05925,0.50651 -3.10938,0.58593 -1.05012,0.0794 -2.11235,0.0393 -3.1621,-0.11133 -1.04976,-0.15058 -2.08738,-0.41065 -3.0879,-0.77343 -1.00051,-0.36278 -1.96478,-0.82759 -2.867182,-1.38477 -0.902404,-0.55717 -1.74263,-1.20764 -2.498047,-1.9414 -0.755418,-0.73377 -1.428725,-1.55555 -2.011719,-2.44141 -0.582995,-0.88586 -1.075322,-1.83658 -1.466797,-2.82617 -0.391475,-0.9896 -0.682424,-2.01753 -0.863281,-3.0625 -0.180858,-1.04498 -0.251982,-2.10622 -0.203125,-3.15821 a 2,2 0 0 0 -0.117188,-0.77148 2,2 0 0 0 -0.402343,-0.66797 2,2 0 0 0 -0.628907,-0.46289 2,2 0 0 0 -0.757812,-0.1875 2,2 0 0 0 -1.439453,0.51953 2,2 0 0 0 -0.650391,1.38477 c -0.06267,1.34944 0.02319,2.69724 0.248047,4.01953 0.22486,1.32228 0.589379,2.61808 1.082031,3.86328 0.492652,1.2452 1.112813,2.44041 1.853516,3.55859 0.740703,1.11819 1.601299,2.16032 2.570312,3.10157 0.969014,0.94123 2.036445,1.7705 3.175781,2.47851 1.139337,0.70801 2.350259,1.29554 3.609378,1.75195 1.25911,0.45642 2.56617,0.7823 3.89453,0.96875 1.32835,0.18646 2.67834,0.23274 4.02539,0.13086 1.34705,-0.10187 2.67395,-0.35031 3.95898,-0.73437 1.28504,-0.38406 2.52916,-0.9044 3.70508,-1.54492 1.17593,-0.64052 2.28497,-1.40218 3.30469,-2.27344 1.01972,-0.87126 1.9492,-1.85146 2.76562,-2.92774 0.81644,-1.07626 1.51005,-2.23632 2.07422,-3.45312 0.56418,-1.2168 0.99897,-2.48988 1.29883,-3.79492 0.29987,-1.30504 0.46478,-2.64143 0.48828,-3.98242 0.0235,-1.341 -0.0945,-2.68706 -0.35937,-4.01172 -0.1666,-0.83305 -0.38909,-1.65053 -0.66211,-2.44922 -0.27303,-0.7987 -0.59637,-1.57844 -0.9668,-2.33399 -0.37043,-0.75554 -0.78727,-1.48781 -1.24609,-2.1914 -0.45883,-0.70359 -0.95985,-1.37866 -1.49805,-2.02149 -0.53756,-0.64207 -1.11096,-1.25086 -1.71484,-1.82422 -0.60389,-0.57335 -1.23768,-1.11074 -1.89844,-1.61328 -0.66076,-0.50253 -1.34846,-0.96881 -2.05664,-1.39843 -0.70818,-0.42963 -1.43744,-0.82313 -2.1836,-1.17774 -1.11898,-0.5318 -2.26753,-0.97463 -3.4375,-1.33594 -1.16996,-0.3613 -2.36171,-0.64184 -3.56445,-0.84375 -1.20273,-0.2019 -2.41748,-0.32529 -3.63476,-0.3789 -1.21729,-0.0536 -2.43678,-0.0367 -3.650394,0.0469 -1.61816,0.11144 -3.225028,0.33979 -4.798828,0.67188 -1.56904,0.33108 -3.106204,0.76089 -4.609376,1.27148 -1.503171,0.51059 -2.971466,1.10189 -4.408203,1.75977 -1.436737,0.65787 -2.841201,1.38136 -4.210937,2.1543 -1.369736,0.77293 -2.705644,1.59539 -4.007813,2.45117 -0.668672,0.43944 -1.329058,0.88803 -1.982421,1.34375 0.331871,-1.10969 0.570611,-2.24773 0.708984,-3.40039 0.138373,-1.15267 0.176379,-2.31996 0.103516,-3.48829 -0.04584,-0.73498 -0.133823,-1.46582 -0.261719,-2.1875 -0.127897,-0.72167 -0.295816,-1.43337 -0.501953,-2.13476 -0.412274,-1.40278 -0.97736,-2.75923 -1.679688,-4.03906 -0.702328,-1.27984 -1.542068,-2.48479 -2.503906,-3.58594 -0.480919,-0.55058 -0.99118,-1.07486 -1.53125,-1.57031 -0.54007,-0.49546 -1.109676,-0.96117 -1.705078,-1.39453 -0.837285,-0.60942 -1.7195,-1.14831 -2.636719,-1.61524 -0.917219,-0.46692 -1.870183,-0.86134 -2.845703,-1.18164 -0.975521,-0.3203 -1.974138,-0.56678 -2.986328,-0.73633 -1.012191,-0.16954 -2.037225,-0.26269 -3.064453,-0.27734 -0.273928,-0.004 -0.548245,-10e-4 -0.822266,0.006 -0.730722,0.0194 -1.461152,0.0778 -2.1875,0.17773 -0.726348,0.1 -1.448618,0.24152 -2.162109,0.42383 a 2,2 0 0 0 -1.22461,0.91797 2,2 0 0 0 -0.216797,1.51562 2,2 0 0 0 0.917969,1.22461 2,2 0 0 0 1.513672,0.2168 c 1.126079,-0.28773 2.288879,-0.44325 3.458984,-0.4707 1.170106,-0.0275 2.348235,0.0737 3.501954,0.29492 1.153718,0.22125 2.28441,0.56309 3.361328,1.02148 1.076918,0.4584 2.099359,1.03284 3.039062,1.7168 0.939703,0.68396 1.801187,1.48145 2.56836,2.36523 0.767172,0.88379 1.440757,1.85309 2.005859,2.88282 0.565102,1.02973 1.021975,2.12038 1.355469,3.24218 0.333493,1.12181 0.542889,2.27555 0.615234,3.43555 0.04044,0.6484 0.03712,1.30077 -0.0078,1.95117 -0.04493,0.6504 -0.13196,1.29873 -0.257813,1.94141 -0.251707,1.28537 -0.660327,2.54599 -1.208984,3.74219 -0.548657,1.19619 -1.236901,2.32814 -2.046875,3.35742 -0.404988,0.51464 -0.841052,1.0026 -1.304688,1.46094 -0.463635,0.45833 -0.954826,0.88698 -1.472656,1.27929 a 2,2 0 0 0 -0.527344,0.61329 c -0.874414,0.7074 -1.765298,1.41526 -2.636719,2.11523 -3.183192,2.5569 -6.404688,5.06583 -9.662109,7.52734 -3.257421,2.46152 -6.550155,4.87611 -9.878906,7.24024 -3.328751,2.36412 -6.69266,4.67862 -10.089844,6.94336 -3.397184,2.26473 -6.828296,4.47924 -10.291016,6.64257 a 2,2 0 0 0 -0.888672,1.2461 2,2 0 0 0 0.123047,0.73437 z" />
      <path
         id="path5344"
         style="fill:#ffffff;fill-opacity:1;stroke:none;stroke-width:16;stroke-linecap:round;stroke-linejoin:round;stroke-dasharray:none;stroke-opacity:1;paint-order:fill markers stroke"
         d="m 193.91406,298.80859 c 0.5151,-0.31607 1.05431,-0.59299 1.55078,-0.9375 1.11345,-0.77261 2.17793,-1.61629 3.18555,-2.52343 1.00762,-0.90715 1.95882,-1.87824 2.84375,-2.90821 0.69678,-0.81097 1.34671,-1.64575 1.95898,-2.49804 0.61228,-0.85229 1.18666,-1.72206 1.73243,-2.60352 1.09154,-1.76291 2.06846,-3.57223 3.00195,-5.37891 0.93349,-1.80667 1.82475,-3.61007 2.74414,-5.36328 0.91939,-1.75321 1.86676,-3.45606 2.91602,-5.05859 0.89953,-1.37388 1.87707,-2.68849 2.9375,-3.91406 1.06042,-1.22558 2.20374,-2.36212 3.43554,-3.37891 0.61495,-0.5076 1.25339,-0.98633 1.91211,-1.42969 0.65873,-0.44336 1.33726,-0.85108 2.03321,-1.2207 0.69594,-0.36962 1.41012,-0.69996 2.13671,-0.98633 0.7266,-0.28637 1.46611,-0.52904 2.2168,-0.72265 0.74849,-0.19306 1.50946,-0.33577 2.27539,-0.42774 0.76594,-0.092 1.53694,-0.13265 2.30274,-0.11914 0.76579,0.0135 1.52732,0.0797 2.27539,0.20313 0.74806,0.12338 1.48256,0.30336 2.19531,0.54101 0.70934,0.23652 1.4003,0.53383 2.06055,0.88672 0.66024,0.35289 1.28923,0.76053 1.87695,1.2168 0.58772,0.45626 1.13323,0.96119 1.625,1.50781 0.49177,0.54662 0.93034,1.13579 1.30273,1.75976 0.32827,0.55004 0.60738,1.13118 0.83594,1.73438 0.22856,0.6032 0.40657,1.22847 0.53125,1.86328 0.12468,0.63481 0.19625,1.28091 0.21289,1.92578 0.0166,0.64487 -0.0216,1.2885 -0.11719,1.92188 -0.0956,0.63337 -0.24897,1.26008 -0.45507,1.87109 -0.20611,0.61101 -0.46514,1.20595 -0.77149,1.77539 -0.30635,0.56944 -0.66035,1.11438 -1.05664,1.62305 -0.39629,0.50867 -0.83462,0.98145 -1.31055,1.41015 -0.47592,0.42871 -0.99171,0.81488 -1.53906,1.15626 -0.54735,0.34137 -1.12612,0.63715 -1.72461,0.88281 -0.59849,0.24565 -1.21832,0.44242 -1.84765,0.58398 -0.62934,0.14157 -1.26832,0.22872 -1.90821,0.25781 -0.63987,0.0291 -1.28425,-7e-5 -1.92382,-0.084 -0.63958,-0.0839 -1.27428,-0.22172 -1.89258,-0.41211 -0.61831,-0.19039 -1.22081,-0.43232 -1.79688,-0.72266 -0.57607,-0.29033 -1.1258,-0.62992 -1.63867,-1.01367 a 2,2 0 0 0 -1.48242,-0.37695 2,2 0 0 0 -1.31641,0.78125 2,2 0 0 0 -0.37695,1.48242 2,2 0 0 0 0.78125,1.31641 c 0.70334,0.52625 1.44948,0.98822 2.22851,1.38281 0.77904,0.39459 1.59053,0.72218 2.42383,0.97852 0.8333,0.25634 1.68856,0.44122 2.55469,0.55273 0.86613,0.11151 1.74357,0.14928 2.62109,0.10937 0.87753,-0.0399 1.74713,-0.1561 2.59961,-0.3457 0.85248,-0.1896 1.68749,-0.45237 2.49414,-0.7832 0.80666,-0.33084 1.58612,-0.72975 2.32618,-1.19336 0.74005,-0.46361 1.44107,-0.99216 2.09375,-1.58008 0.65266,-0.58792 1.25079,-1.23011 1.78906,-1.91797 0.53827,-0.68786 1.01648,-1.4215 1.42969,-2.18945 0.4132,-0.76795 0.7616,-1.57024 1.03906,-2.39844 0.27746,-0.82819 0.48419,-1.68218 0.61523,-2.55078 0.13104,-0.8686 0.18485,-1.74412 0.16406,-2.61719 -0.0208,-0.87306 -0.11689,-1.7441 -0.28515,-2.59961 -0.16826,-0.8555 -0.40931,-1.6958 -0.7207,-2.51172 -0.3114,-0.81591 -0.6924,-1.60702 -1.14258,-2.36132 -0.50947,-0.85366 -1.09803,-1.6478 -1.75196,-2.37891 -0.65392,-0.73111 -1.37352,-1.39876 -2.14453,-1.99805 -0.77101,-0.59928 -1.59434,-1.13166 -2.45508,-1.58984 -0.86073,-0.45818 -1.75855,-0.8426 -2.68164,-1.15039 -0.91966,-0.30665 -1.85824,-0.536 -2.80468,-0.69336 -0.94644,-0.15736 -1.90075,-0.24273 -2.85547,-0.25977 -0.95473,-0.017 -1.90855,0.0339 -2.85352,0.14844 -0.94496,0.11452 -1.88106,0.29259 -2.79883,0.5293 -0.91554,0.23614 -1.81143,0.5298 -2.68359,0.87305 -0.87216,0.34324 -1.72113,0.73626 -2.54492,1.17382 -0.82379,0.43757 -1.62213,0.91842 -2.39258,1.4375 -0.77045,0.51909 -1.51248,1.07624 -2.22461,1.66407 -1.42234,1.17406 -2.72261,2.4687 -3.91406,3.8457 -1.19146,1.377 -2.2741,2.83638 -3.25977,4.3418 -1.1481,1.7535 -2.17014,3.55591 -3.13281,5.36132 -0.96267,1.80542 -1.86635,3.61362 -2.7793,5.38086 -0.91294,1.76725 -1.83505,3.49382 -2.83398,5.13282 -0.49946,0.81949 -1.01805,1.61617 -1.56445,2.38672 -0.54641,0.77054 -1.12016,1.51427 -1.73047,2.2246 -0.77209,0.89863 -1.60417,1.7475 -2.48633,2.54102 -0.88216,0.79352 -1.81356,1.53216 -2.78906,2.20898 -0.97551,0.67683 -1.99475,1.29129 -3.04688,1.83985 -1.05213,0.54856 -2.13797,1.03075 -3.25,1.43945 -1.04318,0.3834 -2.11383,0.68984 -3.19726,0.94531 z" />
    </g>
    <path
       sodipodi:type="star"
       style="fill:#ffffff;fill-opacity:1;stroke:none;stroke-width:4;stroke-linecap:round;stroke-linejoin:round;stroke-dasharray:none;stroke-opacity:1;paint-order:fill markers stroke"
       id="path5425"
       inkscape:flatsided="false"
       sodipodi:sides="5"
       sodipodi:cx="461.11185"
       sodipodi:cy="244.94353"
       sodipodi:r1="16.161955"
       sodipodi:r2="6.7880211"
       sodipodi:arg1="-1.5707963"
       sodipodi:arg2="-0.9424778"
       inkscape:rounded="0.06"
       inkscape:randomized="0"
       d="m 461.11185,228.78157 c 0.68351,0 3.43692,10.26857 3.9899,10.67033 0.55297,0.40176 11.16981,-0.15275 11.38103,0.49731 0.21122,0.65006 -8.70392,6.44187 -8.91514,7.09193 -0.21122,0.65006 3.59694,10.57592 3.04397,10.97768 -0.55298,0.40176 -8.81625,-6.28727 -9.49976,-6.28727 -0.68352,0 -8.94679,6.68903 -9.49976,6.28727 -0.55298,-0.40176 3.25518,-10.32762 3.04397,-10.97768 -0.21122,-0.65006 -9.12636,-6.44187 -8.91515,-7.09193 0.21122,-0.65006 10.82806,-0.0956 11.38104,-0.49731 0.55297,-0.40176 3.30638,-10.67033 3.9899,-10.67033 z"
       inkscape:transform-center-y="-1.5346296"
       transform="translate(8.5049834,-3.2602438)" />
  </g>
</svg>
