<?xml version="1.0" encoding="UTF-8" standalone="no"?>
<!-- Created with Inkscape (http://www.inkscape.org/) -->

<svg
   version="1.1"
   id="svg132"
   width="512"
   height="512"
   viewBox="0 0 512 512"
   sodipodi:docname="Mini Star.svg"
   inkscape:version="1.2.2 (732a01da63, 2022-12-09)"
   inkscape:export-filename="Mini Star.png"
   inkscape:export-xdpi="96"
   inkscape:export-ydpi="96"
   xmlns:inkscape="http://www.inkscape.org/namespaces/inkscape"
   xmlns:sodipodi="http://sodipodi.sourceforge.net/DTD/sodipodi-0.dtd"
   xmlns="http://www.w3.org/2000/svg"
   xmlns:svg="http://www.w3.org/2000/svg">
  <defs
     id="defs136">
    <inkscape:path-effect
       effect="spiro"
       id="path-effect1478"
       is_visible="true"
       lpeversion="1" />
    <inkscape:path-effect
       effect="spiro"
       id="path-effect1474"
       is_visible="true"
       lpeversion="1" />
  </defs>
  <sodipodi:namedview
     id="namedview134"
     pagecolor="#ffffff"
     bordercolor="#666666"
     borderopacity="1.0"
     inkscape:showpageshadow="2"
     inkscape:pageopacity="0.0"
     inkscape:pagecheckerboard="0"
     inkscape:deskcolor="#d1d1d1"
     showgrid="false"
     inkscape:zoom="0.859375"
     inkscape:cx="112.87273"
     inkscape:cy="166.4"
     inkscape:window-width="1858"
     inkscape:window-height="1057"
     inkscape:window-x="54"
     inkscape:window-y="892"
     inkscape:window-maximized="1"
     inkscape:current-layer="g138" />
  <g
     inkscape:groupmode="layer"
     inkscape:label="Image"
     id="g138">
    <path
       id="path352"
       style="fill:#6b5dff;fill-opacity:1;stroke-width:0.984988;stroke-linecap:round;paint-order:fill markers stroke"
       d="M 500.66797 216.3125 C 500.54544 216.40403 500.41515 216.48417 500.29297 216.57617 C 498.34959 218.03953 496.44895 219.56389 494.5957 221.14258 C 492.74246 222.72127 490.93562 224.35584 489.17969 226.04297 C 487.42375 227.7301 485.71786 229.46912 484.06641 231.25781 C 482.41495 233.04651 480.8191 234.8842 479.2793 236.76758 C 477.73949 238.65096 476.25693 240.5796 474.83594 242.55078 C 473.41495 244.52196 472.05476 246.5358 470.75977 248.58789 C 469.86776 250.00139 469.00644 251.43601 468.17578 252.88867 C 467.34512 254.34134 466.54593 255.8121 465.77734 257.30078 C 465.00876 258.78947 464.27022 260.29486 463.56445 261.81641 C 462.85868 263.33796 462.1852 264.87647 461.54297 266.42773 C 460.90074 267.979 460.29085 269.54327 459.71289 271.12109 C 459.13494 272.69892 458.58912 274.28939 458.07617 275.89062 C 457.56322 277.49186 457.08197 279.10507 456.63477 280.72656 C 456.18756 282.34806 455.77331 283.97859 455.39258 285.61719 C 455.01184 287.25579 454.66509 288.90213 454.35156 290.55469 C 454.03803 292.20724 453.75731 293.86594 453.51172 295.5293 C 453.26612 297.19265 453.05583 298.86024 452.87891 300.53125 C 452.70198 302.20226 452.5587 303.87528 452.45117 305.55078 C 452.34365 307.22629 452.27177 308.90323 452.23438 310.58008 C 452.19698 312.25693 452.19504 313.93433 452.22852 315.60938 C 452.26199 317.28442 452.33048 318.95882 452.43555 320.62891 C 452.54062 322.29899 452.68197 323.96498 452.85938 325.62695 C 453.03678 327.28893 453.25019 328.94889 453.5 330.60352 C 453.74981 332.25814 454.03658 333.90838 454.35742 335.55273 C 454.67826 337.19708 455.03334 338.83369 455.42383 340.46484 C 455.81431 342.09599 456.24047 343.72091 456.69922 345.33594 C 457.15797 346.95096 457.65014 348.55637 458.17578 350.15234 C 458.70142 351.74832 459.26042 353.33421 459.85156 354.9082 C 460.44271 356.4822 461.06543 358.04465 461.7207 359.59375 C 462.37597 361.14285 463.06324 362.6799 463.78125 364.20117 C 464.49926 365.72244 465.24797 367.22823 466.02734 368.71875 C 466.80672 370.20927 467.61572 371.68378 468.45508 373.14062 C 469.29444 374.59747 470.16454 376.03679 471.0625 377.45703 C 471.17307 377.63191 471.29285 377.80031 471.4043 377.97461 A 248.14546 248.14546 0 0 0 504.14453 256 A 248.14546 248.14546 0 0 0 500.66797 216.3125 z " />
    <path
       id="path1597"
       style="fill:#6bffff;fill-opacity:1;stroke-width:0.984988;stroke-linecap:round;paint-order:fill markers stroke"
       d="M 493.625 184.83594 C 493.59669 184.85341 493.56736 184.86923 493.53906 184.88672 C 492.24532 185.68646 490.96329 186.50541 489.69531 187.34375 C 488.42733 188.18209 487.17296 189.03996 485.93164 189.91602 C 484.69033 190.79207 483.46179 191.6867 482.24805 192.59961 C 481.0343 193.51252 479.83566 194.44369 478.65039 195.39258 C 477.46512 196.34147 476.29456 197.30897 475.13867 198.29297 C 473.98279 199.27697 472.84044 200.27864 471.71484 201.29688 C 470.58925 202.31511 469.47917 203.34879 468.38477 204.40039 C 467.29036 205.45199 466.2127 206.52137 465.15039 207.60547 C 464.08808 208.68957 463.04103 209.78857 462.01172 210.9043 C 460.98241 212.02002 459.97001 213.15235 458.97461 214.29883 C 457.9792 215.44531 457.00161 216.60683 456.04102 217.7832 C 455.08042 218.95957 454.13777 220.15009 453.21289 221.35547 C 452.28801 222.56085 451.38045 223.78014 450.49219 225.01367 C 449.60393 226.2472 448.73355 227.49506 447.88281 228.75586 C 447.03208 230.01666 446.20098 231.29092 445.38867 232.57812 C 444.26546 234.358 443.18136 236.16086 442.13672 237.98438 C 441.09208 239.80789 440.08642 241.65167 439.12109 243.51562 C 438.15577 245.37958 437.23097 247.26289 436.3457 249.16406 C 435.46044 251.06524 434.615 252.98474 433.81055 254.91992 C 433.00609 256.85511 432.24244 258.8055 431.51953 260.77148 C 430.79663 262.73747 430.11522 264.71932 429.47461 266.71289 C 428.834 268.70646 428.23334 270.71253 427.67578 272.73047 C 427.11822 274.74841 426.60268 276.7773 426.12891 278.81641 C 425.65513 280.85551 425.22322 282.90584 424.83398 284.96289 C 424.44475 287.01994 424.09888 289.08446 423.79492 291.15625 C 423.49096 293.22804 423.22965 295.30536 423.01172 297.38867 C 422.79379 299.47199 422.61944 301.56072 422.48828 303.65234 C 422.35712 305.74397 422.26825 307.83882 422.22461 309.93555 C 422.18097 312.03228 422.18194 314.13185 422.22656 316.23047 C 422.27118 318.32909 422.36051 320.4281 422.49414 322.52539 C 422.62777 324.62268 422.80591 326.71779 423.0293 328.81055 C 423.25268 330.9033 423.51996 332.99011 423.83203 335.06836 C 424.1441 337.14661 424.50104 339.21658 424.90039 341.27734 C 425.29974 343.33811 425.74329 345.38939 426.22852 347.42969 C 426.71374 349.46998 427.24085 351.49878 427.81055 353.51562 C 428.38024 355.53247 428.99177 357.53694 429.64453 359.52734 C 430.29729 361.51775 430.9902 363.4941 431.72461 365.45508 C 432.45902 367.41606 433.23417 369.36244 434.04883 371.29102 C 434.86349 373.21959 435.71783 375.13025 436.61133 377.02344 C 437.50483 378.91663 438.43727 380.79167 439.4082 382.64648 C 440.37914 384.5013 441.38858 386.33693 442.43555 388.15039 C 443.48251 389.96385 444.56787 391.75627 445.68945 393.52539 C 446.81104 395.29452 447.96926 397.03991 449.16406 398.76172 C 450.35886 400.48352 451.59081 402.18006 452.85742 403.85156 C 453.13111 404.21274 453.42417 404.55922 453.70117 404.91797 A 248.14546 248.14546 0 0 0 471.4043 377.97461 C 471.29285 377.80031 471.17307 377.63191 471.0625 377.45703 C 470.16454 376.03679 469.29444 374.59747 468.45508 373.14062 C 467.61572 371.68378 466.80672 370.20927 466.02734 368.71875 C 465.24797 367.22823 464.49926 365.72244 463.78125 364.20117 C 463.06324 362.6799 462.37597 361.14285 461.7207 359.59375 C 461.06543 358.04465 460.44271 356.4822 459.85156 354.9082 C 459.26042 353.33421 458.70142 351.74832 458.17578 350.15234 C 457.65014 348.55637 457.15797 346.95096 456.69922 345.33594 C 456.24047 343.72091 455.81431 342.09599 455.42383 340.46484 C 455.03334 338.83369 454.67826 337.19708 454.35742 335.55273 C 454.03658 333.90838 453.74981 332.25814 453.5 330.60352 C 453.25019 328.94889 453.03678 327.28893 452.85938 325.62695 C 452.68197 323.96498 452.54062 322.29899 452.43555 320.62891 C 452.33048 318.95882 452.26199 317.28442 452.22852 315.60938 C 452.19504 313.93433 452.19698 312.25693 452.23438 310.58008 C 452.27177 308.90323 452.34365 307.22629 452.45117 305.55078 C 452.5587 303.87528 452.70198 302.20226 452.87891 300.53125 C 453.05583 298.86024 453.26612 297.19265 453.51172 295.5293 C 453.75731 293.86594 454.03803 292.20724 454.35156 290.55469 C 454.66509 288.90213 455.01184 287.25579 455.39258 285.61719 C 455.77331 283.97859 456.18756 282.34806 456.63477 280.72656 C 457.08197 279.10507 457.56322 277.49186 458.07617 275.89062 C 458.58912 274.28939 459.13494 272.69892 459.71289 271.12109 C 460.29085 269.54327 460.90074 267.979 461.54297 266.42773 C 462.1852 264.87647 462.85868 263.33796 463.56445 261.81641 C 464.27022 260.29486 465.00876 258.78947 465.77734 257.30078 C 466.54593 255.8121 467.34512 254.34134 468.17578 252.88867 C 469.00644 251.43601 469.86776 250.00139 470.75977 248.58789 C 472.05476 246.5358 473.41495 244.52196 474.83594 242.55078 C 476.25693 240.5796 477.73949 238.65096 479.2793 236.76758 C 480.8191 234.8842 482.41495 233.04651 484.06641 231.25781 C 485.71786 229.46912 487.42375 227.7301 489.17969 226.04297 C 490.93562 224.35584 492.74246 222.72127 494.5957 221.14258 C 496.44895 219.56389 498.34959 218.03953 500.29297 216.57617 C 500.41515 216.48417 500.54544 216.40403 500.66797 216.3125 A 248.14546 248.14546 0 0 0 493.625 184.83594 z " />
    <path
       id="path1595"
       style="fill:#6b5dff;fill-opacity:1;stroke-width:0.984988;stroke-linecap:round;paint-order:fill markers stroke"
       d="M 256 7.8554688 A 248.14546 248.14546 0 0 0 241.93359 8.5039062 C 242.19913 10.389849 242.4446 12.27878 242.625 14.173828 C 242.83678 16.398568 242.9895 18.627332 243.08398 20.859375 C 243.17847 23.091418 243.21416 25.326865 243.19141 27.560547 C 243.16866 29.794229 243.08719 32.026205 242.94727 34.255859 C 242.80734 36.485515 242.60861 38.711676 242.35156 40.931641 C 242.09451 43.151604 241.77841 45.365706 241.4043 47.570312 C 241.03018 49.77492 240.59854 51.970711 240.10742 54.154297 C 239.6163 56.337883 239.06705 58.509117 238.45898 60.666016 C 237.85092 62.822914 237.18394 64.965297 236.45898 67.089844 C 235.73403 69.214391 234.95116 71.321673 234.10938 73.408203 C 233.26758 75.494733 232.36677 77.560668 231.4082 79.603516 C 230.44964 81.646364 229.43594 83.65966 228.36914 85.640625 C 227.30234 87.62159 226.18242 89.570913 225.01172 91.486328 C 223.84101 93.401744 222.6199 95.282707 221.34961 97.128906 C 220.07932 98.975105 218.76009 100.78529 217.39453 102.55859 C 216.02897 104.33191 214.61666 106.06887 213.16016 107.76562 C 211.70365 109.46239 210.20328 111.11978 208.66016 112.73633 C 207.11702 114.35288 205.53169 115.92827 203.90625 117.46094 C 202.28081 118.9936 200.61554 120.48263 198.91211 121.92773 C 197.20868 123.37285 195.46655 124.77501 193.68945 126.12891 C 191.91236 127.4828 190.0984 128.78981 188.25195 130.04883 C 186.40551 131.30784 184.5267 132.51728 182.61523 133.67773 C 180.70378 134.8382 178.76124 135.94957 176.78906 137.00781 C 174.81689 138.06606 172.81567 139.07107 170.78711 140.02344 C 168.75855 140.9758 166.70172 141.87594 164.62109 142.71875 C 162.54048 143.56156 160.43501 144.34854 158.30664 145.07812 C 156.17827 145.80772 154.02726 146.47909 151.85547 147.0918 C 148.66912 147.99073 145.45206 148.76051 142.21289 149.40039 C 138.97372 150.04027 135.71339 150.55007 132.43945 150.93164 C 129.16553 151.31321 125.87855 151.56546 122.58789 151.68945 C 119.29723 151.81345 116.00223 151.80862 112.71289 151.67578 C 109.42356 151.54294 106.1391 151.28346 102.86914 150.89453 C 99.599183 150.5056 96.343867 149.98803 93.111328 149.34375 C 89.878789 148.69947 86.669257 147.92818 83.492188 147.0293 C 80.315117 146.13041 77.169961 145.10392 74.066406 143.95117 C 70.962851 142.79842 67.911454 141.52192 64.917969 140.12891 C 61.924484 138.73588 58.988411 137.22559 56.119141 135.60352 C 53.24987 133.98143 50.445753 132.24814 47.714844 130.4082 C 46.375861 129.50607 45.11178 128.50133 43.808594 127.54883 A 248.14546 248.14546 0 0 0 7.8554688 256 A 248.14546 248.14546 0 0 0 256 504.14453 A 248.14546 248.14546 0 0 0 453.70117 404.91797 C 453.42417 404.55922 453.13111 404.21274 452.85742 403.85156 C 451.59081 402.18006 450.35886 400.48352 449.16406 398.76172 C 447.96926 397.03991 446.81104 395.29452 445.68945 393.52539 C 444.56787 391.75627 443.48251 389.96385 442.43555 388.15039 C 441.38858 386.33693 440.37914 384.5013 439.4082 382.64648 C 438.43727 380.79167 437.50483 378.91663 436.61133 377.02344 C 435.71783 375.13025 434.86349 373.21959 434.04883 371.29102 C 433.23417 369.36244 432.45902 367.41606 431.72461 365.45508 C 430.9902 363.4941 430.29729 361.51775 429.64453 359.52734 C 428.99177 357.53694 428.38024 355.53247 427.81055 353.51562 C 427.24085 351.49878 426.71374 349.46998 426.22852 347.42969 C 425.74329 345.38939 425.29974 343.33811 424.90039 341.27734 C 424.50104 339.21658 424.1441 337.14661 423.83203 335.06836 C 423.51996 332.99011 423.25268 330.9033 423.0293 328.81055 C 422.80591 326.71779 422.62777 324.62268 422.49414 322.52539 C 422.36051 320.4281 422.27118 318.32909 422.22656 316.23047 C 422.18194 314.13185 422.18097 312.03228 422.22461 309.93555 C 422.26825 307.83882 422.35712 305.74397 422.48828 303.65234 C 422.61944 301.56072 422.79379 299.47199 423.01172 297.38867 C 423.22965 295.30536 423.49096 293.22804 423.79492 291.15625 C 424.09888 289.08446 424.44475 287.01994 424.83398 284.96289 C 425.22322 282.90584 425.65513 280.85551 426.12891 278.81641 C 426.60268 276.7773 427.11822 274.74841 427.67578 272.73047 C 428.23334 270.71253 428.834 268.70646 429.47461 266.71289 C 430.11522 264.71932 430.79663 262.73747 431.51953 260.77148 C 432.24244 258.8055 433.00609 256.85511 433.81055 254.91992 C 434.615 252.98474 435.46044 251.06524 436.3457 249.16406 C 437.23097 247.26289 438.15577 245.37958 439.12109 243.51562 C 440.08642 241.65167 441.09208 239.80789 442.13672 237.98438 C 443.18136 236.16086 444.26546 234.358 445.38867 232.57812 C 446.20098 231.29092 447.03208 230.01666 447.88281 228.75586 C 448.73355 227.49506 449.60393 226.2472 450.49219 225.01367 C 451.38045 223.78014 452.28801 222.56085 453.21289 221.35547 C 454.13777 220.15009 455.08042 218.95957 456.04102 217.7832 C 457.00161 216.60683 457.9792 215.44531 458.97461 214.29883 C 459.97001 213.15235 460.98241 212.02002 462.01172 210.9043 C 463.04103 209.78857 464.08808 208.68957 465.15039 207.60547 C 466.2127 206.52137 467.29036 205.45199 468.38477 204.40039 C 469.47917 203.34879 470.58925 202.31511 471.71484 201.29688 C 472.84044 200.27864 473.98279 199.27697 475.13867 198.29297 C 476.29456 197.30897 477.46512 196.34147 478.65039 195.39258 C 479.83566 194.44369 481.0343 193.51252 482.24805 192.59961 C 483.46179 191.6867 484.69033 190.79207 485.93164 189.91602 C 487.17296 189.03996 488.42733 188.18209 489.69531 187.34375 C 490.96329 186.50541 492.24532 185.68646 493.53906 184.88672 C 493.56736 184.86923 493.59669 184.85341 493.625 184.83594 A 248.14546 248.14546 0 0 0 256 7.8554688 z " />
    <path
       id="path1592"
       style="fill:#6b5dff;fill-opacity:1;stroke-width:0.984988;stroke-linecap:round;paint-order:fill markers stroke"
       d="M 211.91016 11.869141 A 248.14546 248.14546 0 0 0 60.935547 102.89453 C 62.120385 103.77512 63.28293 104.68603 64.505859 105.51172 C 66.589655 106.91864 68.726751 108.24364 70.910156 109.48242 C 73.093561 110.72121 75.324578 111.87393 77.59375 112.93359 C 79.862922 113.99326 82.170623 114.96053 84.511719 115.83008 C 86.852815 116.69963 89.233791 117.47376 91.644531 118.15234 C 94.055272 118.83093 96.496268 119.41348 98.958984 119.90039 C 101.4217 120.3873 103.90532 120.77774 106.40234 121.07227 C 108.89937 121.36679 111.41016 121.56654 113.92383 121.66797 C 116.43749 121.7694 118.95416 121.77402 121.4668 121.68164 C 123.97943 121.58926 126.48653 121.40019 128.98047 121.11328 C 131.47441 120.82637 133.95453 120.44113 136.41211 119.95898 C 138.86969 119.47684 141.30544 118.89684 143.70898 118.21875 C 146.96287 117.30076 150.16939 116.19283 153.3125 114.9082 C 156.45561 113.62358 159.53609 112.16209 162.53516 110.53906 C 165.53422 108.91603 168.45168 107.13048 171.27344 105.19727 C 174.09519 103.26405 176.82047 101.18391 179.43164 98.96875 C 182.04281 96.753587 184.54088 94.404435 186.9082 91.935547 C 189.27553 89.466659 191.51135 86.877979 193.60156 84.183594 C 195.69177 81.489208 197.63619 78.688531 199.41602 75.796875 C 201.19584 72.905219 202.81187 69.922028 204.24805 66.861328 C 205.68422 63.800629 206.94473 60.650571 208.03125 57.433594 C 209.11777 54.216617 210.03116 50.933142 210.76758 47.603516 C 211.50399 44.273889 212.0653 40.898647 212.45117 37.5 C 212.83704 34.101353 213.04716 30.677945 213.08203 27.253906 C 213.11691 23.829868 212.97476 20.405802 212.6582 17 C 212.49797 15.276068 212.16052 13.579982 211.91016 11.869141 z " />
    <path
       id="path1590"
       style="fill:#6bffff;fill-opacity:1;stroke-width:0.984988;stroke-linecap:round;paint-order:fill markers stroke"
       d="M 211.91016 11.869141 C 212.16052 13.579982 212.49797 15.276068 212.6582 17 C 212.97476 20.405802 213.11691 23.829868 213.08203 27.253906 C 213.04716 30.677945 212.83704 34.101353 212.45117 37.5 C 212.0653 40.898647 211.50399 44.273889 210.76758 47.603516 C 210.03116 50.933142 209.11777 54.216617 208.03125 57.433594 C 206.94473 60.650571 205.68422 63.800629 204.24805 66.861328 C 202.81187 69.922028 201.19584 72.905219 199.41602 75.796875 C 197.63619 78.688531 195.69177 81.489208 193.60156 84.183594 C 191.51135 86.877979 189.27553 89.466659 186.9082 91.935547 C 184.54088 94.404435 182.04281 96.753587 179.43164 98.96875 C 176.82047 101.18391 174.09519 103.26405 171.27344 105.19727 C 168.45168 107.13048 165.53422 108.91603 162.53516 110.53906 C 159.53609 112.16209 156.45561 113.62358 153.3125 114.9082 C 150.16939 116.19283 146.96287 117.30076 143.70898 118.21875 C 141.30544 118.89684 138.86969 119.47684 136.41211 119.95898 C 133.95453 120.44113 131.47441 120.82637 128.98047 121.11328 C 126.48653 121.40019 123.97943 121.58926 121.4668 121.68164 C 118.95416 121.77402 116.43749 121.7694 113.92383 121.66797 C 111.41016 121.56654 108.89937 121.36679 106.40234 121.07227 C 103.90532 120.77774 101.4217 120.3873 98.958984 119.90039 C 96.496268 119.41348 94.055272 118.83093 91.644531 118.15234 C 89.233791 117.47376 86.852815 116.69963 84.511719 115.83008 C 82.170623 114.96053 79.862922 113.99326 77.59375 112.93359 C 75.324578 111.87393 73.093561 110.72121 70.910156 109.48242 C 68.726751 108.24364 66.589655 106.91864 64.505859 105.51172 C 63.28293 104.68603 62.120385 103.77512 60.935547 102.89453 A 248.14546 248.14546 0 0 0 43.808594 127.54883 C 45.111782 128.50133 46.37586 129.50607 47.714844 130.4082 C 50.445756 132.24814 53.249868 133.98143 56.119141 135.60352 C 58.988414 137.2256 61.924481 138.73588 64.917969 140.12891 C 67.911457 141.52193 70.962848 142.79842 74.066406 143.95117 C 77.169964 145.10392 80.315114 146.13041 83.492188 147.0293 C 86.669261 147.92818 89.878786 148.69947 93.111328 149.34375 C 96.34387 149.98803 99.599179 150.5056 102.86914 150.89453 C 106.1391 151.28346 109.42356 151.54294 112.71289 151.67578 C 116.00223 151.80862 119.29723 151.81345 122.58789 151.68945 C 125.87855 151.56546 129.16552 151.31321 132.43945 150.93164 C 135.71339 150.55007 138.97372 150.04027 142.21289 149.40039 C 145.45206 148.76051 148.66912 147.99073 151.85547 147.0918 C 154.02726 146.47909 156.17827 145.80772 158.30664 145.07812 C 160.43501 144.34853 162.54047 143.56156 164.62109 142.71875 C 166.70172 141.87594 168.75855 140.9758 170.78711 140.02344 C 172.81567 139.07107 174.81689 138.06606 176.78906 137.00781 C 178.76124 135.94957 180.70377 134.8382 182.61523 133.67773 C 184.5267 132.51727 186.40551 131.30784 188.25195 130.04883 C 190.0984 128.78981 191.91236 127.48281 193.68945 126.12891 C 195.46655 124.77501 197.20868 123.37285 198.91211 121.92773 C 200.61554 120.48262 202.28081 118.9936 203.90625 117.46094 C 205.53169 115.92827 207.11702 114.35288 208.66016 112.73633 C 210.20329 111.11978 211.70365 109.46239 213.16016 107.76562 C 214.61667 106.06886 216.02897 104.33191 217.39453 102.55859 C 218.76009 100.78528 220.07932 98.975107 221.34961 97.128906 C 222.6199 95.282705 223.84101 93.401746 225.01172 91.486328 C 226.18242 89.570911 227.30234 87.621592 228.36914 85.640625 C 229.43594 83.659658 230.44964 81.646366 231.4082 79.603516 C 232.36677 77.560666 233.26758 75.494735 234.10938 73.408203 C 234.95117 71.321671 235.73402 69.214393 236.45898 67.089844 C 237.18394 64.965295 237.85092 62.822917 238.45898 60.666016 C 239.06705 58.509115 239.6163 56.337885 240.10742 54.154297 C 240.59854 51.970709 241.03018 49.774922 241.4043 47.570312 C 241.77841 45.365703 242.09451 43.151607 242.35156 40.931641 C 242.60861 38.711674 242.80734 36.485517 242.94727 34.255859 C 243.08719 32.026202 243.16866 29.794231 243.19141 27.560547 C 243.21416 25.326863 243.17847 23.09142 243.08398 20.859375 C 242.9895 18.62733 242.83678 16.39857 242.625 14.173828 C 242.4446 12.278778 242.19913 10.389851 241.93359 8.5039062 A 248.14546 248.14546 0 0 0 211.91016 11.869141 z " />
    <path
       sodipodi:type="star"
       style="fill:#6bffff;fill-opacity:1;stroke-width:0.5;stroke-linecap:round;paint-order:fill markers stroke"
       id="path1290"
       inkscape:flatsided="false"
       sodipodi:sides="5"
       sodipodi:cx="-79.709091"
       sodipodi:cy="133.23636"
       sodipodi:r1="117.61941"
       sodipodi:r2="76.452614"
       sodipodi:arg1="-1.5707963"
       sodipodi:arg2="-0.9424778"
       inkscape:rounded="0.12"
       inkscape:randomized="0"
       d="m -79.709088,15.616951 c 8.594431,0 37.984675,50.716263 44.937715,55.767944 6.953042,5.05168 64.269161,17.33128 66.924987,25.505071 2.655825,8.173794 -36.496123,51.797764 -39.1519485,59.971554 -2.6558258,8.17379 3.3772354,66.47926 -3.5758065,71.53094 -6.953041,5.05168 -60.540519,-18.70349 -69.13495,-18.70349 -8.594432,0 -62.181919,23.75517 -69.134959,18.70349 -6.95304,-5.05168 -0.91997,-63.35715 -3.5758,-71.53094 -2.65582,-8.17379 -41.80777,-51.79777 -39.15194,-59.97156 2.65582,-8.17379 59.97194,-20.453385 66.92498,-25.505065 6.95304,-5.05168 36.34329,-55.767944 44.937722,-55.767944 z"
       inkscape:transform-center-y="-12.080279"
       transform="matrix(1.0755569,0,0,1.0755569,341.73166,129.27246)"
       inkscape:transform-center-x="-2.1859806e-06" />
    <circle
       style="fill:#6bffff;fill-opacity:1;stroke-width:0.5;stroke-linecap:round;paint-order:fill markers stroke"
       id="path1402"
       cx="388.07272"
       cy="115.78181"
       r="16.872726" />
    <circle
       style="fill:#6bffff;fill-opacity:1;stroke-width:0.5;stroke-linecap:round;paint-order:fill markers stroke"
       id="path1404"
       cx="57.018181"
       cy="304.87274"
       r="17.454546" />
    <circle
       style="fill:#6bffff;fill-opacity:1;stroke-width:0.5;stroke-linecap:round;paint-order:fill markers stroke"
       id="path1408"
       cx="358.98181"
       cy="422.98181"
       r="26.181818" />
  </g>
</svg>
